<?xml version="1.0" encoding="utf-8"?>
<!DOCTYPE svg PUBLIC "-//W3C//DTD SVG 20010904//EN" "http://www.w3.org/TR/2001/REC-SVG-20010904/DTD/svg10.dtd">
<svg version="1.0" xmlns="http://www.w3.org/2000/svg" width="217px" height="773px" viewBox="0 0 217 773" preserveAspectRatio="xMidYMid meet">
 <g fill="#311f26">
  <path d="M76 769 l0 -4 4 0 4 0 0 4 0 4 -4 0 -4 0 0 -4z"/>
  <path d="M122.6 771.5 c-1.1 -0.8 -2.8 -1.5 -3.8 -1.5 -1 0 -1.8 -0.3 -1.8 -0.8 0 -0.4 -1.7 -1.6 -3.7 -2.7 -4.8 -2.5 -9.2 -7.4 -9.3 -10.2 0 -1.3 -0.4 -2.3 -0.9 -2.3 -0.5 0 -1.2 -1.1 -1.5 -2.5 -0.5 -2 -1.3 -2.5 -3.6 -2.5 -2.8 0 -2.9 -0.2 -3.2 -5.2 -0.3 -4.6 -0.6 -5.3 -2.5 -5.6 -1.9 -0.3 -2.3 0.1 -2.3 2.6 0 2.5 -0.5 3 -3 3.6 -1.8 0.3 -3 1.2 -3 2.1 0 1.8 -1.1 1.8 -11.7 0.3 -7.7 -1 -8.3 -1.3 -8.3 -3.5 0 -2.1 -0.4 -2.3 -5 -2.3 -4.9 0 -5 -0.1 -5 -3 0 -2 -0.5 -3 -1.5 -3 -0.8 0 -1.5 0.7 -1.5 1.5 0 0.8 -0.4 1.5 -1 1.5 -0.5 0 -1 0.9 -1 2 0 1.8 -0.7 2 -6.5 2 -6.3 0 -6.5 -0.1 -6.5 -2.5 0 -1.4 -0.4 -2.5 -1 -2.5 -0.5 0 -1 -0.7 -1 -1.5 0 -0.8 -0.6 -1.5 -1.4 -1.5 -1.6 0 -2.6 3 -2.6 7.8 0 3.1 -0.2 3.2 -4 3.2 -2.9 0 -4 -0.4 -4 -1.5 0 -0.8 -0.9 -1.5 -2 -1.5 -1.1 0 -2 -0.7 -2 -1.5 0 -2.5 -1.8 -1.7 -3.2 1.6 -1.2 3 -1.5 3.1 -6 2.5 -4.3 -0.4 -4.8 -0.3 -4.8 1.4 0 1.3 -0.7 2 -2 2 -2 0 -2 -0.7 -2 -48.5 0 -47.7 0.1 -48.5 2 -48.5 2.2 0 2.4 1.7 2.9 22.1 0.1 3.7 0.5 4.8 2 5.2 1.8 0.4 2 -0.4 2.6 -12.2 0.3 -6.9 0.8 -13.2 1 -13.8 0.3 -0.7 2.1 -1.3 4.1 -1.3 l3.7 0 -0.7 8 c-0.5 5.4 -0.4 8 0.3 8 0.7 0 1.1 2.4 1.1 6 l0 5.9 3.5 0.7 c1.9 0.3 4.2 0.4 5 0 1.6 -0.6 2.1 -4.6 0.6 -4.6 -0.5 0 -1.2 -1.6 -1.5 -3.5 -0.4 -2.1 -1.3 -3.5 -2.1 -3.5 -2.3 0 -1.9 -6.5 0.5 -8.7 1 -1.1 4.3 -2.7 7.2 -3.7 2.9 -1 8 -3.1 11.3 -4.6 3.3 -1.5 9.8 -4.3 14.5 -6.1 4.7 -1.8 10.8 -4.5 13.5 -5.9 l5 -2.6 0.3 -14.7 c0.1 -8.1 0.1 -14.7 -0.1 -14.7 -0.7 0 -7.1 2.1 -9.2 3 -2.3 1 -12 4.5 -18 6.5 -2.2 0.7 -5.3 2 -7 2.9 -1.6 0.9 -4.9 1.6 -7.3 1.6 l-4.3 0 0.3 -3.7 0.3 -3.7 9.3 -3.3 c12.2 -4.3 17.3 -6.7 14.9 -7.1 -1 -0.2 -2.9 -1.4 -4.2 -2.8 -2.3 -2.3 -5.1 -2.4 -6.6 -0.1 -1.4 2 -17.4 3.6 -21.3 2.1 -1.1 -0.4 -1.6 -1.9 -1.6 -4.8 0 -4.8 1.3 -6.6 4.8 -6.6 4.5 0 5.2 -2 5.2 -14.2 0 -6.2 0.4 -15.1 0.9 -19.8 2.2 -20.1 3.2 -39.4 3.4 -67.3 0.1 -16.3 0 -29.1 -0.2 -28.5 -0.5 2 -3.3 3.8 -5.6 3.8 -2.1 0 -2.2 0.5 -2.9 16.8 -0.5 9.2 -0.7 19.1 -0.6 22 0 3 -0.3 5.9 -0.9 6.5 -0.5 0.7 -1.2 4.6 -1.5 8.7 -0.9 11.7 -3.6 55.3 -4.2 67.3 l-0.6 10.7 -3.5 0 -3.6 0 0.6 -15.2 c0.4 -8.4 1.6 -40.3 2.7 -70.8 1.1 -30.5 2.7 -72.5 3.5 -93.3 0.8 -20.7 1.5 -41.9 1.5 -47.1 0 -10.3 0.2 -10.6 6.3 -10.6 5 0 10.7 -1.2 10.7 -2.1 0 -0.5 -2 -0.9 -4.5 -0.9 -4.5 0 -4.5 0 -4.5 -3.5 0 -2.9 0.5 -3.7 2.5 -4.5 1.4 -0.5 2.5 -1.4 2.5 -2 0 -0.5 0.9 -1 2 -1 2 0 2.6 -2.2 2.1 -7.4 -0.1 -1.1 1.2 -14.2 2.9 -29.3 1.6 -15 3 -27.5 3 -27.8 0 -0.3 -1.6 -0.5 -3.5 -0.5 -3.8 0 -4.2 -1.1 -2.9 -7.9 0.6 -2.7 1 -3.1 4 -3.1 2.8 0 3.4 0.4 3.5 2.3 0 1.4 0.2 1.7 0.6 0.7 0.3 -0.8 1 -2.6 1.6 -4 0.5 -1.4 1 -6.5 1.1 -11.5 l0.1 -9 3.3 -0.3 c3.7 -0.4 3.4 -2.2 -0.5 -2.2 l-2.6 0 0.7 -17.7 c0.3 -9.8 0.9 -24.7 1.2 -33.1 l0.7 -15.2 3.6 0 c2 0 6.7 0.7 10.6 1.5 3.8 0.8 7.9 1.4 9 1.4 2 -0.1 2 -0.1 0 -0.6 -10.2 -2.1 -16.5 -3.9 -19.2 -5.6 -3.2 -1.8 -3.3 -2.1 -3.3 -8 0 -3.4 0.9 -19.7 2 -36.2 1.1 -16.5 2 -33 2 -36.7 l0 -6.8 4 0 c2.1 0 4.9 0.4 6.2 0.9 1.3 0.5 9.2 2.9 17.6 5.2 8.3 2.3 15.2 4.6 15.2 5 0 0.5 1.4 0.9 3.1 0.9 3.4 0 34.1 8.8 34.9 10 0.3 0.4 2.3 1 4.5 1.2 2.2 0.3 9.6 2.3 16.5 4.4 14.3 4.5 14.2 4.4 11.6 14.8 -0.8 3.3 -1.7 8.6 -2 11.7 l-0.6 5.6 4.1 1.6 c4.5 1.8 11.1 6.3 16.7 11.5 4.6 4.2 5 3.5 5.8 -11.2 l0.7 -11.6 2.9 0 c2.4 0 2.8 0.3 2.4 2.3 -0.6 2.7 -2.1 12.5 -3.7 23.9 -0.7 4.8 -0.9 11.9 -0.6 15.9 0.5 5.4 0.3 7.5 -0.8 8.5 -2.5 2.5 -3.5 1.5 -3.5 -3.4 0 -5.1 -1.1 -6.4 -6.5 -7.6 -3.4 -0.7 -27.5 -1.7 -38.3 -1.6 -4.1 0.1 -7.9 -0.3 -8.6 -0.9 -1.6 -1.3 -3 -0.3 -5.1 3.9 -1 1.9 -2.5 4 -3.4 4.6 -2.2 1.7 -4.2 16.4 -2.9 21.2 1.7 6.1 -1 18.6 -5.7 26.7 l-2.7 4.5 2.1 4.3 c3.3 6.8 6.1 9 10.5 8.2 3.6 -0.7 3.6 -0.8 3.6 -5.6 0 -4.6 0.2 -4.9 2.5 -4.9 1.8 0 2.5 -0.5 2.5 -2 0 -1.7 0.7 -2 5 -2 4 0 5 -0.3 5 -1.7 0 -2.5 6.8 -8 11.7 -9.4 2.4 -0.6 4.6 -1.6 4.9 -2 0.3 -0.5 2.3 -0.9 4.5 -0.9 3.5 0 3.9 0.3 3.9 2.5 0 1.9 0.5 2.5 2.3 2.5 1.2 0 3.2 0.3 4.5 0.6 1.6 0.5 2.2 0.2 2.2 -1 0 -1 0.9 -1.6 2.5 -1.6 2 0 2.5 -0.5 2.5 -2.5 0 -2.1 -0.5 -2.5 -3.1 -2.5 -2.2 0 -3.2 -0.6 -3.6 -1.9 -0.4 -1.7 -0.7 -1.8 -3.1 -0.5 -2.8 1.4 -10.8 1.9 -13.6 0.8 -0.9 -0.3 -1.6 -1.7 -1.6 -3 0 -1.3 -0.4 -2.4 -1 -2.4 -0.6 0 -1 -3 -1 -6.9 l0 -6.9 4.1 -0.7 c4.8 -0.8 13.5 0.1 18.8 2 3.1 1.1 4.1 1 6.2 -0.1 1.3 -0.7 2.9 -1.3 3.6 -1.4 1.9 0 2.6 4 1.1 5.8 -1 1.2 -1.5 5.5 -1.7 15.2 -0.3 12.2 -1 23.1 -2.7 39.3 l-0.6 5.7 3.1 0 c3.6 0 3.6 0.1 1.6 3.9 -0.8 1.6 -1.2 3.1 -0.8 3.4 1 1 2.1 8.7 1.3 9.2 -0.4 0.3 -0.6 8 -0.4 17.2 0.3 15 0.5 16.9 2.4 19.5 1.1 1.6 2.9 6.9 4 11.8 1.1 4.9 2.3 9.8 2.8 10.7 1.2 2.4 2.2 18.3 1.2 18.3 -0.4 0 -1.3 1.2 -1.9 2.8 -0.7 1.5 -1.8 3.8 -2.6 5.2 -0.9 1.5 -1.5 5.4 -1.5 10 -0.1 7.3 -1.4 23.2 -2.6 31.7 -0.5 3.8 -0.3 4.5 2.4 6.8 3 2.5 4.7 6.1 3.3 7 -0.4 0.2 -1.8 3.8 -3.2 8 -2.5 8 -4.9 10 -4.9 4 0 -5 -2.5 -8.5 -6.1 -8.5 -2.7 0 -2.9 -0.3 -2.9 -4 l0 -4 4 0 c3.7 0 3.9 -0.1 2.8 -2 -0.9 -1.3 -2.6 -2 -5.8 -2.2 -4.2 -0.3 -4.5 -0.5 -4.8 -3.3 -0.1 -1.6 -0.7 -3.9 -1.2 -5 -1.1 -2.4 -3 -37.7 -3.1 -58.9 l-0.1 -15.1 -1.4 6.4 c-2.6 11.8 -5.2 36.4 -6.3 58.6 -4.1 82.2 -4.1 89.5 0 89.5 1.1 0 1.9 -0.4 1.9 -0.9 0 -0.5 2.3 -1.2 5 -1.6 2.8 -0.4 5 -1.1 5 -1.6 0 -0.5 1.5 -0.9 3.4 -0.9 2.4 0 3.6 0.5 3.9 1.8 0.3 0.9 0.5 0.2 0.6 -1.5 0 -1.8 0.6 -3.3 1.1 -3.3 0.6 0 1 -0.7 1 -1.5 0 -0.8 -0.4 -1.5 -1 -1.5 -0.5 0 -1 -1.8 -1 -4 0 -3.5 0.3 -4 2.3 -4 3.1 0 4.7 1.8 4.7 5.1 0 4 6.5 31.7 8.2 35.2 0.5 1 2 2.2 3.4 2.7 2 0.8 2.4 1.6 2.4 4.8 0 2.1 -0.6 4.4 -1.2 5 -1.7 1.7 -1.2 23.4 0.7 30.8 1.6 6.3 2 11.4 0.8 11.4 -0.5 0 -0.8 3.5 -0.8 7.8 0 12.1 -5.3 21.5 -15 26.5 -5.9 3 -18.8 2.6 -25.2 -0.9 -2.5 -1.3 -5.4 -2.4 -6.4 -2.4 -1 0 -3.6 -0.6 -5.6 -1.4 -2.1 -0.8 -7.4 -2.6 -11.8 -3.9 -4.4 -1.4 -9.7 -3.3 -11.7 -4.1 -4.8 -2.1 -4.6 -2.1 -4.6 1.7 0 1.7 -0.7 5.7 -1.5 8.8 -0.8 3.1 -1.8 8.7 -2.2 12.5 -0.4 3.8 -1.5 8.3 -2.5 10 -1.5 2.7 -1.6 4.6 -0.9 17 0.6 11 1.2 14.7 2.8 17.9 1.2 2.1 2.1 5.3 2.1 7 0 1.6 1.1 5 2.5 7.4 1.9 3.3 2.6 6.3 3.1 12.9 0.3 4.8 1 9.3 1.7 10.1 0.7 0.8 1.2 4.6 1.2 9.3 l-0.1 7.8 4.4 0 c5.5 0 5.3 2.4 -0.2 2.8 -3.6 0.3 -3.7 0.3 -3 4 0.4 2 1.5 4.5 2.5 5.6 2.9 3.1 2.4 4.6 -1.6 4.6 -2.4 0 -3.5 0.5 -3.5 1.5 0 0.9 0.9 1.5 2.5 1.5 1.4 0 2.5 -0.4 2.5 -1 0 -1.9 3.9 -1 4.5 1.1 0.4 1.1 0.5 2.3 0.2 2.6 -0.3 0.2 0.1 2 0.9 3.8 1.3 3.1 1.2 3.3 -0.9 3.9 -3.6 0.9 -11.7 0.7 -11.7 -0.4 0 -0.5 -1.1 -1 -2.5 -1 -2 0 -2.5 -0.5 -2.5 -2.5 0 -1.6 -0.6 -2.5 -1.5 -2.5 -0.9 0 -1.5 -0.9 -1.5 -2.5 0 -1.5 -0.6 -2.5 -1.4 -2.5 -0.8 0 -2.1 -0.3 -3 -0.6 -1.2 -0.5 -1.6 0 -1.6 2 0 2.2 -0.5 2.6 -2.7 2.6 -5.3 0 -5.6 1 -2.7 8.6 1.4 3.8 2.8 7.7 3.1 8.7 0.3 0.9 1.1 1.7 1.7 1.7 0.7 0 2.3 1.2 3.7 2.6 4.3 4.6 14.3 8.7 22.5 9.2 5.1 0.3 7.4 0.1 7.4 -0.7 0 -0.6 1.4 -1.1 3 -1.1 2.3 0 3 0.5 3 1.9 0 1.1 -0.4 2.3 -1 2.6 -0.5 0.3 -1 3.1 -1 6.1 l0 5.4 -15.2 0 c-11.9 -0.1 -15.7 -0.4 -17.2 -1.5z m-44 -33.7 c-0.8 -3.8 -0.9 -4 -2.9 -3.3 -2.4 1 -2.9 4.5 -0.6 4.5 1 0 1.9 0.5 1.9 1 0 0.6 0.5 1 1.1 1 0.8 0 0.9 -1.1 0.5 -3.2z m-33.6 -65.8 c0 -1.1 0.4 -2 0.8 -2 1.2 0 4 -6.3 3.5 -7.7 -0.8 -2.3 -4.3 -1.4 -5.3 1.2 -0.5 1.4 -1.4 2.5 -1.9 2.5 -1.8 0 -4.1 3.1 -4.1 5.6 0 2.1 0.5 2.4 3.5 2.4 2.8 0 3.5 -0.4 3.5 -2z m25.1 -13 c0.5 0 0.9 -0.7 0.9 -1.5 0 -0.8 1.1 -1.7 2.5 -2.1 1.4 -0.3 2.5 -1.2 2.5 -2 0 -1 -0.6 -1.1 -2.2 -0.4 -1.3 0.5 -4.9 1.4 -8 2 -6.6 1.3 -8.2 2.7 -4.1 3.6 1.5 0.3 3.3 0.7 3.8 0.9 0.6 0.2 1.6 0.2 2.3 -0.1 0.8 -0.2 1.8 -0.4 2.3 -0.4z m-10.8 -140.4 c0.4 -1 0.1 -1.3 -0.9 -0.9 -0.7 0.3 -1.4 1.4 -1.4 2.4 0 1.4 -0.7 1.9 -2.7 1.9 l-2.8 0 2.5 1.3 c1.6 0.8 2.7 2.3 2.9 4.2 0.4 2.4 0.6 2 1.2 -2.2 0.4 -2.9 0.9 -5.9 1.2 -6.7z m-9.3 1.9 c0 -0.8 -0.7 -1.5 -1.5 -1.5 -1.6 0 -2 1.2 -0.8 2.3 1.1 1.2 2.3 0.8 2.3 -0.8z m103.8 -15.7 c-0.3 -2.1 -1.2 -2.4 -9.3 -3.4 -4.9 -0.6 -9.2 -1 -9.4 -0.8 -0.1 0.1 1.7 0.8 4 1.4 2.4 0.6 5.3 1.5 6.4 1.9 1.6 0.7 5 1.9 8.3 3 0.2 0.1 0.2 -0.9 0 -2.1z m-102.8 -3.9 c0 -0.6 0.6 -1.7 1.4 -2.5 1.9 -1.8 7.6 -1.9 7.6 0 0 1.6 5.1 1 6.2 -0.8 0.4 -0.6 0.8 -3.7 0.8 -6.8 l0 -5.7 -5.7 -1.1 c-3.2 -0.6 -7.3 -1.5 -9 -2 l-3.3 -0.8 0 5.1 c0 2.9 -0.3 7.6 -0.6 10.5 -0.6 4.4 -0.4 5.2 1 5.2 0.9 0 1.6 -0.5 1.6 -1.1z m124.2 -5.2 c0.9 -0.6 0.5 -0.7 -1.2 -0.3 -1.4 0.3 -3.1 0.6 -3.8 0.6 -0.9 0 -0.8 0.8 0.4 3.3 l1.7 3.2 0.8 -2.9 c0.5 -1.6 1.4 -3.3 2.1 -3.9z m-52.4 -9.4 c3.6 0.4 7 0.3 7.6 -0.2 1.3 -1 10.7 -3.1 14 -3.1 1.3 0 3.3 0.9 4.6 2 1.3 1.1 2.5 2 2.8 2 0.7 0 -0.8 -21.8 -2.3 -32 -0.8 -5.2 -2.1 -12.2 -3 -15.5 -0.9 -3.3 -3 -11.2 -4.6 -17.5 -1.7 -6.3 -4.3 -15.8 -5.9 -21 -1.6 -5.2 -3.1 -10.7 -3.5 -12.2 -0.3 -1.8 -1.2 -2.8 -2.3 -2.8 -1.3 0 -2.1 -1.4 -3 -5.2 -0.6 -2.8 -1.6 -5.4 -2 -5.7 -0.5 -0.3 -3.6 -8.9 -6.9 -19.1 -3.4 -10.2 -6.8 -19.8 -7.7 -21.5 -0.9 -1.6 -1.6 -4.2 -1.6 -5.7 0 -3.5 -2 -4.5 -7.8 -3.8 -4 0.4 -4.7 0.8 -5 2.9 -0.2 1.3 0.1 3.3 0.6 4.5 3.2 6.9 4.2 9.7 4.2 12.5 0 2.6 -0.4 3.1 -2.5 3.1 -2.4 0 -2.5 0.1 -1.8 6 0.4 4.2 0.2 6 -0.6 6 -0.6 0 -1.1 1.2 -1.1 2.8 0 1.5 -0.5 4.4 -1 6.4 -1.2 4 0.2 11.8 2 11.8 0.6 0 1 1.6 1 3.5 0 2 1.5 6.3 3.5 10.2 3.2 6.3 3.8 6.8 7.3 7.3 2.7 0.4 3.8 1 4 2.5 0.2 1.1 1.3 4 2.4 6.4 1.5 3.3 1.9 5.9 1.6 9.8 -0.4 4.6 -0.2 5.3 1.4 5.3 1.4 0 1.8 0.8 1.8 3.5 0 3.3 -0.2 3.5 -3.4 3.5 -2.8 0 -3.5 0.4 -3.8 2.3 -0.2 1.8 -1 2.3 -4.5 2.5 -2.4 0.2 -4.3 0.7 -4.3 1.3 0 0.5 0.7 0.9 1.5 0.9 1 0 1.5 1.1 1.5 3.5 0 3.1 -0.3 3.5 -2.5 3.5 -2.7 0 -3.4 1.5 -1 2.4 0.8 0.3 1.5 1.7 1.5 3 0 1.6 0.8 3 2.3 3.7 1.2 0.7 2.4 1.5 2.7 1.8 0.3 0.4 1.8 1.3 3.4 2.1 5.6 2.9 6.6 3.5 6.6 4.2 0 0.5 0.7 0.8 1.5 0.8 0.8 0 1.5 0.6 1.5 1.4 0 0.8 1.4 1.7 3 2.1 2.6 0.6 3 1.1 3 4.1 0 3.2 -0.2 3.4 -3.4 3.4 -3.6 0 -9.5 -2.1 -11.8 -4.2 -0.7 -0.7 -3.5 -2.4 -6.2 -3.8 -2.7 -1.4 -6 -3.1 -7.3 -3.8 -3 -1.7 -5.3 0.3 -5.3 4.7 0 2.8 -0.3 3.1 -3.3 3.1 -1.8 0 -3.8 -0.5 -4.5 -1.2 -1.5 -1.5 -1.6 -8.5 -0.1 -9 0.7 -0.2 0.8 -2 0.4 -5.1 l-0.7 -4.7 -4.3 0 c-7 0 -7.5 0.5 -7.5 7.1 0 5 0.3 5.9 1.8 5.9 1 0 3.1 1.4 4.8 3.1 3.8 4.1 9.3 7.8 23.3 16 11.5 6.6 11.6 6.6 11.9 4.1 0.4 -2.4 0.5 -2.5 7 -1.9z m-29.1 -54.7 c-0.7 -1.3 -1.5 -2.2 -1.9 -2 -0.8 0.5 1.3 4.4 2.3 4.4 0.4 0 0.2 -1.1 -0.4 -2.4z m55.8 -32.8 c0.5 -7 1.1 -9.8 2 -9.8 1.3 0 2.5 -3 2.5 -6.7 0 -2 -0.5 -2.3 -4 -2.3 -2.7 0 -4 -0.4 -4 -1.4 0 -0.9 -0.8 -1.2 -2.5 -0.8 -2.3 0.4 -2.5 0.9 -2.5 5.4 0 6.3 1.3 8.8 4.6 8.8 2.6 0 2.6 0.1 2.4 7.3 -0.5 15.3 0.5 14.9 1.5 -0.5z m1.6 -35.8 c2.9 0 2.9 -0.1 2.9 -5.5 0 -3.1 0.6 -6.6 1.4 -7.8 1.4 -2.3 3.4 -19.3 3.8 -32.7 0.3 -9.5 -0.2 -19.9 -0.9 -18.2 -0.3 0.8 -2.9 1.2 -7.9 1.2 -5.9 0 -7.4 -0.3 -7.4 -1.5 0 -1.8 -0.5 -1.9 -2.9 -0.3 -1.6 1 -1.8 2 -1.4 6.5 l0.6 5.3 -3.4 0 c-5.4 0 -6 0.8 -4.5 6.5 1.1 4.6 1.5 5 4.4 5.3 2.9 0.3 3.2 0.6 3.2 3.8 0 3 -0.3 3.4 -2.6 3.4 -1.8 0 -2.5 0.4 -2.1 1.4 0.3 0.8 1.1 5 1.7 9.5 1 6.6 1.6 8.3 3.6 9.6 1.8 1.1 2.4 2.5 2.4 5 0 1.8 -0.4 3.7 -1 4 -0.5 0.3 -1 1.5 -1 2.6 0 1.5 0.7 1.9 3.5 1.9 2.9 0 3.5 0.4 3.6 2.3 l0.2 2.2 0.4 -2.2 c0.3 -1.8 1.1 -2.3 3.4 -2.3z m-64.4 -78.2 c-0.8 -9.4 -3.2 -17.5 -7.3 -23.9 -4.5 -7.2 -5.1 -7.5 -8.7 -5.4 -2.7 1.6 -6.2 3.5 -7.5 4.2 -0.6 0.2 3.7 4.3 4.6 4.3 0.7 0 2 1.8 10.2 14.8 2.8 4.5 5.6 8.2 6.1 8.2 0.5 0 0.9 1.1 0.9 2.3 0 2.2 0.7 3.7 1.8 3.7 0.3 0 0.2 -3.7 -0.1 -8.2z m82.6 -20 c-0.8 -4.4 -0.9 -4.4 -2.6 -0.9 -1.5 3.1 -1.4 3.4 2.5 4 0.4 0 0.5 -1.4 0.1 -3.1z m17.2 -22.3 c0.8 -9 0 -12.7 -1.1 -5.6 -0.6 3.5 -1 4.1 -3 4.1 -1.3 0 -2.4 0.5 -2.4 1 0 0.6 -1 1 -2.3 1 -1.3 0 -2.9 0.6 -3.6 1.3 -1 1 -0.1 1.7 4.6 3.9 3.2 1.4 6.1 2.7 6.5 2.7 0.3 0.1 0.9 -3.7 1.3 -8.4z m-26.5 4.6 c0 -1.7 0.5 -3.3 1 -3.6 1.3 -0.8 0.3 -2.5 -1.6 -2.5 -0.8 0 -1.4 0.7 -1.4 1.6 0 1.3 -0.8 1.5 -4 1.2 -2.2 -0.2 -4 0 -4 0.4 0 0.5 0.6 0.8 1.3 0.8 0.7 0 2.4 1.1 3.7 2.4 3.4 3.4 5 3.2 5 -0.3z m-68.3 -38.1 l0 -7.5 -0.8 9 c-0.4 5 -0.7 11.5 -0.6 14.5 0 5.4 0 5.4 0.7 -1.5 0.4 -3.8 0.7 -10.4 0.7 -14.5z m-30.2 15.2 c-0.3 -0.4 -1 0 -1.5 0.8 -0.6 0.9 -0.5 1.7 0.3 2.2 1.3 0.8 2.4 -1.9 1.2 -3z m50.5 -37.7 c0 -3.4 -2.9 -6.5 -6.1 -6.5 -1.4 0 -4.7 -0.3 -7.3 -0.6 l-4.7 -0.7 0.6 -12.6 c0.3 -6.9 1 -17.1 1.5 -22.6 0.5 -5.5 1.2 -13.9 1.6 -18.7 0.4 -6.6 0.9 -8.8 2 -8.8 0.8 0 1.4 -0.7 1.4 -1.5 0 -0.8 -0.7 -1.5 -1.5 -1.5 -0.9 0 -1.6 -1 -1.6 -2.2 -0.2 -3.9 -1.6 3.1 -1.8 8.6 0 2.7 -0.5 6.5 -1.1 8.5 -0.5 2 -1.2 15.6 -1.6 30.3 -0.6 26.2 -0.7 26.7 -2.8 27.1 -1.1 0.2 0.6 0.7 3.9 1.1 3.3 0.5 7.8 1.2 10 1.6 6.9 1.3 7.5 1.2 7.5 -1.5z m-27.5 -2.5 c-1.1 -0.5 -3.3 -0.8 -5 -0.8 -2.9 0.1 -2.9 0.1 0.5 0.8 4.9 1 6.9 1 4.5 0z m48.5 -33.7 c0 -1.4 0.6 -2.3 1.5 -2.3 1.2 0 1.5 -1.4 1.5 -7 0 -6.8 0.1 -7 2.5 -7 1.4 0 2.5 -0.4 2.5 -1 0 -0.5 -1.3 -1 -3 -1 -2.9 0 -3 -0.1 -3 -4.7 0 -8.1 -1 -4.1 -2.5 10.3 -1.8 16.8 -1.8 18.5 -0.5 16.4 0.5 -0.8 1 -2.5 1 -3.7z m27 -10.8 c0 -1.9 -0.4 -3.5 -0.9 -3.5 -0.5 0 -1.1 -1 -1.4 -2.2 -0.4 -1.2 -0.9 -1.9 -1.2 -1.6 -0.4 0.3 -0.2 1.5 0.4 2.6 0.6 1.2 1.1 3.4 1.1 5.1 0 1.7 0.5 3.1 1 3.1 0.6 0 1 -1.6 1 -3.5z m-14 -1.5 c0 -0.5 -0.7 -1 -1.5 -1 -0.8 0 -1.5 0.5 -1.5 1 0 0.6 0.7 1 1.5 1 0.8 0 1.5 -0.4 1.5 -1z m1 -10 c0 -0.5 -0.6 -1 -1.4 -1 -0.8 0 -1.7 -0.6 -1.9 -1.2 -0.3 -0.7 -0.6 -0.3 -0.6 1 -0.1 1.6 0.5 2.2 1.9 2.2 1.1 0 2 -0.4 2 -1z m-37.5 -3.9 c0.7 -1.3 -1.4 -5.9 -3.1 -6.5 -1 -0.4 -1.4 0.4 -1.4 2.8 0 3 0.9 4.3 3.2 4.5 0.4 0.1 0.9 -0.3 1.3 -0.8z m-24.7 -12.8 c-0.3 -1.9 -4.8 -3.2 -4.8 -1.4 0 0.6 0.7 1.1 1.5 1.1 0.8 0 1.5 0.5 1.5 1 0 0.6 0.5 1 1.1 1 0.6 0 0.9 -0.8 0.7 -1.7z"/>
  <path d="M118 416 c0 -3.9 0.1 -4 3.5 -4 3.4 0 3.5 0.1 3.5 4 0 3.9 -0.1 4 -3.5 4 -3.4 0 -3.5 -0.1 -3.5 -4z"/>
  <path d="M1 760 c0 -3.9 0.1 -4 3.5 -4 3.4 0 3.5 0.1 3.5 4 0 3.9 -0.1 4 -3.5 4 -3.4 0 -3.5 -0.1 -3.5 -4z"/>
  <path d="M11.4 628.9 c0.3 -3.4 0.6 -10.2 0.6 -15 l0 -8.9 4 0 4 0 0 5.8 c0 3.1 -0.5 9.9 -1.2 15 l-1.2 9.2 -3.5 0 -3.4 0 0.7 -6.1z"/>
  <path d="M0 569 c0 -3.3 0.3 -4 2 -4 1.7 0 2 0.7 2 4 0 3.3 -0.3 4 -2 4 -1.7 0 -2 -0.7 -2 -4z"/>
  <path d="M3 506.5 c0 -1.6 -0.6 -2.5 -1.5 -2.5 -1.2 0 -1.5 -1.7 -1.5 -9.5 l0 -9.5 3.5 0 3.5 0 0 7 c0 5.6 0.3 7 1.5 7 1.1 0 1.5 1.2 1.5 5 l0 5 -3.5 0 c-3.1 0 -3.5 -0.3 -3.5 -2.5z"/>
  <path d="M1 466.5 l0 -7.5 3.5 0 3.5 0 0 7.5 0 7.5 -3.5 0 -3.5 0 0 -7.5z"/>
  <path d="M2 435 l0 -6 3.5 0 3.5 0 0 6 0 6 -3.5 0 -3.5 0 0 -6z"/>
  <path d="M3 415 l0 -6 3.5 0 3.5 0 0 6 0 6 -3.5 0 -3.5 0 0 -6z"/>
  <path d="M127 200.5 c0 -3.3 0.2 -3.5 3.5 -3.5 3.3 0 3.5 0.2 3.5 3.5 0 3.3 -0.2 3.5 -3.5 3.5 -3.3 0 -3.5 -0.2 -3.5 -3.5z"/>
  <path d="M195 128.5 l0 -8.5 3.1 0 3.2 0 -0.7 6.1 c-0.3 3.4 -0.6 7.3 -0.6 8.5 0 1.9 -0.5 2.4 -2.5 2.4 -2.5 0 -2.5 -0.1 -2.5 -8.5z"/>
  <path d="M177.8 106.3 c-0.7 -1.6 -28.3 -11.5 -56.8 -20.3 -9.1 -2.9 -26.2 -8.3 -38 -12.1 -11.8 -3.8 -27.6 -8.6 -35 -10.7 -13.1 -3.6 -13.5 -3.8 -13.8 -6.6 -0.2 -1.6 -0.1 -4 0.3 -5.4 0.6 -2.4 0.8 -2.4 6.9 -2 3.4 0.3 7.8 1.2 9.7 2 4.4 1.9 13.8 5.1 42.4 14.4 12.7 4.1 25.3 8.3 28 9.4 4.9 1.8 39.3 13.2 57 18.8 8.3 2.6 9 3.1 9.3 5.6 0.2 1.6 0.1 3.9 -0.2 5.2 -0.6 2.1 -1.2 2.4 -5 2.4 -2.5 0 -4.6 -0.3 -4.8 -0.7z"/>
  <path d="M196 100.1 c0 -2.8 -0.4 -5.1 -0.9 -5.1 -0.5 0 -1.2 -0.9 -1.6 -1.9 -0.3 -1 -1.6 -2.1 -2.8 -2.4 -1.2 -0.3 -11.9 -4.1 -23.7 -8.5 -11.8 -4.3 -26.9 -9.7 -33.5 -12 -6.6 -2.2 -22.3 -7.7 -35 -12.2 -33.2 -11.7 -68.4 -24 -69 -24 -0.1 0 -0.6 2.9 -1 6.5 l-0.7 6.5 -3.4 0 c-3.3 0 -3.4 -0.1 -3.4 -4.1 0 -2.2 -0.5 -5 -1.2 -6.2 -0.6 -1.2 -1.5 -3.5 -1.9 -5.2 -0.7 -2.8 -0.8 -2.9 -1.4 -0.8 -0.4 1.3 -1.3 2.3 -2 2.3 -1.4 0 -2.5 4.3 -2.5 9.6 0 3.2 -0.2 3.4 -3.5 3.4 -1.9 0 -3.5 -0.4 -3.5 -1 0 -0.5 -0.8 -1 -1.9 -1 -2.6 0 -3.1 -2.6 -3.1 -16.2 0 -11.1 0.1 -11.8 2 -11.8 1.3 0 2 -0.7 2 -2 0 -1.3 -0.7 -2 -2 -2 -1.8 0 -2 -0.7 -2 -6 l0 -6 4.5 0 c5.4 0 8.5 2.3 8.5 6.3 0 1.5 0.8 4 1.8 5.5 l1.7 2.6 0.5 -3.9 c0.4 -3.5 0.9 -4 3.3 -4.3 1.6 -0.2 6.7 1.2 11.5 3.1 14.2 5.7 21.1 8.4 33.7 13 6.6 2.5 22.4 8.4 35 13.2 12.7 4.8 29.5 11.2 37.5 14.2 8 3 22.6 8.4 32.5 11.9 9.9 3.5 18.9 6.8 20 7.4 1.1 0.5 3 1.2 4.3 1.5 1.8 0.5 2.2 1.3 2.2 4.6 0 2.1 0.5 3.9 1 3.9 0.6 0 1 -1.3 1 -3 0 -3.3 2.1 -4 4.6 -1.6 1.7 1.8 1.9 8.3 0.2 8.9 -1 0.3 -1 0.7 0 1.9 1.2 1.5 1 3.1 -0.9 7.3 -0.5 1.1 -1 4.3 -1.1 7 -0.3 4.6 -0.5 5 -3 5.3 -2.7 0.3 -2.8 0.2 -2.8 -4.7z"/>
  <path d="M196.6 70.2 c-0.2 -0.4 -0.2 -4.8 0 -9.7 0.3 -5 0.7 -14.1 1 -20.2 0.5 -10.3 0.7 -11.3 2.5 -11.3 1.6 0 1.9 0.7 1.9 5.5 0 3.7 0.4 5.7 1.3 6.1 0.9 0.3 1.3 1.8 1.1 4.2 -0.2 2 -0.6 8.8 -1 15 l-0.7 11.2 -2.8 0 c-1.5 0 -3 -0.3 -3.3 -0.8z"/>
  <path d="M172.8 61.2 c-3.3 -1.4 -3.8 -2.1 -3.8 -4.9 0 -3.1 0.2 -3.3 3.5 -3.3 1.9 0 3.5 -0.4 3.5 -1 0 -0.5 -0.9 -1 -2 -1 -1 0 -3.1 -0.5 -4.5 -1.2 -2 -0.9 -2.5 -1.8 -2.5 -4.6 l0 -3.5 5 0.5 5 0.5 0 -3.8 c0 -3.8 0.1 -3.9 3.7 -3.9 l3.6 0 -0.6 10.5 c-0.4 6.7 -0.3 10.5 0.3 10.5 0.6 0 1 1.6 1 3.5 0 3.5 0 3.5 -4.2 3.4 -2.4 0 -6 -0.8 -8 -1.7z"/>
  <path d="M142 48.8 c-1.4 -0.6 -3.9 -1.7 -5.7 -2.4 -1.7 -0.8 -3.6 -1.4 -4.2 -1.4 -0.6 0 -1.1 -0.4 -1.1 -1 0 -0.5 -1.1 -1 -2.5 -1 -1.4 0 -2.5 -0.4 -2.5 -1 0 -0.5 -1.2 -1 -2.6 -1 -1.4 0 -3.8 -0.6 -5.2 -1.4 -1.5 -0.8 -3.9 -1.7 -5.4 -2 -1.5 -0.3 -3.3 -1.3 -4.2 -2.1 -0.8 -0.8 -2.1 -1.5 -2.8 -1.5 -0.8 0 -3.8 -0.9 -6.8 -2 -3 -1.2 -6.3 -2.3 -7.2 -2.7 -1 -0.3 -1.8 -0.9 -1.8 -1.3 0 -0.4 -1.7 -1.1 -3.7 -1.5 -6.3 -1.1 -14.3 -4.6 -14.3 -6.1 0 -0.9 -1.1 -1.4 -3 -1.4 -1.7 0 -10.8 -2.9 -20.3 -6.5 -22.5 -8.6 -22.7 -8.7 -22.7 -10.7 0 -1.6 1 -1.8 7.3 -1.8 7.4 0 7.7 0.1 30.5 9 4.5 1.7 8.2 3.8 8.2 4.5 0 0.8 1.8 1.4 4.9 1.7 2.6 0.3 6.8 1.5 9.3 2.6 2.4 1.2 5 2.2 5.6 2.2 0.7 0 1.2 0.5 1.2 1 0 0.6 0.7 1 1.6 1 0.9 0 3 0.6 4.7 1.4 1.8 0.8 5.1 2 7.5 2.6 2.3 0.6 4.2 1.5 4.2 2 0 0.6 0.9 1 2 1 1.7 0 6.6 1.8 11.2 4.1 1 0.5 2.5 0.9 3.3 0.9 0.8 0 1.5 0.5 1.5 1 0 0.6 0.9 1 2 1 1.1 0 2 0.4 2 0.9 0 0.5 1.9 1.1 4.3 1.5 2.3 0.4 5.1 1.3 6.2 2 1.1 0.7 3.2 1.6 4.8 2 2.3 0.5 2.7 1.2 2.7 4.1 0 3.3 -0.2 3.5 -3.2 3.4 -1.8 0 -4.4 -0.5 -5.8 -1.1z"/>
  <path d="M135.8 35.8 c-3 -2.7 -4.8 -7.6 -4.8 -12.9 0 -3.8 0.1 -3.9 3.4 -3.9 2.9 0 3.5 0.4 4 2.8 2.2 9 5.6 10.9 7.2 4 1.2 -5 0.1 -11.4 -2.3 -14 -2.4 -2.6 -3.1 -2.3 -4.4 2.2 -1.1 3.6 -1.5 4 -4.6 4 -3.3 0 -3.3 -0.1 -3.4 -4.7 -0.1 -3 -0.4 -3.7 -0.6 -2 -0.4 2.2 -0.9 2.7 -3.2 2.7 -2.4 0 -3 0.5 -3.5 3.1 -0.3 1.7 -0.6 4.9 -0.6 7 0 3.8 -0.1 3.9 -3.5 3.9 -3.4 0 -3.5 -0.1 -3.5 -3.9 0 -2.1 0.3 -5.9 0.6 -8.5 0.5 -3.6 1.1 -4.6 2.5 -4.6 1.1 0 1.9 -0.7 1.9 -1.5 0 -0.8 -0.7 -1.5 -1.5 -1.5 -0.8 0 -1.5 0.5 -1.5 1 0 1.1 -9.8 1.4 -12.4 0.4 -1 -0.4 -1.6 -1.8 -1.6 -4 l0 -3.4 6.5 0.5 c5.4 0.5 6.5 0.4 6.5 -0.9 0 -1.2 1 -1.6 3.9 -1.6 3.7 0 4 0.2 4.4 3.3 l0.4 3.2 0.1 -3.2 c0.2 -3.2 0.3 -3.3 4.6 -3.3 2.6 0 4.6 0.5 4.9 1.3 0.4 0.9 0.6 0.9 0.6 0 0.1 -0.9 9.6 -1.2 40 -1.2 l39.9 -0.1 -2.5 5.3 c-1.4 2.8 -4.3 7.5 -6.4 10.3 -2.1 2.8 -3.9 5.8 -3.9 6.7 0 2.6 -1.1 4.7 -2.6 4.7 -0.8 0 -1.4 -0.6 -1.4 -1.2 0 -0.7 -2.8 -2.5 -6.3 -4 -7 -3 -7.5 -2.7 -7.6 4.5 -0.1 3.6 -0.2 3.7 -3.6 3.7 -2.9 0 -3.5 0.4 -3.5 2.1 0 2 -0.4 2.1 -5.2 1.6 -2.8 -0.4 -5.5 -1.2 -6 -1.9 -0.4 -0.7 -0.8 -4.5 -0.8 -8.4 0 -6.4 -0.2 -7.2 -2.1 -7.7 -1.9 -0.5 -2 -0.3 -1.3 6.4 l0.7 6.9 -3.6 0 c-2.7 0 -3.7 -0.5 -4.2 -2 -0.9 -2.7 -2.5 -2.5 -2.5 0.3 0 3.7 -1.2 6.7 -2.5 6.7 -0.7 0 -1.5 0.9 -1.8 2 -0.8 3 -9.4 2.8 -12.9 -0.2z m42.2 -9.7 c0 -0.5 -1.1 -1.1 -2.5 -1.3 -2.4 -0.5 -3.2 0.2 -1.8 1.5 0.9 1 4.3 0.8 4.3 -0.2z"/>
  <path d="M100 20.5 c0 -1 -1 -1.5 -2.7 -1.5 -1.5 0 -4.2 -0.5 -6 -1.2 -2.8 -1 -3.3 -1.7 -3.3 -4.5 0 -1.8 -0.4 -3.3 -1 -3.3 -0.5 0 -1 0.7 -1 1.5 0 1.9 -6.5 2 -10.1 0.1 -1.4 -0.7 -3.7 -1.6 -5.2 -2 -1.5 -0.3 -2.7 -1.1 -2.7 -1.6 0 -0.6 -1.1 -1 -2.3 -1 -3.7 0 -8.7 -2.9 -8.7 -5.1 0 -1.7 0.7 -1.9 6 -1.9 3.3 0 6 0.4 6 1 0 0.6 1.8 1 4 1 2.2 0 4 0.4 4 0.8 0 0.4 1.8 1.3 3.9 1.8 3.5 1 4 0.9 4.4 -0.8 0.4 -1.3 1.5 -1.8 4.2 -1.8 l3.7 0 -0.4 3.9 c-0.3 3.6 -0.1 4 2.3 4.5 1.5 0.3 3.4 1.2 4.3 2.1 0.9 0.9 1.6 1.2 1.6 0.6 0 -0.6 1.6 -1.1 3.5 -1.1 l3.5 0 0 5 0 5 -4 0 c-2.9 0 -4 -0.4 -4 -1.5z"/>
 </g>
 <g fill="#3c537a">
  <path d="M0.1 756 c0 -10.2 0.4 -16.8 1 -16.5 1.2 0.8 1.1 -0.2 -0.2 -2.6 -1 -1.9 -0.9 -1.9 1 -0.9 1.5 0.8 2.1 0.8 2.1 0 0 -0.6 0.5 -0.8 1.1 -0.4 0.7 0.4 0.7 1 0.1 1.6 -0.6 0.6 -0.8 1.6 -0.6 2.3 0.4 1 1.3 1 4.2 0 3.5 -1.2 5.8 -4.5 3.1 -4.5 -1.1 0 -1.1 -0.2 0 -1.2 1 -1.1 1.5 -0.9 2.7 0.6 1.4 2 1.4 2 1.4 0 0.1 -1.9 0.1 -1.9 1.5 0 1.9 2.4 3 1.5 1.6 -1.3 -1.5 -2.8 0.3 -3.7 3.4 -1.7 1.4 0.9 2.5 1.4 2.5 1 0 -0.4 0.7 -0.1 1.5 0.6 1.2 1 1.5 1 1.5 -0.1 0 -1.4 9.8 -7.9 11.9 -7.9 0.6 0 1.1 -0.4 1.1 -0.9 0 -1.3 6.3 -0.6 6.8 0.8 0.2 0.6 -0.2 1.8 -0.8 2.6 -1 1.2 -0.9 1.5 0.9 1.5 1.2 0 2.1 0.6 2.1 1.5 0 0.8 0.9 1.5 2 1.5 2.7 0 2.5 -1.6 -0.2 -2.4 -2.2 -0.5 -2.2 -0.6 -0.6 -2.3 1.6 -1.6 1.8 -1.6 3.7 0.1 1.5 1.3 2 1.4 2.5 0.4 0.3 -0.7 0.4 0.3 0.1 2.2 -0.4 2.6 -0.3 3 0.4 1.5 0.8 -1.9 0.9 -1.8 2 0.8 1.3 3.3 2.5 3.6 1.8 0.4 -0.4 -1.2 -0.2 -2.9 0.4 -3.7 0.8 -1.3 1.1 -1.3 2.2 0.1 1.4 1.9 6.3 1.9 5.9 0.1 -0.1 -0.7 0.4 -1.3 1 -1.3 0.7 -0.1 2.3 -0.3 3.6 -0.4 1.2 -0.1 2 0 1.7 0.3 -0.2 0.3 0 1.1 0.6 1.8 0.8 1 1.5 1.1 3 0.1 2.5 -1.5 2.4 -2.7 -0.1 -2.7 -1.1 0 -2 -0.4 -2 -1 0 -0.5 0.7 -0.7 1.6 -0.3 0.9 0.3 2 0 2.4 -0.7 0.4 -0.7 1.3 -0.9 1.9 -0.6 0.6 0.4 0.9 1.2 0.6 1.7 -0.4 0.5 0 0.9 0.8 0.9 0.9 0 1.2 -0.9 0.9 -3 -0.3 -1.8 0 -3 0.7 -3 0.6 0 1.1 1 1.1 2.3 0 1.3 0.4 2.7 1 3.3 0.5 0.5 1.1 2.5 1.3 4.4 0.2 3.1 0.6 3.5 3.4 3.8 2.4 0.2 3.7 1.2 5.3 3.8 1.2 1.9 2.6 3.4 3.1 3.4 1 0 -1 -3.5 -5.2 -9 -4.9 -6.5 -6.2 -9.9 -5.7 -15.8 0.5 -5.3 0.4 -5.3 -1.1 -2.8 -0.9 1.4 -2.3 2.8 -3.1 3 -0.8 0.3 -2.6 0.8 -3.9 1.1 -1.7 0.5 -2.1 0.4 -1.6 -0.5 0.6 -0.9 0 -1 -2.2 -0.6 -1.6 0.4 -4 0.3 -5.4 -0.3 -2.2 -0.8 -2.3 -0.9 -0.5 -1.7 1.3 -0.5 2.1 -0.3 2.4 0.4 0.6 1.8 2 1.5 4.5 -0.9 1.9 -1.7 2.3 -1.8 2.5 -0.5 0.4 1.9 1.3 2 4.7 0.4 1.4 -0.6 2.4 -1.8 2.3 -2.7 -0.1 -0.9 0.4 -2.6 1.3 -3.8 l1.6 -2.3 2.4 2.7 c1.3 1.4 1.8 2.3 1.2 1.9 -2.4 -1.3 -1.3 1.8 4.6 13.9 3.2 6.6 6.6 14.3 7.5 17 1.9 5.9 3.7 8.2 9.1 12 l4 2.9 -2.9 -3.2 c-1.7 -1.8 -3.5 -3.2 -4 -3.2 -0.6 0 -1.8 -1.9 -2.7 -4.3 -0.9 -2.3 -2.7 -6.7 -3.9 -9.8 -1.1 -3.1 -2.2 -7 -2.2 -8.7 -0.1 -3.9 2.7 -8.3 4.7 -7.6 0.9 0.4 2.9 0.1 4.6 -0.6 2.2 -1 3.3 -1 3.8 -0.2 0.4 0.6 1.3 -0.2 2.1 -2.1 l1.5 -3.2 0.6 4 c0.4 3 0.7 3.6 1.3 2.3 0.5 -1 1.7 -1.8 2.7 -1.8 1.5 0 1.9 -0.8 2 -3.2 0.1 -1.8 0.3 -2.5 0.6 -1.5 0.2 0.9 1.3 1.7 2.3 1.7 1 0 2.2 0.5 2.5 1 1.2 2 2.6 1 1.5 -1 -0.6 -1.1 -1.7 -2 -2.4 -2 -0.8 0 -1.7 -0.7 -2 -1.6 -0.5 -1.2 -0.1 -1.4 1.5 -0.9 1.8 0.6 2 0.4 1.4 -1.4 -0.3 -1.2 -0.2 -2.1 0.3 -2.1 0.6 0 1.3 1.9 1.7 4.3 0.4 2.3 1 4.4 1.4 4.7 2 1.4 5.4 7.5 5.6 9.8 0.4 4.8 1.7 7.6 5.6 11.9 2.1 2.3 4.1 5.4 4.5 7 0.4 1.5 1.3 3.4 2.1 4.1 1.6 1.6 1.9 12.7 0.2 11.7 -0.6 -0.4 -1.6 0.1 -2.3 1 -0.9 1.3 -2.2 1.6 -4.8 1.2 -2 -0.2 -4 -0.1 -4.5 0.4 -1 1 -15.4 -3.3 -19 -5.6 -1.4 -0.9 -2.7 -1.4 -3 -1.1 -0.7 0.7 13.5 7.6 15.7 7.6 0.8 0 2.1 0.4 2.9 0.9 1.1 0.7 0.9 1.2 -1 2.5 -2.3 1.4 -3.1 1.4 -10.2 -0.4 -8.1 -1.9 -14.2 -5 -19 -9.4 -3.9 -3.6 -4.4 -3.3 -1.1 0.7 1.5 1.7 4.6 4.1 7 5.3 2.4 1.2 4.1 2.4 3.9 2.8 -0.3 0.3 -0.2 0.4 0.1 0.1 0.6 -0.4 8.1 3.2 9.4 4.5 0.3 0.3 1.6 0.7 3 0.8 5.9 0.9 2.4 1.2 -12.3 1.2 -13.9 0 -15.6 -0.2 -15.9 -1.7 -0.3 -1.4 -1.2 -1.7 -4.6 -1.5 -4.2 0.4 -4.2 0.3 -4.2 -3.1 0 -2 0.6 -3.8 1.3 -4 0.6 -0.3 -0.3 -0.6 -2 -0.6 -1.8 -0.1 -3.3 0.4 -3.3 0.9 0 0.6 -1.3 1 -3 1 -2 0 -3 0.5 -3 1.5 0 0.8 -0.4 1.5 -1 1.5 -0.5 0 -1 1.4 -1 3 0 2.9 -0.2 3 -4.5 3 -3.8 0 -4.5 -0.3 -4.5 -2 0 -1.1 -0.4 -2 -1 -2 -0.5 0 -1 -1.1 -1 -2.5 0 -1.4 -0.4 -2.5 -1 -2.5 -0.5 0 -1 0.7 -1 1.5 0 0.8 -0.7 1.5 -1.5 1.5 -0.8 0 -1.5 0.5 -1.5 1 0 1.5 -6.7 1.2 -7.3 -0.2 -0.4 -1 -0.6 -1 -0.6 0 -0.1 0.7 -1.7 1.2 -4.5 1.2 -3.4 0 -4.6 -0.4 -4.9 -1.7 -0.3 -1 -0.5 -0.1 -0.6 2 l-0.1 3.7 -7.4 0 c-5 0 -7.6 -0.4 -7.9 -1.2 -0.4 -1 -0.6 -1 -0.6 0 -0.1 0.8 -2 1.2 -6 1.2 -4.8 0 -6 -0.3 -6.4 -1.7 -0.4 -1.7 -0.5 -1.7 -0.6 0 -0.1 1.5 -1.2 1.7 -7.6 1.7 -6 0 -7.5 -0.3 -7.5 -1.5 0 -0.8 -0.4 -1.5 -1 -1.5 -0.5 0 -1 0.7 -1 1.5 0 0.8 -0.9 1.5 -2 1.5 -2 0 -2 -0.6 -1.9 -17z m104.4 -11 c-0.4 -1.2 -0.9 -1.9 -1.2 -1.7 -0.3 0.3 -0.2 1.5 0.2 2.7 0.4 1.2 0.9 1.9 1.2 1.7 0.3 -0.3 0.2 -1.5 -0.2 -2.7z m-63.4 -7.3 c-0.1 -1.2 -1.5 -0.9 -1.9 0.4 -0.3 0.6 0.1 1 0.8 0.8 0.6 -0.3 1.1 -0.8 1.1 -1.2z m48.3 -5.3 c0.3 -0.7 -0.8 -1.4 -2.5 -1.6 -2.2 -0.3 -2.9 -0.1 -2.9 1.1 0 1.9 4.7 2.2 5.4 0.5z m53.4 -0.4 c1 0 1.3 -0.3 0.6 -1 -1.1 -1.1 -5.4 -0.2 -5.4 1.2 0 0.6 0.7 0.7 1.6 0.4 0.9 -0.3 2.3 -0.6 3.2 -0.6z m-100.5 -2.9 c-0.3 -1.3 0.1 -2.1 1.4 -2.4 1.6 -0.4 1.6 -0.5 -0.2 -0.6 -3 -0.1 -4.7 1.8 -3.2 3.5 1.7 1.9 2.6 1.7 2 -0.5z m91.6 1 c0.9 -0.6 1 -1 0.2 -1.6 -1.5 -0.8 -4.1 0.1 -4.1 1.5 0 1.2 2 1.3 3.9 0.1z m4.1 -11.8 c0 -0.5 -1.3 -0.8 -2.9 -0.8 -1.6 0 -2.7 0.3 -2.4 0.8 0.2 0.4 1.5 0.7 2.9 0.7 1.3 0 2.4 -0.3 2.4 -0.7z"/>
  <path d="M150.8 771 c4 -2.5 4.2 -2.5 4.2 0 0 1.6 -0.7 2 -3.7 2 l-3.8 0 3.3 -2z"/>
  <path d="M153 766.1 c0 -1.1 0.5 -2.3 1 -2.6 0.6 -0.4 1 0.5 1 1.9 0 1.4 -0.4 2.6 -1 2.6 -0.5 0 -1 -0.9 -1 -1.9z"/>
  <path d="M0 731.8 c0 -1.2 0.3 -1.8 0.7 -1.4 1.1 1 1.2 3.6 0.2 3.6 -0.5 0 -0.9 -1 -0.9 -2.2z"/>
  <path d="M5.4 732.9 c-0.3 -0.6 -0.1 -1.6 0.5 -2.2 0.8 -0.8 1.1 -0.5 1.1 1.1 0 2.4 -0.5 2.8 -1.6 1.1z"/>
  <path d="M0.4 727.6 c-0.3 -0.8 -0.4 -2.3 -0.2 -3.3 0.3 -1.1 0.6 -0.6 0.9 1.5 0.6 3.4 0.2 4.2 -0.7 1.8z"/>
  <path d="M59.6 728.1 c-0.7 -1.1 0.3 -4.1 1.4 -4.1 0.4 0 0.5 1.1 0.2 2.5 -0.5 2.7 -0.8 3 -1.6 1.6z"/>
  <path d="M53.5 725 c-0.4 -0.6 -1.6 -0.8 -2.8 -0.4 -1.7 0.5 -1.9 0.4 -1 -0.6 0.6 -0.7 2.3 -1.2 3.7 -1.2 1.5 0 2.7 -0.7 2.9 -1.7 0.4 -1.3 0.5 -1.3 0.6 0.2 0.1 2.3 -2.5 5.1 -3.4 3.7z"/>
  <path d="M64.5 725 c-0.3 -0.5 -0.1 -1 0.5 -1 0.6 0 1.8 -1.7 2.6 -3.7 1.2 -2.8 1.8 -3.3 2.5 -2.2 1.3 2 1.1 2.5 -1.5 5.3 -2.6 2.9 -3.2 3.1 -4.1 1.6z"/>
  <path d="M73 723.1 c0 -0.5 1.4 -1.6 3 -2.5 1.7 -0.8 3 -1 3 -0.6 0 0.5 0.7 0.7 1.5 0.4 0.8 -0.4 1.5 -0.2 1.5 0.3 0 1.7 -1.3 2.3 -2.7 1.2 -1 -0.9 -1.3 -0.8 -1.3 0.5 0 1 -0.9 1.6 -2.5 1.6 -1.4 0 -2.5 -0.4 -2.5 -0.9z"/>
  <path d="M101.1 721.3 c-1.5 -3.2 -2.5 -8.1 -1.6 -7.1 0.4 0.3 0.8 1.2 0.9 2 0.2 0.7 0.8 2.6 1.5 4.2 1.5 3.7 0.8 4.5 -0.8 0.9z"/>
  <path d="M13.4 721.4 c0.3 -0.9 0.6 -2 0.6 -2.5 0 -1.1 1.1 -1.1 2.8 -0.1 1.8 1.2 0.4 4.2 -2 4.2 -1.4 0 -1.8 -0.5 -1.4 -1.6z"/>
  <path d="M22 720.4 c0 -1.7 2.2 -1.4 2.8 0.4 0.2 0.7 -0.3 1.2 -1.2 1.2 -0.9 0 -1.6 -0.7 -1.6 -1.6z"/>
  <path d="M10 716.6 c0 -0.2 0.7 -0.9 1.5 -1.6 1.2 -1 1.5 -1 1.5 0.4 0 0.9 -0.7 1.6 -1.5 1.6 -0.8 0 -1.5 -0.2 -1.5 -0.4z"/>
  <path d="M141.6 706.6 c0.3 -0.9 1.1 -1.6 1.6 -1.6 1.3 0 0.5 2.3 -1 2.8 -0.7 0.2 -1 -0.2 -0.6 -1.2z"/>
  <path d="M40.3 696.3 c-2 -0.8 -1.5 -2.3 0.7 -2.3 1.1 0 2 0.7 2 1.5 0 1.5 -0.6 1.7 -2.7 0.8z"/>
  <path d="M84.7 680.3 c-0.2 -0.5 -0.3 -1.9 -0.2 -3.3 0.1 -1.4 -0.2 -3.1 -0.7 -3.7 -0.8 -0.9 -0.6 -1.3 0.6 -1.3 1.1 0 1.6 0.9 1.6 2.9 0 1.6 0.3 3.6 0.6 4.5 0.6 1.6 -1.1 2.3 -1.9 0.9z"/>
  <path d="M57.7 675.9 c-1.6 -1.8 -1.6 -1.9 0.6 -2 1.2 0 1.6 -0.3 1 -0.6 -1.5 -0.5 -1.8 -3.3 -0.4 -3.3 1.8 0 2.9 6.4 1.3 7.4 -0.5 0.3 -1.6 -0.4 -2.5 -1.5z"/>
  <path d="M79.2 677.3 c1.1 -0.3 1.5 -1 1.1 -2.1 -0.5 -1.3 -0.3 -1.4 0.7 -0.5 1.5 1.4 0.5 3.3 -1.8 3.2 -1.6 -0.1 -1.6 -0.2 0 -0.6z"/>
  <path d="M54 672.2 c0 -0.5 0.7 -1.5 1.5 -2.2 0.8 -0.7 1.5 -0.8 1.5 -0.2 0 0.5 -0.7 1.5 -1.5 2.2 -0.8 0.7 -1.5 0.8 -1.5 0.2z"/>
  <path d="M76.1 670.2 c0 -0.4 0.4 -1.6 0.8 -2.6 0.7 -1.9 0.8 -1.9 1.3 0.1 0.4 1.4 0 2.4 -0.8 2.7 -0.8 0.3 -1.4 0.2 -1.3 -0.2z"/>
  <path d="M82.6 670.3 c-1.2 -1.2 -0.6 -3.3 0.9 -3.3 0.8 0 1.5 0.6 1.5 1.4 0 1.7 -1.4 2.8 -2.4 1.9z"/>
  <path d="M171.4 595.5 c-1 -0.8 -1.4 -1.5 -0.8 -1.5 0.5 0 1.9 0.7 3 1.5 1 0.8 1.4 1.5 0.8 1.5 -0.5 0 -1.9 -0.7 -3 -1.5z"/>
  <path d="M63.5 582.7 c-4 -8.6 -4.4 -11.7 -1.6 -11.7 1.5 0 2 1 2.6 4.8 0.4 2.6 1.4 6.7 2.2 9 2.4 7.3 0.5 6 -3.2 -2.1z"/>
  <path d="M61.6 558.1 c0.6 -10.2 0.6 -11 -1.4 -12.6 -1.1 -1 -1.8 -2.5 -1.5 -3.3 0.4 -0.8 -0.1 -1.9 -1 -2.4 -1.6 -0.8 -3.7 -6.6 -3.7 -10 0 -1.1 0.8 -1.8 2 -1.8 1.7 0 2 -0.7 2 -4 0 -5 3 -11.2 6.2 -12.7 4.9 -2.5 10.8 -1.4 12.2 2.2 0.5 1.3 0.2 1.4 -1.5 0.4 -4.5 -2.4 -11 2.2 -12.9 9 -0.8 3.2 -0.7 6.3 0.5 13.9 3.3 20.2 3.4 21.7 2.5 26.2 -0.5 2.5 -0.9 4.8 -1 5.3 0 0.4 -0.7 0.7 -1.5 0.7 -1.3 0 -1.4 -1.5 -0.9 -10.9z"/>
  <path d="M210.1 559.7 c0 -1.1 -0.6 -1.5 -1.3 -1.1 -0.7 0.5 -0.8 0.3 -0.3 -0.6 0.5 -0.8 0.8 -3.2 0.8 -5.5 l-0.2 -4 1 4 c0.5 2.2 0.8 5.1 0.6 6.5 -0.2 1.4 -0.5 1.7 -0.6 0.7z"/>
  <path d="M200.6 557.6 c-0.3 -1.4 -0.3 -3.2 0 -4.1 0.4 -0.9 0.1 -2.1 -0.6 -2.5 -0.8 -0.5 -0.9 -0.9 -0.1 -1.4 0.6 -0.4 1.1 -0.2 1.1 0.3 0 0.6 1.1 1.1 2.5 1.1 1.4 0 2.5 -0.4 2.5 -1 0 -0.5 -0.7 -1 -1.5 -1 -1.1 0 -1.4 -0.7 -0.9 -2.5 0.4 -1.5 0.2 -2.5 -0.4 -2.5 -0.6 0 -1.4 -1.5 -1.7 -3.2 -0.4 -1.8 -1.2 -3.6 -1.8 -4 -0.6 -0.3 -1.2 -2.2 -1.4 -4.2 -0.3 -2.7 0 -3.6 1.2 -3.6 0.8 0 1.5 -0.4 1.5 -1 0 -0.5 -0.8 -1 -1.7 -1 -1.4 0 -1.5 -0.2 -0.4 -0.9 0.8 -0.5 2.5 -0.8 3.8 -0.6 1.7 0.2 2.3 -0.2 1.9 -1.1 -0.3 -0.7 -0.1 -1.6 0.3 -1.9 0.5 -0.2 1.1 0.4 1.4 1.4 0.3 1.2 -0.1 2.2 -1 2.5 -0.8 0.3 -1.1 1 -0.8 1.6 0.4 0.6 1 0.8 1.5 0.5 0.5 -0.3 1.2 0 1.6 0.7 0.4 0.7 0.4 1 -0.1 0.6 -0.4 -0.4 -1.4 -0.3 -2.2 0.3 -1 0.9 -1.3 0.8 -1.3 -0.1 0 -1 -0.3 -1 -1.5 0 -0.8 0.7 -1.5 1.8 -1.5 2.4 0 0.6 0.4 0.4 1 -0.4 1 -1.6 1.1 -1.6 2.8 2.4 0.9 2 1 3.2 0.2 4 -1.5 1.5 -1.2 3.6 0.6 3.6 1.4 0 1.6 -0.9 1.2 -5.5 -0.3 -3 -0.1 -5.5 0.4 -5.5 0.4 0 0.8 2.7 0.8 6 0 3.3 -0.4 6 -1 6 -0.5 0 -1 1.2 -0.9 2.8 0 2.3 0.2 2.4 0.8 0.8 1.2 -3 2 -0.5 1.2 3.4 -0.5 2.9 -1.2 3.6 -3.5 3.8 -2.4 0.3 -2.7 0.7 -2.3 2.8 0.6 3.2 -0.9 4.1 -1.7 1z"/>
  <path d="M193 536.5 c0 -0.8 0.5 -1.5 1 -1.5 0.6 0 1 0.7 1 1.5 0 0.8 -0.4 1.5 -1 1.5 -0.5 0 -1 -0.7 -1 -1.5z"/>
  <path d="M201.1 524.3 c-0.1 -0.7 -0.8 -1 -1.6 -0.7 -0.9 0.4 -1.5 0 -1.5 -1 0 -1.8 0.8 -2 2.9 -0.7 0.7 0.5 1.1 1.5 0.8 2.2 -0.4 0.9 -0.6 1 -0.6 0.2z"/>
  <path d="M48.8 522.3 c-1.3 -0.3 -1.8 -1.5 -1.8 -4 0 -2.7 0.3 -3.4 1.5 -2.9 0.8 0.3 1.5 0.1 1.5 -0.4 0 -0.6 1.6 -0.9 3.5 -0.7 3.4 0.2 3.5 0.3 3.5 4.5 0 4.1 -0.1 4.2 -3.2 4.1 -1.8 -0.1 -4.1 -0.3 -5 -0.6z"/>
  <path d="M199 520 l-2.5 -0.6 2.9 -0.8 c1.6 -0.4 3.3 -0.3 3.8 0.2 1.3 1.3 -1.1 2 -4.2 1.2z"/>
  <path d="M66.9 517.1 c2.3 -2.1 5.7 -2.9 4.7 -1.2 -0.4 0.5 0 1.1 0.6 1.4 0.7 0.2 0.2 0.4 -1.2 0.4 -1.4 0 -3.4 0.3 -4.5 0.7 -1.7 0.7 -1.7 0.5 0.4 -1.3z"/>
  <path d="M197 517 c0 -0.5 -0.9 -1 -1.9 -1 -1.1 0 -2.2 -0.4 -2.5 -0.9 -0.7 -1.1 1.7 -2.1 5.1 -2.1 2.5 0 5.2 -2.4 5.2 -4.5 0 -0.5 -0.4 -0.2 -1 0.8 -0.5 0.9 -1.8 1.7 -2.8 1.7 -2.8 0 -15.4 -4.1 -14.7 -4.7 0.3 -0.4 0 -1.3 -0.6 -2 -0.9 -1.2 -0.9 -1.4 0.3 -1.3 2.9 0.5 5 0 4.4 -1 -0.3 -0.5 -0.2 -1 0.4 -1 0.5 0 1.1 1 1.3 2.2 0.4 3 5.4 3.6 6.1 0.7 0.3 -1 0.1 -1.9 -0.4 -1.9 -0.5 0 -0.8 -0.6 -0.6 -1.2 0.1 -0.7 -0.4 -1.2 -1 -1 -0.7 0.1 -1.3 -0.8 -1.3 -1.9 0 -1.6 -0.5 -2 -2 -1.6 -1.1 0.3 -1.8 0.1 -1.5 -0.3 0.3 -0.5 1.9 -1.1 3.6 -1.5 1.9 -0.4 2.9 -1.2 2.5 -2 -0.2 -0.7 0.1 -1.8 0.7 -2.5 0.9 -1 0.9 -1.1 -0.3 -0.5 -1.3 0.8 -1.3 0.6 -0.1 -0.8 0.7 -0.9 1 -2.5 0.6 -3.4 -0.6 -1.7 -0.7 -1.7 -2 0 -1 1.3 -1.4 1.5 -1.8 0.5 -0.3 -0.8 -0.9 -0.3 -1.5 1.4 -0.6 1.4 -2 2.9 -3.2 3.3 -1.1 0.3 -1.8 1.1 -1.5 1.6 0.4 0.5 0 0.9 -0.7 0.9 -1.8 0 -9.8 7.8 -9.8 9.6 0 1.5 -3.5 5.4 -4.8 5.4 -1.2 0 -5.2 -8.9 -5.8 -13 -0.3 -1.9 -0.8 -5.1 -1.2 -7 -1.4 -7.1 0.2 -81 2.3 -107 0.2 -2.5 0.5 -8.2 0.7 -12.7 0.1 -4.6 0.7 -8.3 1.1 -8.3 0.5 0 0.7 -2 0.5 -4.5 -0.2 -2.5 -0.1 -4.5 0.2 -4.5 0.3 0 1.3 -5.3 2.3 -11.7 1 -6.5 2.3 -13.4 2.8 -15.4 1 -3.9 3.7 -5.9 5 -3.7 0.4 0.6 0.8 9.1 0.8 18.7 0.1 23.1 1.9 60.1 3.1 62.6 0.5 1.1 1.1 3.3 1.2 4.9 0.2 1.6 1 3.1 1.8 3.3 1.3 0.4 1.3 0.3 0 -0.6 -1.2 -0.9 -1 -1.1 1.1 -1.1 3.4 0 9.7 2.6 7.8 3.2 -0.9 0.3 -0.3 1 1.6 1.9 1.6 0.8 3.6 2.7 4.3 4.2 1.2 2.5 1.1 3.7 -1.2 10.5 -2.3 7.1 -5.7 28.5 -5.6 35.9 0 1.7 0.5 3.5 1 3.8 0.6 0.3 1 1.9 1 3.5 0 2.6 1.3 8.7 5.6 27 1.7 7.2 3.7 11 5.9 11 1.9 0 2.8 3.5 1.5 5.9 -0.7 1.3 -1.9 2 -3.4 1.9 -2.1 -0.2 -2.3 -0.5 -1.4 -2.2 0.9 -1.7 0.8 -1.8 -1.3 -1.3 -1.3 0.4 -2.8 0.7 -3.4 0.7 -0.5 0 -0.3 0.5 0.5 1 1.3 0.9 1.3 1.1 0 2 -1.9 1.3 -3 1.3 -3 0z m2.1 -9.2 c-2.4 -0.8 -4.5 -0.2 -3.6 1.1 0.2 0.5 1.7 0.6 3.2 0.3 2.7 -0.5 2.7 -0.5 0.4 -1.4z m-22.3 -18.3 c1.7 -1.4 3.7 -2.5 4.6 -2.5 0.9 0 1.6 -0.4 1.6 -1 0 -0.5 -0.9 -1 -2 -1 -1.1 0 -2 0.4 -2 0.9 0 0.4 -1.1 0.6 -2.5 0.3 -1.9 -0.3 -2.5 0 -2.5 1.3 0 1.1 -0.5 1.5 -1.5 1.1 -1 -0.4 -1.5 0.1 -1.5 1.4 0 2.7 2.2 2.5 5.8 -0.5z m19.2 -9.1 c0 -0.7 -0.8 -1 -2 -0.7 -2.2 0.6 -1.9 2 0.5 2 0.8 0 1.5 -0.6 1.5 -1.3z m2.3 -56.3 c-1 -0.7 -1.1 -2.6 0 -3.7 1.4 -1.5 0.7 -2.4 -1.2 -1.4 -1.1 0.5 -3.6 1 -5.5 1 -2 0 -3.6 0.4 -3.6 0.9 0 0.4 1.1 0.6 2.4 0.4 1.9 -0.4 2.9 0.2 4.8 3 1.9 2.9 2.4 3.3 3.2 2 0.5 -0.9 0.5 -1.8 -0.1 -2.2z"/>
  <path d="M149 509.3 c-2.5 -0.9 -5.4 -2 -6.5 -2.4 -1.1 -0.4 -3.9 -1.3 -6.2 -1.9 -2.3 -0.6 -4.3 -1.5 -4.5 -2.2 -0.2 -0.6 -1.4 -1.3 -2.6 -1.5 -3 -0.4 -15.3 -6.6 -28.9 -14.6 -6.2 -3.6 -11.3 -6.4 -11.3 -6.2 0 0.4 -3.9 -2.8 -10 -8.2 -2.6 -2.4 -5.5 -4.3 -6.4 -4.3 -2.1 0 -3.7 -3.9 -2.5 -6.2 0.5 -0.9 0.9 -3.2 0.8 -5 -0.1 -3.2 -0.1 -3.2 -1.3 1 -0.6 2.4 -1.3 4.1 -1.6 3.9 -0.8 -0.8 -0.4 -13 0.5 -14.9 1.2 -2.8 -2.2 -3.4 -4.3 -0.8 l-1.8 2.2 -0.2 -4.5 c-0.3 -4.9 0.8 -6.6 2.8 -4.2 2.3 2.7 7.9 0.8 13.5 -4.5 2.8 -2.7 9.3 -7.5 14.5 -10.9 10.5 -6.7 14.9 -10.2 14.3 -11.3 -0.2 -0.5 0 -0.8 0.5 -0.8 0.6 0 1.3 0.7 1.6 1.6 0.4 1 0.2 1.3 -0.6 0.8 -0.8 -0.5 -0.9 -0.2 -0.5 0.9 0.4 1 0.2 1.7 -0.4 1.7 -0.7 0 -0.9 1.2 -0.7 2.9 0.2 1.7 0.1 2.8 -0.4 2.5 -0.4 -0.3 -0.8 0.1 -0.8 1 0 0.8 -0.3 2.3 -0.6 3.3 -0.5 1.3 0.1 1 2 -0.9 1.5 -1.6 3.1 -2.8 3.6 -2.8 2.1 0 2.1 -4.9 0.1 -9.3 -1.2 -2.5 -2.1 -5.3 -2.1 -6.1 0 -2.2 -1.6 -2.8 -3 -1.1 -1.7 2.1 -3.5 0.9 -6.1 -4.3 -1.3 -2.6 -3.3 -6.3 -4.5 -8.2 -3.3 -5.6 -7.4 -13 -7.4 -13.6 0 -0.4 0.6 -0.4 1.4 -0.1 1.5 0.6 1.5 -2 0.1 -4.3 -0.4 -0.6 0.1 -4.3 1 -8.3 1.6 -6.6 1.6 -7.7 0.2 -13.2 -1.1 -4.2 -1.2 -6.4 -0.5 -7.3 0.6 -0.7 0.8 -2.9 0.4 -5.3 -0.4 -2.8 -0.2 -4.6 0.8 -6.1 1 -1.4 1.3 -3.5 1 -6.2 -0.8 -6.3 0.9 -7.8 9 -8.2 7.9 -0.4 10.6 0.7 10.6 4.2 0 2.8 2.8 9.4 3.8 9.2 0.4 0 1.3 0 2.1 0.1 1.2 0.1 1.2 0.3 -0.2 1.4 -1.5 1.1 -1.2 2.5 3.4 15.7 2.7 8 5 15 5.1 15.7 0.1 0.7 0.6 1 1.1 0.6 0.5 -0.3 0.6 0.4 0.2 1.8 -0.7 2.1 -0.6 2.2 0.7 1.1 1.3 -1 1.8 -0.7 3.1 2 0.8 1.8 2.3 6 3.2 9.3 0.9 3.3 3 10.3 4.5 15.5 2.6 8.7 6 21 11 41 1.8 6.9 2.6 12.5 4.9 36.5 1.7 16.3 1.4 21.8 -0.9 16.3 l-0.9 -2.3 0 2.2 -0.1 2.2 -2.5 -2.4 c-1.3 -1.4 -3.1 -2.5 -4 -2.5 -0.9 0 -1.3 -0.4 -1 -1 0.6 -1 -1 -1.5 -3 -1 -0.5 0.1 -2.6 0.4 -4.5 0.7 -1.9 0.2 -4.2 1.1 -5.2 2 -1.7 1.5 -5.1 1.4 -11.5 -0.3 -2.7 -0.7 -3.2 1.4 -0.5 2.2 0.9 0.3 3.5 1.4 5.7 2.4 2.2 1 5.4 2.1 7 2.4 8.3 1.4 11.4 1.8 16.1 2 6.2 0.3 7.4 1 7.4 4.3 0 1.4 0.8 3.2 1.8 3.9 1.5 1.2 1.5 1.3 0.1 1.4 -0.9 0 -1.9 0.7 -2.3 1.5 -0.7 1.8 -1.8 1.8 -7.6 -0.2z m-30.3 -39.8 c0 -0.8 -0.6 -1.5 -1.4 -1.5 -0.7 0 -1.3 -0.3 -1.3 -0.8 0 -0.7 -1 -1.3 -6.6 -4.2 -1.6 -0.8 -3.1 -1.7 -3.4 -2.1 -0.8 -1 -4.8 -2.9 -6.1 -2.9 -2.6 0 1 2.6 10.1 7.2 2.5 1.3 5.4 3.1 6.4 4.1 2.4 2.1 2.3 2 2.3 0.2z m-25.7 -9.1 c0 -1.1 0.6 -1.5 2 -1.1 2 0.5 2.9 -0.8 0.9 -1.5 -0.5 -0.2 -0.7 -1.1 -0.3 -2.1 0.5 -1.4 1.3 -1.7 3 -1.3 2.8 0.8 3.2 -0.9 0.5 -2.3 -2 -1.1 -3.5 -5.1 -1.9 -5.1 0.5 0 0.6 -0.5 0.3 -1 -0.4 -0.6 -1.1 -0.7 -1.7 -0.4 -0.7 0.4 -0.8 0.2 -0.4 -0.4 0.4 -0.7 1.3 -1.2 2.1 -1.2 0.7 0 1.5 -0.7 1.9 -1.5 0.3 -0.8 0.3 -1.5 0.1 -1.5 -1.2 0 -5.1 2.7 -7.8 5.3 -2.7 2.5 -2.9 3.2 -2.3 7.5 0.9 6.3 1.5 8.2 2.7 8.2 0.5 0 0.9 -0.7 0.9 -1.6z m-19.4 -11.9 c0.4 -0.8 1 -1.2 1.5 -0.9 0.5 0.3 0.9 0 0.9 -0.5 0 -1.7 2.7 -1.3 3.4 0.5 0.5 1.3 1.5 1.4 4.9 0.9 5.1 -0.9 5 -0.8 5.2 -4.8 0.1 -1.7 0.5 -4 0.9 -4.9 1 -2.2 -3.1 -6.5 -4.7 -4.9 -0.6 0.6 -1.7 1.1 -2.4 1.1 -0.7 0 -2.9 1.8 -4.9 4 -1.9 2.1 -4.4 4.2 -5.5 4.5 -1.3 0.4 -1.9 1.6 -1.9 3.6 0 3 1.7 4 2.6 1.4z m24.1 -11.1 c-0.9 -0.9 -5.2 1.4 -5.3 2.8 -0.1 1.5 0.2 1.4 2.7 -0.4 1.6 -1.2 2.7 -2.3 2.6 -2.4z m5.3 -7.6 c0 -0.6 -1.1 -0.7 -2.6 -0.4 -1.7 0.5 -2.3 0.3 -1.9 -0.4 0.3 -0.5 -0.2 -1 -1.2 -1 -1.6 0.1 -1.5 0.3 0.5 2 2.3 1.9 5.2 1.8 5.2 -0.2z m27.6 -55.4 c-0.4 -1.4 -0.9 -2.4 -1.2 -2.1 -0.3 0.2 -0.2 1.7 0.2 3.1 0.3 1.5 0.9 2.5 1.1 2.2 0.3 -0.3 0.2 -1.7 -0.1 -3.2z m-38.2 -24.9 c-0.5 -2 -0.9 -2.4 -1.8 -1.4 -0.8 0.8 -0.8 1.3 0.2 1.6 0.6 0.3 1.2 1.2 1.2 2.1 0 0.8 0.2 1.3 0.5 1 0.4 -0.3 0.3 -1.8 -0.1 -3.3z m5.4 -5.2 c-1.1 -2.2 -2.7 -6 -3.4 -7.8 -0.6 -1.6 -0.8 -1.7 -1.1 -0.4 -0.4 1.5 3.3 8.9 4.4 8.9 0.2 0 0.3 -0.3 0.1 -0.7z"/>
  <path d="M54.5 506.3 c3.8 -0.9 4.2 -2.6 0.5 -1.9 -3.4 0.6 -3.7 0.4 -4.8 -2.7 -0.7 -1.8 -1.2 -4.1 -1.2 -5 0 -0.9 -0.7 -1.7 -1.5 -1.7 -1.1 0 -1.5 -1.1 -1.5 -3.9 l0 -3.9 6.5 -0.7 c7.1 -0.7 8.5 -0.3 8.5 2.6 0 1.4 0.7 1.9 2.5 1.9 1.8 0 2.6 0.7 3.1 2.4 1.1 4.6 0.1 7 -4.1 9 -2.1 1.1 -3.4 2.1 -2.7 2.4 2.8 0.9 0.9 2.2 -3 2.1 -2.4 -0.1 -3.4 -0.3 -2.3 -0.6z"/>
  <path d="M189 492.6 c0 -0.8 5.1 -1.3 5.6 -0.5 0.3 0.5 -0.9 0.9 -2.5 0.9 -1.7 0 -3.1 -0.2 -3.1 -0.4z"/>
  <path d="M66.6 486.4 c-1.2 -3.2 -0.7 -5.4 1.2 -4.7 2.3 0.9 3 2.2 2.5 4.4 -0.6 2.3 -2.9 2.5 -3.7 0.3z"/>
  <path d="M58 482 c0 -2.1 1 -2.4 4.8 -1.4 3.6 1 2.7 3.4 -1.3 3.4 -2.8 0 -3.5 -0.4 -3.5 -2z"/>
  <path d="M49 458.4 c0 -1.7 2.2 -1.4 2.8 0.4 0.2 0.7 -0.3 1.2 -1.2 1.2 -0.9 0 -1.6 -0.7 -1.6 -1.6z"/>
  <path d="M58.2 456.5 c-0.6 -1.1 -1.4 -1.7 -1.8 -1.3 -0.4 0.5 -1.3 0.3 -2.1 -0.3 -1 -0.9 -1.3 -0.8 -1.3 0.5 0 1 -0.5 1.4 -1 1.1 -0.6 -0.4 -1 -1.2 -0.9 -1.8 0.3 -2.8 -0.2 -3.9 -1.6 -3.3 -2.1 0.8 -4.7 -2.3 -4.3 -5.3 0.4 -3.9 5 -4.2 7.5 -0.5 1 1.5 3.2 4.1 4.9 5.8 2.3 2.3 3 3.6 2.4 5.1 -0.7 1.9 -0.7 1.9 -1.8 0z"/>
  <path d="M150.5 427.3 c-0.4 -1.5 -1.1 -3.6 -1.7 -4.7 -0.7 -1.4 -0.6 -2.1 0.4 -2.7 2.4 -1.5 3.3 -0.3 3.4 4.4 0.2 5.3 -1.2 7.3 -2.1 3z"/>
  <path d="M146.2 415.3 c-2.1 -5.3 -2.8 -9.8 -2.1 -12.3 0.4 -1.4 0.7 -3.8 0.7 -5.5 l0 -3 -0.9 3.3 c-1.2 4.1 -2.3 3.5 -4.2 -2.5 -2.4 -7.6 -2.8 -10.1 -2.1 -12.8 0.9 -3.5 3.4 -3.2 3.4 0.4 0 4.2 1 6.1 3.1 6.1 1 0 1.9 0.7 1.9 1.5 0 0.8 0.7 1.5 1.5 1.5 0.9 0 1.5 -0.9 1.5 -2.3 0 -1.3 0.9 -3.3 2 -4.5 2.8 -3 2.6 -5.2 -0.5 -5.2 -1.4 0 -2.5 -0.4 -2.5 -0.9 0 -0.4 -2.2 -0.6 -4.9 -0.3 l-4.9 0.4 -0.6 -4.3 c-1.6 -13.4 -1.6 -17.2 0 -19 1.4 -1.6 1.4 -1.9 -0.9 -3.4 -1.8 -1.2 -2.7 -2.8 -3.1 -6.3 -1 -7.2 -5.5 -28.6 -8.2 -39.1 -1.5 -5.7 -2.1 -9.8 -1.6 -10.3 1.1 -1.1 6.1 -1.8 7.9 -1.1 0.7 0.3 1.6 2.7 1.9 5.4 0.4 2.7 1.1 5.2 1.6 5.5 0.5 0.3 0.7 -0.5 0.4 -1.8 -1.7 -8.2 -1.7 -10.1 -0.2 -9.5 0.8 0.3 2 -0.1 2.6 -0.9 1.4 -1.5 6.6 -1.9 7.4 -0.5 0.3 0.4 1.6 0.6 2.9 0.4 1.4 -0.3 3.1 0.2 4.1 1.3 1.1 1 2 1.3 2.4 0.7 0.9 -1.3 5.9 -2.5 6.6 -1.5 0.9 1.4 1.8 20.1 1.1 23.1 -1.1 5.3 -3.5 3.8 -3.5 -2.1 0 -8 -1 -12.6 -2.9 -13.1 -1.3 -0.3 -1.5 0.3 -1.2 4 l0.3 4.3 -3.5 0 c-3.1 0 -3.6 -0.3 -3.9 -2.7 -0.2 -2 -0.9 -2.9 -2.5 -3.1 -1.6 -0.2 -2.3 -1.1 -2.6 -3.5 l-0.4 -3.2 -0.1 3.3 c-0.1 1.7 -0.6 3.2 -1.2 3.2 -0.5 0 -1 1.1 -1 2.4 0 4.2 -1.1 5.6 -4.1 5.6 -2.4 0 -2.9 0.4 -2.9 2.5 0 2.1 0.5 2.5 2.9 2.5 3.1 0 4.1 1.8 4.1 7.7 0 2.6 -0.5 3.4 -2.5 3.9 -2.6 0.6 -2.9 1.4 -1.9 5.2 0.4 1.5 1.4 2.2 3 2.2 2.1 0 2.4 0.5 2.4 3.5 0 2.8 -0.4 3.5 -1.9 3.5 -2.6 0 -1.7 3.4 1.5 5.5 3 1.9 3.4 7.8 0.7 9.5 -1.4 0.8 -1.2 0.9 1.2 0.4 3.9 -0.9 4.5 -1.2 4.5 -3 0 -0.9 1.1 -1.4 3.5 -1.4 3 0 3.5 -0.3 3.5 -2.3 0 -1.3 0.4 -2.7 1 -3.3 1.1 -1.1 3 -12.9 3 -19.1 0 -3.6 0.3 -4.3 2 -4.3 1.4 0 2 0.7 2 2.1 0 5 -2.2 21.6 -3.2 23.9 -1.4 3.2 -2.1 11.4 -2 22 0.1 4.7 -0.1 11.4 -0.4 15 -0.5 5.8 -0.7 6.3 -2 4.5 -1.7 -2.3 -1.8 -1.5 -0.2 1.9 0.9 2.1 0.8 2.9 -0.5 4.4 -1.9 2.1 -2.2 4.3 -0.7 5.8 1.4 1.4 -2.6 12.4 -4.5 12.4 -0.7 0 -1.7 -1.2 -2.3 -2.7z m5.6 -39.5 c1.4 -1.4 1.6 -6.7 0.3 -8.6 -0.6 -1 -1 -0.2 -1.5 2.5 -0.4 2.1 -0.9 4.6 -1.2 5.6 -0.6 2 0.6 2.3 2.4 0.5z m-9.5 -1.5 c0.2 -0.5 0.7 -2.6 1.1 -4.8 l0.6 -4 -2.4 3.9 c-2.4 3.8 -2.6 5.6 -0.6 5.6 0.5 0 1.1 -0.3 1.3 -0.7z"/>
  <path d="M28 363.9 c0 -0.6 -0.7 -0.9 -1.5 -0.5 -1.1 0.4 -1.5 -0.1 -1.5 -1.8 0 -1.8 0.8 -2.5 3.9 -3.4 2.1 -0.7 4.8 -1.2 6 -1.2 1.1 0 2.1 -0.4 2.1 -1 0 -0.5 0.9 -1 2.1 -1 1.8 0 2 0.5 1.7 4.7 -0.2 2.6 -0.9 4.8 -1.5 5.1 -0.7 0.2 -1.3 -0.3 -1.3 -1.2 0 -2 -0.2 -2 -4.7 -0.1 -4.2 1.8 -5.3 1.9 -5.3 0.4z"/>
  <path d="M85.2 317.5 c0 -7.3 -3.1 -27.5 -4.3 -27.5 -0.4 0 -3.1 -3.7 -5.9 -8.2 -8.7 -13.8 -9.4 -14.7 -10.1 -13.6 -0.4 0.6 -1 0.2 -1.4 -1.1 -0.3 -1.1 -1.5 -2.6 -2.6 -3.2 -1.1 -0.5 -1.7 -1.4 -1.4 -2 0.4 -0.5 0.2 -0.9 -0.2 -0.9 -0.5 0 -2.4 1.8 -4.2 4.1 -2.5 3 -3.6 3.7 -4.2 2.7 -1.1 -1.6 -1 -32.4 0.1 -35.8 0.7 -2.2 0.8 -2.2 1.1 -0.5 0.1 1.1 0.2 2.8 0.1 3.8 -0.1 0.9 0.3 1.7 0.8 1.7 0.6 0 1 -0.9 1 -2 0 -1.7 0.9 -2.4 3.1 -2.2 0.3 0.1 0.6 -0.6 0.6 -1.4 0 -0.8 -0.4 -1.4 -0.9 -1.4 -0.4 0 -0.8 -0.9 -0.8 -2 0 -1.1 -0.4 -2 -1 -2 -0.5 0 -1 -0.5 -1 -1.1 0 -0.5 0.4 -0.8 0.9 -0.5 0.5 0.3 1.1 -0.1 1.5 -0.9 0.4 -1.1 -0.1 -1.5 -1.8 -1.5 -1.9 0 -2.3 0.4 -1.9 1.9 0.3 1.1 0 2.8 -0.6 3.8 -0.9 1.5 -1 1.4 -1.1 -1.3 0 -1.7 0.3 -4.6 0.7 -6.5 0.5 -2.6 0.8 -2.9 1.3 -1.4 0.7 2.1 6 2.8 6 0.8 0 -1.7 1.7 -1.7 2.7 0 0.4 0.8 1.6 1.7 2.7 2 1.3 0.5 1.7 1.4 1.4 3.2 -0.3 1.4 -0.1 2.5 0.3 2.5 0.5 0 0.9 -0.4 0.9 -1 0 -2.2 1.5 -0.8 1.6 1.6 0.2 1.8 -0.2 2.4 -1.5 2.2 -0.9 -0.2 -2.4 0.4 -3.4 1.3 -1.5 1.4 -2 3.8 -2.4 13.3 -0.3 6.4 -0.3 11.6 0.1 11.6 0.3 0 2.8 -1.3 5.4 -3 7.6 -4.7 10.1 -3.9 15.6 4.9 5.9 9.3 7.1 15 7.1 33.1 -0.1 15.5 -1.6 28.3 -3.5 29.5 -0.5 0.3 -0.8 -1.1 -0.8 -3z m-31.7 -53.5 c-0.3 -0.5 -0.1 -1 0.4 -1 0.7 0 1.1 -2.5 1.1 -6.1 0 -5.2 -0.2 -6 -1.7 -5.7 -1.4 0.3 -1.8 1.4 -1.8 5.3 -0.1 4.7 0.9 8.5 2.1 8.5 0.3 0 0.2 -0.4 -0.1 -1z m6.5 -10.3 c0 -1.2 -0.5 -2.9 -1 -3.7 -0.7 -1.1 -1 -0.3 -1 2.8 0 2.6 0.4 4.1 1 3.7 0.6 -0.3 1 -1.6 1 -2.8z m-0.3 -10.2 c-0.1 -2.5 -0.3 -4 -0.5 -3.5 -0.2 0.6 -1.9 1 -3.8 1 -1.9 0 -3.4 0.5 -3.4 1.1 0 0.7 0.9 0.9 2.1 0.6 2.6 -0.7 5.3 1.7 4.5 3.8 -0.3 0.8 -0.1 1.5 0.4 1.5 0.4 0 0.8 -2 0.7 -4.5z"/>
  <path d="M182 307.6 c0 -1.4 0.5 -2.6 1 -2.6 0.6 0 1 0.9 1 1.9 0 1.1 -0.4 2.3 -1 2.6 -0.6 0.4 -1 -0.5 -1 -1.9z"/>
  <path d="M179.8 302.2 c-0.5 -2.1 2.1 -14.4 3.3 -15.6 1.1 -1.2 1.2 14.4 0.1 15.9 -1.2 1.7 -3 1.5 -3.4 -0.3z"/>
  <path d="M165.2 273.3 c0.3 -2.6 0.1 -2.8 -3.5 -2.8 -2 0 -3.7 -0.3 -3.7 -0.6 0 -1.9 2.3 -6.8 3 -6.4 1 0.6 2.5 -1.3 3.4 -4.2 0.6 -1.9 0.3 -2.3 -1.3 -2.3 -1.4 0 -1.9 -0.5 -1.5 -1.5 0.4 -0.8 1.5 -1.5 2.5 -1.5 1.2 0 1.9 -0.7 1.9 -2 0 -1.3 0.7 -2 2 -2 1.2 0 2 0.6 1.8 1.3 -0.3 1.2 1.5 7.8 3.3 12.5 1.5 3.8 1.1 5.3 -2.6 8.8 -4.2 4.1 -5.7 4.3 -5.3 0.7z"/>
  <path d="M139.5 268.4 c-3.3 -3 -6.6 -4.4 -10.6 -4.4 -3.6 0 -3.8 -1.8 -0.4 -5 2 -1.8 3.1 -2.2 6.1 -1.7 2.1 0.4 4 1 4.3 1.5 0.3 0.5 1.7 1.2 3.1 1.5 2 0.5 2.5 1.3 2.7 4.1 0.2 1.9 -0.2 3.8 -0.7 4.1 -0.6 0.4 -0.8 1.1 -0.5 1.6 1.2 1.8 -1.3 0.8 -4 -1.7z"/>
  <path d="M150.1 267.1 c-2.7 -3.7 -2.6 -3.9 0.4 -3.3 2 0.3 2.5 1 2.5 3.3 0 3.6 -0.4 3.6 -2.9 0z"/>
  <path d="M123.9 253.4 l-2.2 -2.4 7.9 0.1 7.9 0.1 -4 1.3 c-2.2 0.7 -3.5 1.4 -3 1.5 3.9 0.7 4.7 0.9 5.2 1.4 0.4 0.3 -1.7 0.5 -4.5 0.5 -4 -0.1 -5.6 -0.7 -7.3 -2.5z"/>
  <path d="M115.1 237.5 c-0.1 -2.6 0.7 -5.4 2.4 -8 2.9 -4.7 3 -5.5 1.1 -5.5 -2.6 0 -2.7 -1.8 -0.1 -2.2 2.3 -0.5 2.4 -0.3 2.1 3.4 -0.3 2.2 -1.2 4.8 -2 5.7 -0.9 1 -2 3.8 -2.5 6.2 l-0.9 4.4 -0.1 -4z"/>
  <path d="M104.7 228.9 c0.4 -1.2 1.4 -2.4 2.5 -2.6 1 -0.3 1.8 -1.2 1.8 -2 0 -0.9 -0.6 -1.3 -1.5 -0.9 -1.2 0.4 -1.4 0 -0.9 -2.2 0.3 -1.5 0.6 -3.7 0.6 -4.9 0 -1.3 0.4 -2.3 0.9 -2.3 0.5 0 0.9 0.7 0.9 1.5 0 0.8 0.9 1.5 2 1.5 1.8 0 1.8 0.2 0.5 4.6 -1.9 6.2 -8.3 13.1 -6.8 7.3z"/>
  <path d="M73.3 223.9 c-0.8 -0.8 -0.5 -1.8 1.4 -3.5 2.8 -2.6 2 -3 -2.2 -1.4 -1.4 0.5 -2.4 1.4 -2.1 1.8 0.2 0.4 -0.4 1.3 -1.4 1.9 -1.5 1 -1.7 0.9 -1.3 -0.8 0.3 -1.1 -0.2 -2.8 -1 -3.7 -2.1 -2.2 -2.4 -7 -0.8 -9.9 0.7 -1.5 0.8 -2.3 0.1 -2.3 -0.5 0 -1 0.5 -1 1.2 0 0.6 -0.2 0.9 -0.5 0.6 -0.3 -0.3 0.2 -2.4 1.1 -4.7 1.8 -4.5 1.2 -6.6 -1 -3.6 -0.8 1.2 -1.9 1.6 -3 1.2 -1.3 -0.5 -1.9 -0.1 -2.3 1.3 -0.3 1.1 -0.9 1.8 -1.3 1.5 -0.4 -0.3 -1 0.6 -1.2 2 -0.3 1.4 -0.1 2.5 0.3 2.5 0.5 0 0.6 0.7 0.2 1.6 -0.9 2.4 -2.3 -0.4 -2.3 -4.8 0 -2.6 0.4 -3.6 1.3 -3.3 0.8 0.4 1.3 -1 1.5 -4.6 0.2 -3.4 0 -4.9 -0.7 -4.4 -0.6 0.3 -1.1 -0.1 -1.1 -1 0 -1.2 0.5 -1.5 1.6 -1.1 0.9 0.3 1.7 0.6 1.9 0.6 0.2 0 0.1 1.5 -0.2 3.4 -0.3 1.9 -0.1 3.6 0.6 4 0.6 0.4 1.1 0 1.1 -0.8 0 -0.9 0.9 -2.5 2 -3.6 1.6 -1.6 1.7 -2 0.5 -2 -0.8 0 -1.5 -0.4 -1.5 -1 0 -1.3 0.6 -1.3 3.2 0.1 1.8 1 2 0.9 1.5 -0.5 -0.5 -1.1 -0.1 -1.6 1.3 -1.6 1 0 2.2 0.5 2.5 1 0.4 0.6 1.2 1 1.8 0.9 2.5 -0.3 3.8 0.1 3.2 1.1 -0.3 0.6 -0.1 1 0.4 1 0.6 0 1.1 -0.5 1.1 -1.1 0 -0.5 0.5 -0.7 1 -0.4 0.6 0.3 1 1.7 1 3.1 0 2.7 -2 3.4 -2 0.7 -0.1 -1.6 -0.2 -1.6 -1.3 -0.3 -0.7 0.8 -2.3 1.5 -3.7 1.5 -3.1 0 -3.9 3.1 -1.4 5 1.5 1 1.6 1.6 0.6 2.8 -0.9 1.1 -1 1.7 -0.2 2.2 0.6 0.4 1 1.7 0.8 2.8 -0.3 2.9 0.9 4.7 3.2 4.7 2.4 0 3.3 -3 2 -6.5 -0.9 -2.3 -1.4 -2.6 -3.6 -2.1 -1.7 0.5 -2.3 0.3 -1.9 -0.4 0.9 -1.4 3.7 -1.2 5.9 0.5 1.1 0.8 2.8 1.3 3.8 0.9 1.5 -0.4 1.8 0 1.8 2.9 0 3.5 -2.6 12.3 -4.3 14.5 -1.2 1.5 -3.9 1.6 -5.4 0.1z"/>
  <path d="M101.8 218.4 c-0.5 -0.4 -0.8 -1.9 -0.8 -3.3 0 -1.4 -0.7 -3.9 -1.5 -5.5 -0.8 -1.6 -1.8 -4.6 -2.1 -6.8 -0.8 -4.5 -2.1 -3.9 -2.7 1.2 -0.2 1.9 -0.5 -0.2 -0.5 -4.7 -0.1 -5 0.2 -8.3 0.8 -8.3 0.6 0 1.1 1.5 1.1 3.3 0.1 1.7 0.3 2.4 0.6 1.5 0.2 -1 1.3 -1.8 2.4 -1.8 2.5 0 9.9 3.2 9.9 4.4 0 0.4 0.6 0.4 1.3 -0.1 0.6 -0.5 2.6 -0.6 4.2 -0.3 2.4 0.6 2.7 0.8 1.3 1.4 -1 0.5 -1.8 1.9 -1.8 3.2 0 2.1 -0.3 2.3 -1.9 1.5 -2.4 -1.3 -3.2 -0.4 -2.5 2.8 0.5 1.8 0.3 2.3 -0.4 1.6 -0.5 -0.5 -1.2 -1.9 -1.4 -2.9 -0.1 -1.1 -0.9 -2.1 -1.5 -2.4 -0.9 -0.2 -1.3 1.1 -1.3 4.5 -0.1 3.9 -0.3 4.5 -1.1 2.9 -1.5 -2.5 -3.2 0 -1.8 2.6 1.1 2.1 0.8 6.4 -0.3 5.2z"/>
  <path d="M112 213.8 c0 -1.6 0.5 -2.8 1 -2.8 1.3 0 1.3 2 0 4 -0.8 1.2 -1 0.9 -1 -1.2z"/>
  <path d="M52.2 206 c0 -3.6 0.4 -9.4 0.8 -13 l0.7 -6.5 0.1 9 c0 5 -0.3 10.8 -0.7 13 -0.8 3.7 -0.9 3.5 -0.9 -2.5z"/>
  <path d="M78 203.6 c0 -0.9 0.4 -1.6 0.9 -1.6 0.4 0 1.3 -1.5 1.9 -3.2 1.1 -3.3 1.1 -3.3 0.9 1.2 -0.2 3.4 -0.6 4.6 -1.9 4.8 -1.1 0.2 -1.8 -0.3 -1.8 -1.2z"/>
  <path d="M76 200.6 c0 -1.5 1.8 -3.1 2.6 -2.3 0.7 0.7 -0.7 3.7 -1.7 3.7 -0.5 0 -0.9 -0.6 -0.9 -1.4z"/>
  <path d="M101 187.6 l-6.5 -1.2 0.2 -7 c0.2 -3.8 1 -8.9 1.8 -11.4 l1.5 -4.5 -0.5 6.3 c-0.3 3.4 -0.3 6.2 0 6.2 0.3 0 1 -2 1.6 -4.3 l1.1 -4.4 3.2 1.6 c3.1 1.6 3.2 1.7 1.4 3.5 -3 3.3 -2.3 4.7 2.3 4.4 2.7 -0.1 4.5 0.3 5.3 1.2 0.6 0.8 2.4 2.2 4 3 4 2.1 4.5 4 0.9 4.1 -2.5 0.1 -2.4 0.2 1.2 1.3 l3.9 1.3 -3.3 0.6 c-4.4 0.9 -10.2 0.7 -18.1 -0.7z"/>
  <path d="M80 181.6 c0 -0.7 0.8 -1.6 1.8 -2 0.9 -0.3 2.3 -0.9 3 -1.2 0.7 -0.3 1.2 0.1 1.2 1 0 0.9 0.7 1.6 1.5 1.6 0.8 0 1.5 0.5 1.5 1 0 0.6 -2 1 -4.5 1 -3.2 0 -4.5 -0.4 -4.5 -1.4z"/>
  <path d="M60 179.9 c-3 -0.5 -5.8 -1.5 -6.2 -2.2 -1 -1.6 -0.9 -6.6 0.2 -9.2 0.8 -1.8 0.9 -1.7 0.9 0.7 0.1 3.2 1.7 4.6 2.4 2.1 0.4 -1.5 0.5 -1.4 0.6 0.3 0.1 2.6 4.1 4.8 7.2 3.9 1.7 -0.4 2 -0.3 1 0.3 -1 0.7 -0.3 1.2 2.7 1.7 3 0.5 3.9 1 3.5 2.1 -0.6 1.6 -3.9 1.6 -12.3 0.3z"/>
  <path d="M97.5 151.5 c0.3 -3.8 0.5 -8.2 0.5 -9.7 0 -1.6 0.4 -2.8 1 -2.8 1 0 0.6 4.6 -1.1 14.5 -0.8 4.5 -0.8 4.3 -0.4 -2z"/>
  <path d="M134 154.8 c0 -2.1 0.5 -3.8 1 -3.8 1.3 0 1.3 4 0 6 -0.7 1.1 -1 0.5 -1 -2.2z"/>
  <path d="M100 153.8 c0 -0.7 0.5 -2 1 -2.8 0.7 -1.2 1.2 -1.2 2.2 -0.2 0.9 0.9 0.9 1.2 0 1.2 -0.7 0 -1.2 0.7 -1.2 1.5 0 0.8 -0.4 1.5 -1 1.5 -0.5 0 -1 -0.6 -1 -1.2z"/>
  <path d="M136.7 152.1 c-0.3 -1.5 -0.3 -3.8 0 -5 0.3 -1.3 0.1 -2.1 -0.7 -2.1 -1.6 0 -0.9 -22.7 0.8 -25.6 0.9 -1.6 1.1 -0.8 1.2 4.1 0 4 0.3 5.5 0.9 4.5 0.6 -0.8 0.7 -1.8 0.5 -2.2 -0.3 -0.5 -0.3 -1.7 0.1 -2.7 0.4 -1.5 1.4 -1.9 4 -1.8 1.9 0.1 3.5 0.7 3.5 1.3 0 0.7 1 1.5 2.3 1.9 1.2 0.4 2.4 0.8 2.7 0.9 0.3 0.1 1.9 0.6 3.7 1 2.2 0.5 3.6 1.7 4.5 3.7 0.7 1.6 1.6 2.9 1.9 2.9 0.4 0 1 2.1 1.5 4.8 l0.8 4.7 0.7 -5.5 c0.5 -4.9 0.6 -4.5 0.7 3.5 0.1 5 -0.3 9.7 -0.8 10.5 -0.7 1.1 -1 0.1 -1.1 -3.5 l-0.2 -5 -0.6 4 c-0.5 3.3 -1 3.9 -2.6 3.7 -1.1 -0.2 -2.2 -0.8 -2.3 -1.3 -0.2 -0.5 -1 -1.6 -1.8 -2.3 -0.8 -0.8 -1.4 -2.4 -1.4 -3.5 0 -2.9 -3.3 -13.1 -4.2 -13.1 -2.2 0 -1.9 5.4 0.6 11.1 2.7 5.8 3.1 9.4 1.1 9.4 -0.6 0 -1.6 0.4 -2.2 0.8 -2.2 1.4 -3.3 -0.3 -3.4 -5.1 l-0.1 -4.7 -1.2 4.9 c-0.9 3.8 -1.9 5.4 -4.1 6.7 -4 2.4 -4.2 2.3 -4.8 -1z m4.1 -5.3 c-0.1 -7.3 -1.7 -9.1 -1.7 -2 -0.1 3.4 0.3 6.2 0.8 6.2 0.6 0 0.9 -1.9 0.9 -4.2z"/>
  <path d="M112.7 142.6 c-0.7 -1.9 1.1 -3.2 2.4 -1.9 0.6 0.6 0.5 1.4 -0.4 2.2 -1.2 0.9 -1.6 0.8 -2 -0.3z"/>
  <path d="M106.5 131.1 c0.5 -1.5 -0.1 -2.4 -2.5 -3.6 -2.9 -1.5 -3.1 -1.5 -3.9 0.7 -1.5 3.9 -2.2 0 -1.9 -10.7 0.2 -6.8 0.7 -10 1.6 -10.3 0.6 -0.2 1.2 0.3 1.2 1.2 0 1 0.9 1.6 2.1 1.6 1.5 0 1.9 0.4 1.5 1.6 -0.4 1.1 -0.2 1.5 0.7 1.1 1.5 -0.6 4.6 1.8 7 5.6 2.2 3.5 1.5 8.7 -1.4 9.4 -1.1 0.3 -2.2 1.6 -2.5 2.9 -0.3 1.3 -1 2.4 -1.6 2.4 -0.5 0 -0.7 -0.9 -0.3 -1.9z"/>
  <path d="M78.7 124.4 c-0.8 -0.8 0.1 -2.4 1.4 -2.4 0.5 0 0.9 0.7 0.9 1.5 0 1.5 -1.2 2 -2.3 0.9z"/>
  <path d="M63.7 120.1 c-0.3 -1.1 -0.1 -2.3 0.3 -2.6 1.4 -0.8 2.2 1.3 1.2 3.1 -0.8 1.4 -1 1.4 -1.5 -0.5z"/>
  <path d="M83.3 119.3 c-0.7 -0.2 -1.3 -0.9 -1.3 -1.5 0 -1.6 -2.8 -3.9 -3.5 -2.8 -1.2 1.9 -2.2 0.1 -1.7 -3 0.4 -2.6 -0.5 -3.7 -2.3 -2.7 -0.2 0.1 -1.2 -0.8 -2 -2 -1.1 -1.6 -1.3 -2.8 -0.7 -3.9 0.8 -1.4 1.1 -1.4 2.6 0.7 l1.6 2.3 0 -2.3 c0 -2 0.2 -2.1 1.5 -1.1 0.8 0.7 2.1 1 3 0.7 0.8 -0.4 1.7 -0.1 2.1 0.5 0.4 0.7 0.3 0.8 -0.4 0.4 -0.7 -0.4 -1.2 -0.2 -1.2 0.3 0 1.4 1.3 1.4 2.7 0 2.2 -2.2 4.8 2.2 5.1 8.5 0.2 3.7 0 5.6 -0.7 5.2 -0.5 -0.4 -1.2 -0.2 -1.6 0.4 -0.7 1.1 -1.3 1.1 -3.2 0.3z"/>
  <path d="M114.2 117.3 c-2.4 -3 -2.1 -4.3 1.2 -4.3 3.4 0 4.6 1.7 3.2 4.6 -1.4 3 -1.7 3 -4.4 -0.3z"/>
  <path d="M57.6 106.8 c-0.5 -2.7 -0.5 -6.5 0 -8.5 0.8 -3.6 0.8 -3.7 1.2 -1 0.2 1.6 1 3.1 1.8 3.4 0.7 0.3 1.2 0.9 0.9 1.3 -0.3 0.5 0.4 0.6 1.5 0.3 2.2 -0.6 2.5 0.4 1 4.1 -1.2 3.3 -3 3.4 -3 0.1 0 -3.9 -1.8 -2.9 -2.2 1.3 l-0.4 3.7 -0.8 -4.7z"/>
  <path d="M198 66 c0 -3.6 0.3 -4 2.5 -4 2.3 0 2.5 0.4 2.5 4 0 3.6 -0.2 4 -2.5 4 -2.2 0 -2.5 -0.4 -2.5 -4z"/>
  <path d="M199 51.7 c0 -3.7 2.1 -7.3 3.4 -6 0.3 0.4 0.6 -0.1 0.6 -1.1 0 -1 0.5 -1.4 1.1 -1 1 0.6 0.7 4.9 -0.8 9.8 -0.4 1.5 -0.7 1.6 -1.4 0.5 -0.8 -1.2 -1.1 -1.2 -1.9 0.1 -0.7 1.1 -1 0.5 -1 -2.3z"/>
  <path d="M136.8 36.4 c-1 -0.3 -1.8 -1.4 -1.8 -2.4 0 -1.6 -0.5 -1.8 -3 -1.4 -3.8 0.8 -8 -0.3 -8 -2.1 0 -0.9 -1.4 -1.5 -4.2 -1.7 l-4.3 -0.3 0.3 -8.7 0.4 -8.8 -3.6 0 -3.5 0 -0.7 6 -0.7 6 -3.3 0 c-2.4 0 -3.4 -0.5 -3.4 -1.5 0 -1 -1 -1.5 -3.4 -1.5 -1.8 0 -5.6 -1 -8.5 -2.1 l-5.1 -2.2 0 -4.7 c0 -2.6 0.3 -6.2 0.6 -7.9 0.6 -2.8 1 -3.1 4.5 -3.1 l3.9 0 0 4.5 c0 4 0.3 4.7 2.6 5.5 3.9 1.5 4.4 1.3 4.4 -2.2 0 -6.3 0.9 -7.8 4.6 -7.8 2.4 0 3.4 0.5 3.4 1.5 0 0.8 0.5 1.5 1 1.5 0.6 0 1.3 -0.7 1.6 -1.5 0.4 -1 2 -1.5 5 -1.5 4 0 4.4 0.2 4.4 2.5 0 1.4 0.5 2.5 1 2.5 0.6 0 1 -0.7 1 -1.5 0 -2.1 2.8 -1.9 3.3 0.3 0.4 1.3 0.5 1.1 0.6 -0.5 0.1 -1.6 0.7 -2.3 2.2 -2.3 1.1 0 1.7 0.4 1.4 1 -0.3 0.5 -0.1 1.8 0.4 2.7 0.9 1.6 1 1.6 1.1 -0.4 0 -1.2 0.4 -2.4 0.9 -2.8 1.3 -0.8 2.2 2.6 2.3 8.7 0.1 4.8 0.2 5 1.1 2.4 1.2 -3.5 2.7 -1.8 2.7 3.1 0 4.8 2.2 12.2 3.8 12.8 0.7 0.3 2.1 -0.2 2.9 -1.1 1.3 -1.2 1.4 -2.9 0.9 -8.6 -0.7 -7.9 -1.7 -9.8 -5.2 -9.8 -2.9 0 -3.1 -1.5 -0.5 -3 2.9 -1.5 7.7 2.9 8.9 8.3 0.6 2.4 1 3.2 1.1 1.9 0.1 -3.1 -2.2 -8.3 -4.7 -10.6 -1.6 -1.3 -3 -1.7 -5.2 -1.3 -2.7 0.6 -3 0.4 -3 -1.8 0 -1.4 0.3 -2.5 0.6 -2.5 0.3 0 3.5 1.3 7 3 4.3 2 6.4 3.5 6.4 4.7 0 1.3 0.2 1.5 0.9 0.5 0.9 -1.4 4.3 -0.3 17.4 5.7 7.1 3.2 9.2 5.7 3.5 4 -4.1 -1.1 -3.8 -1.2 -3.2 0.4 0.3 0.8 1.4 1.3 2.5 1.3 1.9 -0.1 2.1 0.6 2.4 6.7 0.3 6.3 0.2 6.7 -2 7.3 -4.5 1.1 -7 0.1 -7.3 -2.9 -0.2 -1.6 0 -3.6 0.4 -4.5 0.7 -1.8 0.7 -3.5 -0.2 -8.9 -0.3 -2.4 -1 -3.3 -2.4 -3.3 -2.6 0 -3.3 1.5 -1.5 3.3 1 1 1.5 3.5 1.5 7.1 0 5.6 0 5.6 -3 5.6 -2.3 0 -3 0.4 -3 2 0 1.5 -0.7 2 -2.9 2 -1.6 0 -3.1 0.4 -3.3 0.9 -0.3 1.1 -11.4 2.2 -14 1.5z m8.5 -2.1 c0.3 -0.5 -1 -0.8 -2.9 -0.9 -2.1 0 -3 0.3 -2.2 0.8 1.6 1 4.5 1 5.1 0.1z m-9.9 -9.7 c-0.3 -1.5 -0.8 -2.5 -1.1 -2.3 -0.2 0.3 -0.1 1.7 0.3 3.1 0.3 1.5 0.8 2.5 1.1 2.3 0.2 -0.3 0.1 -1.7 -0.3 -3.1z m23.1 -6.1 c-0.8 -3.9 -1.5 -7.3 -1.5 -7.7 0 -0.5 -0.4 -0.8 -1 -0.8 -0.5 0 -1 1.2 -1 2.6 0 1.4 0.4 2.3 0.9 2 0.5 -0.3 1.2 1.5 1.6 4 0.7 4.9 1.5 7.7 2.1 7.2 0.2 -0.2 -0.3 -3.5 -1.1 -7.3z m-33.8 -0.7 c-0.2 -1.3 -0.4 -0.3 -0.4 2.2 0 2.5 0.2 3.5 0.4 2.3 0.2 -1.3 0.2 -3.3 0 -4.5z"/>
  <path d="M170 12 l-3.5 -1.9 2.8 -0.1 c1.5 0 2.7 0.5 2.7 1 0 0.6 0.9 1 2 1 1.1 0 2 0.5 2 1 0 1.5 -2.1 1.1 -6 -1z"/>
  <path d="M73.5 11 c-0.3 -0.5 -1.4 -1 -2.5 -1 -2.1 0 -3 -1.9 -3 -6.6 0 -3.4 0 -3.4 4.5 -3.4 3 0 4.5 0.4 4.5 1.3 0 0.7 0.9 1.8 2 2.5 2.7 1.6 2.7 4.6 0 3.9 -1.1 -0.3 -1.8 -0.1 -1.4 0.4 0.3 0.5 1.2 0.9 2 0.9 0.8 0 1.4 0.7 1.4 1.5 0 1.7 -6.5 2.2 -7.5 0.5z"/>
  <path d="M160 7.2 c-3.1 -1.1 -3.9 -1.7 -2.6 -2 1 -0.2 2.3 0.1 2.9 0.7 0.6 0.6 1.9 1.1 2.9 1.1 1 0 1.8 0.5 1.8 1 0 0.6 -0.1 1 -0.2 0.9 -0.2 0 -2.3 -0.8 -4.8 -1.7z"/>
  <path d="M56.8 4.7 c-1.6 -0.6 -2.8 -1.9 -2.8 -2.9 0 -2.4 3.9 -2.4 8.5 0.2 1.9 1.1 3.5 1.6 3.5 1.1 0 -0.5 -1.2 -1.4 -2.7 -1.9 l-2.8 -1 3.3 -0.1 c2.9 -0.1 3.2 0.2 3.2 2.9 0 2.8 -0.2 3 -3.7 2.9 -2.1 -0.1 -5 -0.6 -6.5 -1.2z"/>
  <path d="M146 1 c-1.2 -0.8 -1.1 -1 0.8 -1 1.2 0 2.2 0.5 2.2 1 0 1.3 -1.1 1.3 -3 0z"/>
 </g>
 <g fill="#a73d40">
  <path d="M2.4 692.3 c-0.3 -1.3 -1 -2.3 -1.5 -2.3 -0.5 0 -0.9 -1.6 -0.9 -3.5 0 -1.9 0.4 -3.5 1 -3.5 1.2 0 1.1 -10.3 -0.2 -11.1 -0.5 -0.3 -0.5 -2.2 -0.1 -4.5 0.5 -2.1 0.5 -6.4 0.2 -9.4 -0.4 -3 -0.7 -145 -0.8 -315.5 -0.1 -288.2 0 -310.2 1.6 -312.4 1.6 -2.4 1.6 -2.4 2.4 -0.3 0.4 1.1 0.5 3.3 0 4.9 -0.9 3.3 -0.3 6.6 1 5.8 0.5 -0.4 0.9 -1.7 0.9 -3.1 0 -1.3 0.5 -2.4 1 -2.4 0.6 0 1 0.6 0.9 1.3 -0.1 0.6 0 2.6 0.1 4.2 0.2 1.9 0.5 0.8 1 -3 1.9 -14.5 2 -16.3 0.5 -16.9 -1 -0.3 -1.5 0.1 -1.5 1.3 0 1.2 -0.9 2 -2.5 2.3 -3 0.6 -3.4 -0.7 -0.5 -1.5 1.1 -0.3 2 -1.2 2 -2.1 0 -1.2 -1 -1.6 -3.5 -1.6 l-3.5 0 0 -9.5 0 -9.5 27.1 0.1 c22.4 0 27.7 0.3 30.1 1.5 1.7 0.9 3.2 1.3 3.5 1 0.3 -0.2 1.6 -0.1 2.9 0.4 3 1.2 3.2 -0.3 0.1 -1.8 -2 -0.9 -1.7 -1.1 2.1 -1.1 4.2 -0.1 4.2 -0.1 4.2 3.4 0 2.6 0.4 3.5 1.8 3.7 3.1 0.2 3.7 0.3 4.7 0.9 0.6 0.4 2.4 0.9 4 1.2 2.4 0.5 2.1 0.3 -1.3 -1.3 -4.9 -2.3 -5.5 -4 -1.1 -4 3.7 0 5.9 2 5.9 5.5 0 1.6 0.7 2.8 1.7 3.1 1 0.3 3.2 1.2 4.8 2 1.7 0.8 4.1 1.6 5.3 1.7 1.2 0.1 2.2 0.4 2.2 0.8 0 0.4 3.3 2 7.3 3.5 3.9 1.5 7.4 3.1 7.5 3.6 0.2 0.4 1.2 0.8 2.3 0.8 1.6 0 1.9 -0.7 1.9 -4 0 -2.2 0.5 -4 1.1 -4 0.6 0 0.9 1.6 0.8 4 -0.4 4.7 0 5.1 6.6 7.4 2.8 1 6.9 2.7 9.3 3.7 7.4 3.3 9.4 3.4 12.5 0.3 1.5 -1.5 2.5 -3 2.1 -3.3 -0.3 -0.3 -1.5 0.6 -2.6 2.2 -2.3 3.2 -3.8 3.5 -3.8 0.7 0 -1.1 0.7 -2 1.5 -2 0.9 0 1.5 -0.9 1.5 -2.5 0 -2.9 2.6 -3.5 3.3 -0.8 0.4 1.7 0.5 1.7 0.6 0.1 0.1 -2.2 3.1 -2.4 3.1 -0.3 0 0.8 0.9 1.5 2 1.5 1.6 0 2 0.7 2 3.5 0 3.2 -0.2 3.5 -3.1 3.5 -1.7 0 -3.7 0.7 -4.5 1.5 -0.9 0.8 -1.1 1.5 -0.5 1.5 0.6 0 3.5 1.1 6.5 2.5 3 1.4 6 2.5 6.5 2.5 0.6 0 1.1 0.5 1.1 1 0 0.6 1.1 1 2.5 1 1.4 0 2.5 -0.4 2.5 -1 0 -0.5 -0.7 -1 -1.5 -1 -1.2 0 -1.5 -1.3 -1.5 -5.5 0 -4.6 0.3 -5.5 1.8 -5.5 2.4 -0.1 5.3 -2.5 4.2 -3.6 -1.2 -1.2 0 -9.4 1.4 -9.4 0.6 0 2.2 0.7 3.4 1.6 1.3 0.8 2.2 1.1 2.2 0.4 0 -1.3 -10.5 -6 -13.6 -6 -1.3 0 -2.4 0.5 -2.4 1 0 0.6 1.2 1 2.8 1 3.1 0 5.5 4 4.6 7.8 -0.6 2.1 -3.4 3.2 -3.4 1.2 0 -0.5 -1.1 -1 -2.5 -1 -1.8 0 -2.5 -0.5 -2.5 -2 0 -1.1 -0.4 -2 -0.9 -2 -1 0 -3 -7.4 -2.6 -9.8 0.3 -2.1 1 -2 12 3 11.1 4.9 11.3 5.1 11.7 9.6 0.3 3.5 0.4 3.4 0.8 -1.1 l0.5 -4.9 -10 -4.8 c-5.5 -2.6 -13.9 -6.4 -18.7 -8.5 -4.9 -2.1 -8.8 -3.9 -8.8 -4.2 0 -0.2 3.9 -0.3 8.8 -0.2 8.1 0.2 9.4 0.6 18.7 4.9 5.5 2.6 11 5.1 12.3 5.4 1.2 0.4 2.2 1.2 2.2 1.7 0 1.4 -0.4 1.2 -8.1 -2.7 -3.9 -1.9 -7.3 -3.3 -7.6 -3.1 -0.6 0.6 28.3 14.7 30.2 14.7 1.1 0 1.4 0.8 0.9 3.4 -0.9 5.7 -1 20.7 -0.2 21.2 0.4 0.3 0.8 -0.6 0.8 -2 0 -1.4 0.4 -2.6 0.8 -2.6 0.5 0 0.7 1.9 0.5 4.3 -1.3 15.9 -1.5 29.7 -0.3 29.7 1.6 0 0.9 14.4 -0.7 17.5 -1.3 2.4 -3.6 24.6 -2.7 26.8 0.7 2 -1.4 27.1 -2.6 30.3 -0.5 1.3 -1.2 5.5 -1.5 9.1 -0.3 3.6 -0.8 7 -1.1 7.5 -0.3 0.4 -0.6 2.6 -0.6 4.9 0 3.2 -0.4 3.9 -1.7 3.6 -0.9 -0.2 -1.5 -0.8 -1.4 -1.5 0.3 -1.4 -8.7 -10.6 -14.9 -15 -2.5 -1.8 -6.4 -4 -8.7 -4.9 -3.6 -1.4 -4.1 -2 -4.1 -4.7 0 -1.7 -0.2 -4.9 -0.5 -7.1 -0.4 -3.2 -0.3 -3.5 0.4 -1.5 0.8 2.1 0.9 1.8 1 -2.1 0.1 -2.5 0.7 -6.7 1.5 -9.2 0.8 -2.6 1.1 -4.9 0.8 -5.1 -0.9 -0.5 -24 -7.7 -26.9 -8.3 -2.2 -0.5 -2.3 -0.3 -2.3 7.1 0 6.1 0.3 7.6 1.5 7.6 1.9 0 2 3.4 0.1 4.9 -1.1 0.9 -1.3 3.2 -0.9 10.1 0.4 6 0.2 9 -0.5 9 -0.6 0 -1.3 -0.8 -1.5 -1.7 -0.3 -1.2 -0.5 -0.9 -0.6 0.8 -0.1 2.6 -5.5 9.9 -7.3 9.9 -1.1 0 -0.9 -19 0.4 -27.5 2 -14 3 -19 4 -20.3 0.6 -0.7 0.9 -1.4 0.7 -1.6 -0.5 -0.4 -31.3 -9.6 -32.2 -9.6 -0.3 0 -0.6 3.9 -0.6 8.7 -0.1 4.9 -0.6 14.7 -1.2 21.8 -1.2 14.3 -2.4 37.5 -2.4 44.4 l0 4.5 8.5 1.3 c4.7 0.7 10.4 1.7 12.7 2.1 4 0.9 4.2 0.8 5.2 -2 0.6 -1.5 1.6 -3.1 2.4 -3.4 0.8 -0.3 2.2 -2.2 3.2 -4.3 1.6 -3.7 8.5 -8.5 8.5 -6 0 0.6 0.7 0.9 1.5 0.5 0.8 -0.3 1.4 0 1.2 0.7 -0.1 0.7 0.8 1.1 2.3 1 1.4 -0.1 4.5 -0.4 6.8 -0.6 2.4 -0.2 4.8 -1 5.3 -1.8 0.6 -1 0.9 -0.8 0.9 1 0 1.9 0.3 2.1 1.4 1.2 1.1 -0.9 1.7 -0.9 2.8 0.3 1.1 1.2 1.6 1.1 3.5 -1.2 l2.1 -2.7 1.2 3 c0.8 2.2 1.3 2.6 2 1.6 0.7 -1.2 1.4 -1.2 3.8 -0.2 2.3 1 3.4 1 4.9 0.1 1.4 -0.9 3 -0.8 7.3 0.7 8.5 2.9 8.9 3.3 9.1 8.5 0.1 2.6 0.6 4.5 1.1 4.2 0.4 -0.3 0.8 0 0.8 0.5 0 0.6 -0.4 1.1 -0.9 1.1 -0.6 0 -0.7 1.6 -0.4 3.5 0.5 3.1 0.3 3.5 -1.6 3.5 -1.8 0 -2.1 -0.6 -2.1 -4.1 0 -2.3 -0.5 -5.9 -1.1 -7.9 -1 -3.2 -1.7 -4 -4.8 -4.7 -2 -0.4 -7.1 -0.7 -11.3 -0.5 l-7.8 0.4 0 4.9 0 4.9 -3.5 0 c-3.5 0 -3.5 0 -3.5 -4.5 0 -4.4 -0.1 -4.5 -3.2 -4.6 -10 -0.5 -15.8 -0.3 -15.8 0.4 0 0.4 -1.1 0.7 -2.3 0.7 -3.4 0 -5.4 4.5 -3.1 6.8 1.2 1.2 1.5 2.7 1.1 6.4 -0.3 2.6 -0.2 4.8 0.3 4.8 0.4 0 0.8 4.6 0.7 10.3 l-0.2 10.2 -5.2 0 c-4.4 -0.1 -5.3 0.2 -5.3 1.6 0 1 -0.4 2.1 -1 2.4 -0.5 0.3 -1 1.5 -1 2.5 0 1 -0.6 2.5 -1.3 3.2 -0.7 0.7 -1.9 2.8 -2.5 4.7 -1 3 -0.9 4 0.8 7.6 2.6 5.3 5.6 8.3 7.1 6.8 0.5 -0.5 1.1 -5.3 1.2 -10.6 0.1 -5.2 0.6 -9.9 1 -10.4 0.5 -0.4 3.5 -0.8 6.6 -0.8 3.5 0 6.7 -0.7 8.2 -1.6 1.3 -0.9 5.6 -1.9 9.6 -2.2 8.1 -0.8 13.7 -2.5 11.3 -3.6 -3.4 -1.4 -6 -3.7 -6 -5.2 0 -0.9 -0.9 -1.9 -2 -2.2 -1.6 -0.4 -2 -1.4 -2 -5.2 0 -3.6 0.5 -5.1 2.6 -7.2 2.6 -2.6 2.7 -2.6 13.7 -2 6.2 0.3 12.7 1.2 14.6 1.9 2.7 1 3.5 1 3.8 0.1 0.6 -1.7 4 -1.6 4.6 0.1 0.3 0.9 -1.3 2.5 -4.3 4.5 -5.1 3.3 -6.7 3.6 -6.2 1.4 0.5 -2.4 -12.3 -5.7 -17.8 -4.6 -3.7 0.7 -3.9 1.7 -0.4 1.9 3 0.2 5.9 3.5 4.1 4.6 -0.7 0.5 -0.3 0.8 1.1 0.8 1.2 0 2.2 0.5 2.2 1.1 0 1.2 -4.5 0.8 -8.5 -0.7 -1.2 -0.4 -0.9 0.2 1 1.6 5 3.9 5.2 4.3 2 3.6 -2.5 -0.5 -2.7 -0.4 -1.2 0.5 2.4 1.4 7.5 0.4 10.2 -2 1.1 -1 3 -2.2 4.3 -2.6 1.9 -0.6 2.2 -0.3 2.2 2.4 0 3.8 1.3 4.6 4.4 2.6 2.3 -1.5 2.4 -1.5 2.9 1.7 0.6 3.8 -2 36.3 -3.1 39.2 -0.7 1.7 -0.9 1.7 -2.4 0.2 -1 -0.9 -2.1 -1.6 -2.5 -1.5 -0.4 0.1 -3.3 -0.9 -6.3 -2.4 -5 -2.3 -5.6 -2.4 -6.8 -0.9 -0.7 0.9 -1 2.2 -0.8 2.9 0.6 1.5 -2.4 3.3 -5.6 3.3 -1.3 0 -3.4 -0.9 -4.8 -2 -1.4 -1.1 -2.9 -2 -3.3 -2 -0.4 0 -1.8 -0.9 -3 -2.1 -1.2 -1.1 -3.1 -2.5 -4.2 -3 -1.1 -0.5 -4 -2.1 -6.4 -3.4 -2.4 -1.4 -4.6 -2.5 -4.8 -2.5 -0.8 0 -0.1 3.3 1.2 5.3 1.8 2.9 0.9 4.3 -3.5 5.1 -11.2 2 -10.4 2.1 -13.9 -2 -6.9 -7.7 -7.7 -13.9 -3 -22 2.1 -3.8 2.6 -5.2 1.5 -4.8 -2.2 0.9 -2 -0.5 0.4 -2.4 2.5 -2.1 3.9 -9.6 2.7 -14.2 -0.5 -1.9 -0.7 -5.4 -0.4 -7.8 0.4 -3.7 0.2 -4.3 -1.7 -4.7 -3.4 -0.7 -23.6 -4.5 -24.3 -4.5 -0.3 0 -0.3 2 -0.1 4.5 0.3 2.5 0.2 4.8 -0.3 5.1 -0.5 0.3 -0.9 4.7 -1 9.7 0 9.4 -1.3 25.4 -2 26.1 -0.2 0.2 -1.8 0.7 -3.5 1 -3.1 0.7 -3.2 0.6 -3.6 -3.3 -0.2 -2.1 0 -3.8 0.3 -3.5 0.4 0.2 1 -6.4 1.4 -14.6 0.4 -8.3 1.3 -17.5 1.9 -20.4 l1.3 -5.4 -10.6 -1.6 c-5.8 -1 -13.9 -2.4 -18 -3.2 -4 -0.8 -7.5 -1.3 -7.6 -1.2 -0.1 0.2 -0.5 8.5 -0.9 18.6 l-0.7 18.2 2.3 1 2.3 0.9 -2.5 0 c-2.5 0.1 -2.5 0.2 -2.5 8.7 0 7.8 0.2 8.8 2 9.5 1.9 0.7 1.9 0.8 -0.2 0.8 -2.8 0.1 -3.1 2.1 -0.3 2.1 1.2 0 2 0.7 2 1.6 0 1.4 -0.3 1.4 -1.5 0.4 -1.3 -1.1 -1.5 -0.7 -1.5 2.3 0 2 -0.4 3.8 -0.8 4.1 -1.3 0.8 -0.7 11.3 0.7 13 1.1 1.2 0.9 2.1 -0.7 4.3 -3.6 5.3 -4.8 11.2 -8.2 42.8 -1.1 10.5 -2.1 20.8 -2.1 23 0 2.2 -0.3 6.6 -0.6 9.8 -0.5 5.2 -0.7 5.7 -2.5 5.1 -1.3 -0.4 -1.8 -0.2 -1.4 0.4 0.3 0.6 -0.9 1.5 -2.7 2.2 -1.9 0.7 -2.7 1.4 -1.9 1.7 0.8 0.3 1.9 0 2.5 -0.6 1.9 -1.9 5.7 -1.3 5.7 0.8 0 1.4 -1.6 2.5 -6.1 4.1 -4.7 1.8 -5.7 2.5 -4.5 3.2 0.9 0.5 2.1 0.6 2.6 0.3 0.6 -0.3 1 -0.2 1 0.4 0 1.2 -3.3 3.1 -5.2 3.1 -0.8 -0.1 -0.6 -0.6 0.6 -1.5 2.4 -1.8 0.7 -2 -2.9 -0.3 -2.4 1.1 -2.5 1.3 -2.5 11.7 0 5.8 -0.4 20.3 -0.9 32.1 -0.6 11.8 -1.2 29.2 -1.6 38.5 -0.3 9.4 -1 28 -1.5 41.5 -0.5 13.5 -1 28.1 -1 32.5 0.1 7.4 0.2 7.8 1.5 5.5 0.9 -1.8 1 -2.9 0.3 -3.7 -0.6 -0.7 -0.7 -1.3 -0.2 -1.3 0.5 0 1 -2.5 1.1 -5.6 0.2 -3.1 0.8 -6.2 1.4 -7 0.8 -1 0.8 -2.3 -0.1 -4.8 -0.8 -2.4 -0.8 -4.1 -0.1 -5.4 0.7 -1.3 0.7 -2.2 0 -2.9 -0.8 -0.8 -0.7 -1.8 0.1 -3.4 1.2 -2.2 1.6 -6.2 1.9 -21.4 0.1 -7.7 1.2 -10.8 3.2 -8.8 1.4 1.4 4.9 0 4.9 -2 0 -0.7 -0.4 -0.6 -1 0.3 -0.7 1.1 -1 0.2 -1 -3.2 0 -2.6 0.5 -5 1.2 -5.4 0.7 -0.5 0.8 -0.2 0.3 0.7 -0.5 0.9 -0.5 1.1 0.2 0.4 1.4 -1.4 2.6 -16.5 1.3 -16.5 -0.6 0 -1 -0.8 -1 -1.7 0 -1.4 0.2 -1.5 0.9 -0.5 0.4 0.8 1.1 -3.8 1.5 -11 1 -18.6 2.3 -22.4 4.6 -12.8 0.8 3.3 1 8.4 0.6 14.8 -0.4 5.3 -0.9 31.5 -1.1 58.2 -0.2 26.7 -0.6 49.2 -0.9 50 -0.8 2.1 -2.6 26.5 -3.3 44.5 -0.6 15.8 -1.2 17.5 -5.5 17.5 -4.4 0 -6.6 4.3 -2.8 5.5 2.8 0.9 12.8 -0.5 14.3 -1.9 0.7 -0.7 2.7 -1.8 4.5 -2.4 2.8 -0.9 3.9 -0.9 6.3 0.4 1.7 0.8 3.3 2.2 3.6 3 0.5 1.3 0.7 1.3 1.4 0.2 0.7 -1 1.1 -1 1.7 -0.1 1 1.6 7.7 0.6 9.3 -1.3 1.7 -2.1 9.5 -1.8 10.3 0.3 0.4 1.1 0 2.1 -1.1 2.7 -3 1.8 -7.7 3.4 -10 3.5 -1.3 0.1 -2.3 0.6 -2.3 1.1 0 0.6 -0.9 1 -2 1 -1.1 0 -3.6 0.9 -5.7 2 -2.1 1.1 -7.8 3.3 -12.8 5 -4.9 1.8 -9.4 3.6 -10 4.1 -1.5 1.5 1.7 1 5 -0.7 1.7 -0.9 4.8 -2.2 7 -2.9 5.7 -1.9 15.6 -5.4 18 -6.4 4.9 -2.2 11.2 -4.1 13.2 -4.1 2 0 2.1 0.5 2.5 17.3 0.3 10.2 0.1 17.7 -0.5 18.5 -1.1 1.4 -10.3 5.9 -20.2 9.7 -3.8 1.5 -9.7 4 -13 5.5 -3.3 1.5 -8.4 3.6 -11.3 4.6 -6.2 2.1 -10.7 5.7 -8 6.2 1.1 0.2 2 1.7 2.4 4 0.4 2 0.9 3.1 1.1 2.4 0.6 -1.7 6 -7 8.5 -8.3 1.6 -0.9 1.8 -1.3 0.7 -2 -1 -0.6 0 -1.4 3.4 -2.9 3.6 -1.6 5.2 -1.9 6.1 -1.1 1 0.9 1.5 0.7 1.9 -0.9 0.3 -1.1 1 -2 1.6 -2 0.7 0 0.7 0.8 0 2.6 -1.3 3.7 -0.4 4.2 1.3 0.7 1.5 -3.2 5.7 -5.5 11 -6 2.1 -0.1 5.5 -1.2 7.5 -2.3 5.9 -3.2 9.6 -2.3 7.4 1.8 -0.7 1.3 -0.7 2.2 0.1 3 1.5 1.5 -0.4 3.8 -3.7 4.6 -1.4 0.4 -2.5 1.3 -2.5 2.1 0 0.9 -1.4 1.7 -4 2.1 -2.2 0.4 -4 1 -4 1.5 0 0.5 -0.7 0.9 -1.5 0.9 -0.8 0 -1.5 -0.7 -1.5 -1.6 0 -0.8 -0.4 -1.2 -1 -0.9 -0.5 0.3 -1.9 0.1 -3.1 -0.6 -1.5 -0.8 -1.9 -0.8 -1.5 0 0.5 0.7 -0.2 1.1 -1.7 1.1 -1.9 0 -2.6 0.7 -3.2 3.3 -0.4 1.7 -0.7 3.5 -0.6 4 0 0.4 -0.3 0.7 -0.9 0.7 -0.5 0 -1 0.7 -1 1.6 0 0.8 -0.4 1.2 -1 0.9 -0.5 -0.3 -1 0.3 -1 1.5 0 2.3 -4 4.5 -5.1 2.7 -0.4 -0.5 -1.2 -0.6 -1.8 -0.3 -0.6 0.4 -2.9 0.8 -5.1 0.8 -3.2 0 -4 0.4 -4 1.9 0 1.9 -4 5.3 -5 4.1 -0.3 -0.4 -1.8 -0.8 -3.5 -0.9 -8.4 -0.5 -8 -0.2 -7.7 -7.1 0.3 -4 0 -6.2 -0.7 -6.2 -0.6 0 -1.2 -1.2 -1.2 -2.7 l-0.1 -2.8 -0.8 3 c-0.4 1.7 -0.8 5.8 -0.9 9.1 0 3.4 -0.4 7.6 -0.7 9.4 -0.7 3.5 -3.1 5.1 -4.5 2.9 -0.6 -1 -1.2 -0.5 -2.3 2.1 -1.4 3.3 -1.6 3.4 -2.2 1.3z m5.3 -6.9 c0.4 -1 -0.1 -2.2 -1.2 -3 -2.3 -1.7 -2.9 -1.2 -2.1 2.1 0.7 2.8 2.4 3.3 3.3 0.9z m26.7 -12 c0.9 -2.3 0.7 -4.6 -0.3 -4 -1.1 0.7 -2.1 5.6 -1.1 5.6 0.4 0 1.1 -0.7 1.4 -1.6z m-17.8 -57.7 c0.4 -5.4 0.3 -7.7 -0.5 -7.7 -0.7 0 -1.1 2.8 -1.1 8.2 0 4.5 0.2 7.9 0.5 7.7 0.2 -0.3 0.7 -4 1.1 -8.2z m0.1 -29.4 c-0.2 -1.6 -0.4 -0.3 -0.4 2.7 0 3 0.2 4.3 0.4 2.8 0.2 -1.6 0.2 -4 0 -5.5z m1.9 -23 c0.2 -6.5 0 -9.3 -0.6 -8.3 -1.1 1.6 -1.4 19.7 -0.4 18.7 0.4 -0.3 0.8 -5 1 -10.4z m1.3 -26 c0.1 -6 -0.2 -9.3 -0.8 -9.3 -0.7 0 -1.1 4 -1 11.3 0 13.2 1.5 11.6 1.8 -2z m-16.2 -44.5 c-0.2 -1.8 -0.4 -0.6 -0.4 2.7 0 3.3 0.2 4.8 0.4 3.3 0.2 -1.5 0.2 -4.2 0 -6z m1 -28.5 c-0.2 -1.6 -0.4 -0.5 -0.4 2.2 0 2.8 0.2 4 0.4 2.8 0.2 -1.3 0.2 -3.5 0 -5z m2 -51 c-0.3 -1 -0.5 -0.2 -0.5 1.7 0 1.9 0.2 2.7 0.5 1.8 0.2 -1 0.2 -2.6 0 -3.5z m28.8 -141.9 c-2.3 -2.3 -3.2 -0.8 -0.9 1.7 1 1.1 2 1.6 2.2 1 0.2 -0.6 -0.4 -1.8 -1.3 -2.7z m133.3 -22.6 c1.9 -1.9 1.4 -2.8 -1.7 -2.8 -3.4 0 -5.1 1.8 -3 3.1 1.9 1.2 3.3 1.1 4.7 -0.3z m2.6 -7.7 c0.3 -0.4 -1.3 -1.4 -3.4 -2.1 -2.2 -0.7 -4 -1.7 -4 -2.2 0 -0.4 -0.4 -0.8 -1 -0.8 -2.1 0 -0.9 1.7 2.8 3.8 4.1 2.4 4.8 2.6 5.6 1.3z m-23.6 -1.9 c0.2 -0.8 -0.8 -1.2 -3 -1.2 -3.1 0.1 -3.2 0.1 -1.3 1.5 2.1 1.7 3.7 1.5 4.3 -0.3z m9.2 -1.2 c1 0 2.5 -0.9 3.3 -2 1.4 -2 4.7 -2.1 9.8 -0.2 1.4 0.6 3.1 0.7 3.8 0.3 0.7 -0.4 -1.4 -1.5 -5.1 -2.6 -3.5 -1 -5.6 -2 -4.8 -2.2 0.8 -0.2 2.4 -1.7 3.5 -3.3 1 -1.6 2.3 -2.6 2.7 -2.4 0.4 0.3 0.8 0 0.8 -0.5 0 -1.3 -1.7 -1.4 -2.4 -0.2 -0.3 0.4 -2.5 1.4 -4.9 2 -2.4 0.7 -6 2.7 -7.9 4.4 -3.3 3 -3.4 3.4 -2.5 6.7 0.7 2.4 1.2 2.9 1.4 1.8 0.3 -1 1.3 -1.8 2.3 -1.8z m22.9 -2.2 l3.4 -3.8 -3.6 -1.5 c-5.3 -2.2 -7.6 -2 -7 0.6 0.5 1.8 1.1 2 3.9 1.6 3.7 -0.6 4.8 1.1 1.4 2 -1.3 0.4 -2 1.4 -2 3.1 0 1.4 0.1 2.3 0.3 2.1 0.1 -0.2 1.7 -2.1 3.6 -4.1z m2.1 -13.4 c0 -3.1 -0.2 -3.5 -1.5 -2.4 -0.8 0.7 -1.5 2.3 -1.5 3.6 0 1.5 0.6 2.4 1.5 2.4 1.1 0 1.5 -1.1 1.5 -3.6z m-92.2 -42.1 c-0.3 -8.7 1.5 -53.8 2.2 -55.8 0.6 -1.5 1 -4.7 1 -7.3 0 -4.5 1 -9.9 2.4 -13.3 0.6 -1.3 -1.9 -2.3 -14.6 -5.8 -8.4 -2.3 -16.3 -4.7 -17.6 -5.2 -4.1 -1.6 -4.5 -1.2 -3.9 4.4 0.2 2.8 0.1 7.7 -0.3 10.7 -0.5 3 -1.1 10.7 -1.4 17 -0.3 6.3 -1 19 -1.7 28.2 -0.9 13.3 -0.9 17.4 0.1 19.8 0.7 1.6 1.5 3 1.9 3 2 0 30.5 5.1 30.9 5.5 0.9 0.8 1.1 0.6 1 -1.2z m94.6 -78 c0.4 -0.9 0.3 -2 -0.1 -2.4 -0.4 -0.4 -6.9 -2.6 -14.3 -4.9 -7.4 -2.3 -22 -7.1 -32.5 -10.7 -10.4 -3.5 -27.1 -9 -37 -12.3 -9.9 -3.2 -24.1 -7.9 -31.5 -10.5 -7.4 -2.6 -14.4 -4.9 -15.5 -5.2 -1.1 -0.3 -3.3 -1.1 -5 -1.8 -1.6 -0.7 -4.6 -1.6 -6.6 -2 -2.9 -0.5 -3.8 -0.3 -4.3 1.1 -0.4 0.9 -0.3 2.1 0.1 2.5 0.4 0.4 6 2.1 12.3 3.9 6.3 1.7 21.9 6.4 34.5 10.5 12.7 4 30.4 9.6 39.5 12.5 28.5 8.8 56.1 18.7 56.8 20.3 0.6 1.3 3 0.7 3.6 -1z m16.3 -8 c-0.4 -0.3 0 -1.5 1 -2.5 1.9 -2.1 1.6 -2.6 -2.6 -3.8 -2.2 -0.6 -3.1 -0.5 -3.1 0.3 0 1.5 1.9 4.5 2 3.2 0.1 -0.5 0.5 0 1 1.3 0.5 1.2 1.3 2.2 1.6 2.2 0.4 0 0.4 -0.3 0.1 -0.7z m-5.7 -6.8 c0 -1 -5.1 -3 -29.8 -11.7 -28.9 -10.1 -48.6 -17.1 -80.7 -28.6 -40.1 -14.4 -49.9 -18.1 -56 -20.6 -7.7 -3.3 -9.9 -3.3 -6 -0.1 1.7 1.4 5.5 3.2 8.5 4.1 3 0.9 9.3 2.9 14 4.6 4.7 1.6 14.1 4.9 21 7.3 6.9 2.4 22.9 8 35.5 12.5 12.7 4.5 30 10.5 38.5 13.4 8.5 3 18.7 6.6 22.5 8 3.9 1.5 7.2 2.7 7.5 2.8 0.3 0 1.4 0.4 2.5 0.8 1.1 0.4 5.3 1.9 9.4 3.4 4.1 1.5 8.1 3.1 9 3.6 1.7 1 4.1 1.3 4.1 0.5z m5 -2.4 c0 -0.5 -0.7 -1.4 -1.5 -2.1 -1.6 -1.4 -1.8 -1 -0.9 1.4 0.6 1.7 2.4 2.2 2.4 0.7z m-7.5 -3 c-1.1 -0.9 -8.3 -3.6 -25.5 -9.6 -5.8 -2 -14.1 -5 -18.5 -6.7 -4.4 -1.6 -16.5 -6.1 -27 -9.8 -44 -15.8 -56.1 -20.2 -76.7 -27.9 -11.9 -4.4 -22.2 -8.1 -22.8 -8.1 -2.2 0 0 1.7 4.2 3.3 21.4 7.9 44.1 16.1 52.3 19 10.3 3.6 29.6 10.5 51.5 18.4 6.9 2.5 18.6 6.7 26 9.4 7.4 2.6 18.5 6.6 24.5 8.8 11.4 4.1 13.6 4.7 12 3.2z m11.5 -4.7 c0 -0.8 -0.4 -1.4 -1 -1.4 -0.5 0 -1 0.9 -1 2.1 0 1.1 0.5 1.7 1 1.4 0.6 -0.3 1 -1.3 1 -2.1z m-13.2 0.1 c-0.5 -0.5 -8.1 -3.3 -30.8 -11.5 -7.4 -2.7 -17.1 -6.2 -21.5 -7.8 -4.4 -1.6 -16.8 -6.2 -27.5 -10.1 -10.7 -3.9 -20.6 -7.6 -22 -8.2 -1.4 -0.6 -5.2 -2 -8.5 -3.1 -9.1 -3 -45.5 -16.8 -52.6 -20 -2.5 -1.1 -5.5 -1.8 -6.5 -1.6 -2.8 0.7 3.4 3.4 29.2 12.7 12 4.3 45.1 16.3 73.4 26.6 28.3 10.3 52.6 19.1 54 19.6 1.4 0.4 4.3 1.5 6.5 2.3 3.9 1.5 7.3 2.1 6.3 1.1z m3.2 -2.4 c0 -0.5 -1 -1.2 -2.2 -1.6 -1.3 -0.3 -3.2 -1 -4.3 -1.5 -1.1 -0.6 -10.1 -3.9 -20 -7.4 -9.9 -3.5 -24.5 -8.9 -32.5 -11.9 -8 -3 -24.8 -9.4 -37.5 -14.2 -12.6 -4.8 -29.3 -11.1 -37 -14 -22.9 -8.6 -29.7 -11.2 -34.7 -13.3 -4.3 -1.9 -5.8 -1.9 -5.8 -0.1 0 0.4 3 1.9 6.8 3.3 17.7 6.8 92.4 34.4 114.2 42.3 15.7 5.7 27.6 10.1 41 15.1 11.7 4.5 12 4.6 12 3.3z m7.5 -10.1 c-0.6 -0.9 -0.9 -0.9 -1.6 0.1 -1 1.7 0 3.4 1.3 2.1 0.6 -0.6 0.7 -1.6 0.3 -2.2z m0.5 -7.5 c0 -2.5 -0.4 -4.5 -0.9 -4.5 -1.3 0 -2.2 2.8 -1 3.5 0.5 0.4 0.7 1.7 0.5 3.1 -0.3 1.3 0 2.4 0.5 2.4 0.5 0 0.9 -2 0.9 -4.5z m-22.3 0.9 c-1.6 -0.8 -3.4 -1.3 -4 -1.1 -0.7 0.3 -0.1 0.9 1.3 1.5 3.8 1.6 5.9 1.3 2.7 -0.4z m16.1 -8.4 c1.3 0 1.4 -0.2 0.4 -0.9 -1.1 -0.6 -1.2 -2.5 -0.7 -8.4 l0.7 -7.6 -3.3 -2 -3.4 -2.1 -0.7 7.8 c-0.4 4.2 -0.9 9.4 -1.3 11.5 -0.5 3.5 -0.3 3.9 2.7 5.2 3.2 1.3 3.3 1.3 3.6 -1.1 0.2 -1.4 1 -2.4 2 -2.4z m-20.9 -3.4 c-0.2 -0.2 -1.5 -0.7 -2.9 -1 l-2.5 -0.7 2.5 1.5 c2.1 1.2 4.2 1.4 2.9 0.2z m5.8 -7.3 c-0.3 -1 -0.5 -0.2 -0.5 1.7 0 1.9 0.2 2.7 0.5 1.8 0.2 -1 0.2 -2.6 0 -3.5z m-4.3 0.6 c1 -5.1 0.8 -5.9 -1.9 -5.9 -2.3 0 -2.5 0.4 -2.5 4.5 0 3.7 0.3 4.5 1.9 4.5 1.3 0 2 -1 2.5 -3.1z m-152.4 -6.3 c-3 -4.9 -3.7 -4.6 -0.9 0.4 1.2 2.2 2.5 3.8 2.7 3.5 0.2 -0.2 -0.6 -2 -1.8 -3.9z m91 -0.1 c-1.4 -0.8 -2.9 -1.4 -3.5 -1.4 -0.5 0 0.1 0.6 1.5 1.4 1.4 0.8 3 1.4 3.5 1.4 0.6 0 -0.1 -0.6 -1.5 -1.4z m-101.1 -9.2 c0.1 -1.3 -0.3 -2.3 -0.9 -2.3 -0.5 0 -1 1.9 -0.9 4.3 0 3.2 0.2 3.7 0.9 2.2 0.5 -1.1 0.9 -3 0.9 -4.2z m164.1 0.6 c0 -0.5 -1.1 -0.9 -2.5 -0.9 -2.8 0 -3.4 1.6 -0.7 2.3 2 0.4 3.2 -0.1 3.2 -1.4z m-92.4 -2.8 c-0.7 -1.1 -9.7 -4.3 -10.3 -3.7 -0.3 0.2 2 1.3 4.9 2.5 6.3 2.4 6.1 2.3 5.4 1.2z m-70.6 -3.5 c0 -0.3 -1.3 -2 -3 -3.8 -2.3 -2.5 -3 -2.8 -3 -1.5 0 1 -0.4 1.5 -1 1.2 -0.5 -0.3 -1 -0.1 -1 0.4 0 0.6 0.5 1.1 1.1 1.1 0.6 0 1.7 0.7 2.5 1.5 1.4 1.4 4.4 2.1 4.4 1.1z m51 -4.5 c-0.8 -0.5 -2.6 -1.1 -4 -1.5 -2.1 -0.5 -2 -0.3 0.5 0.9 3.2 1.5 6 2 3.5 0.6z m-7 -2.4 c0 -0.2 -3.3 -1.7 -7.2 -3.2 -4 -1.6 -9.9 -3.9 -13.2 -5.2 -3.2 -1.3 -6.1 -2.2 -6.4 -1.9 -0.2 0.3 0.4 0.9 1.4 1.2 1 0.4 6.9 2.6 12.9 5 10.8 4.2 12.5 4.7 12.5 4.1z m-54.4 -6.5 c-1 -1 -2.9 1.5 -2.1 2.8 0.6 0.9 1 0.8 1.7 -0.4 0.6 -1 0.7 -2 0.4 -2.4z m4.9 1.8 c0 -0.7 -0.6 -1.5 -1.2 -1.7 -0.8 -0.3 -1.3 0.4 -1.3 1.7 0 1.3 0.5 2 1.3 1.8 0.6 -0.3 1.2 -1.1 1.2 -1.8z m160.5 -1.5 c0 -0.8 -9.2 -4.6 -9.7 -4.1 -0.3 0.3 1.2 1.4 3.3 2.4 4 2 6.4 2.6 6.4 1.7z m-164.6 -3 c-1 -0.8 -2.3 -1.4 -2.9 -1.4 -0.5 0 -0.1 0.6 0.9 1.4 1.1 0.8 2.4 1.5 3 1.5 0.5 0 0.1 -0.7 -1 -1.5z"/>
  <path d="M54 671.7 c0 -0.8 0.7 -1.7 1.5 -2.1 0.8 -0.3 1.5 -0.2 1.5 0.3 0 0.5 -0.7 1.4 -1.5 2.1 -1.2 1 -1.5 1 -1.5 -0.3z"/>
  <path d="M64.5 585 c-2.7 -5.3 -3.2 -8.4 -1.3 -7.8 1 0.4 5.2 12.8 4.2 12.8 -0.2 0 -1.5 -2.2 -2.9 -5z"/>
  <path d="M60 565 c0 -3.7 2.4 -11 3.6 -11 1.5 0 1.7 2.3 0.8 8.3 -0.5 2.7 -1.1 3.7 -2.5 3.7 -1.1 0 -1.9 -0.4 -1.9 -1z"/>
  <path d="M60.2 545.4 c-2.2 -2.1 -6.2 -11.7 -6.2 -14.9 0 -0.8 0.9 -1.5 2 -1.5 1.1 0 2 0.7 2 1.6 0 0.8 1.2 4 2.6 7 1.4 2.9 2.4 6.4 2.2 7.6 l-0.3 2.3 -2.3 -2.1z"/>
  <path d="M44.4 523.6 c-0.3 -0.8 -0.4 -2.9 -0.2 -4.8 0.3 -2.9 0.7 -3.3 3.1 -3.3 1.5 0.1 2.7 -0.3 2.7 -0.8 0 -0.5 1.2 -0.7 2.6 -0.4 2.2 0.4 3.4 -0.3 6.4 -3.4 4.3 -4.6 9.4 -5.3 12.5 -1.9 1.8 2 1.7 2 -1.6 2 -4.2 0 -8.9 2 -8.9 3.8 0 0.6 -0.7 1.2 -1.5 1.2 -0.8 0 -1.5 0.7 -1.5 1.5 0 0.8 -0.9 1.5 -2 1.5 -1.2 0 -2 -0.7 -2 -1.7 0 -1.5 -0.2 -1.4 -1.5 0.3 -1 1.4 -1.4 1.5 -1.5 0.5 0 -1.1 -0.3 -1 -1.3 0.3 -0.8 1 -1.2 2.9 -0.9 4.2 0.3 1.9 0 2.4 -1.7 2.4 -1.2 0 -2.4 -0.6 -2.7 -1.4z"/>
  <path d="M43 511.3 c-2.3 -1.4 -2.4 -1.4 -0.2 -1 1.2 0.3 2.2 0.1 2.2 -0.3 0 -0.5 2.8 -1.7 6.2 -2.8 3.4 -1 6.4 -2.5 6.6 -3.2 0.3 -0.7 0 -1 -0.7 -0.6 -0.6 0.4 -1.1 0.2 -1.1 -0.3 0 -0.6 0.5 -1.1 1 -1.1 0.6 0 0.9 -0.5 0.8 -1.1 -0.2 -0.6 1.5 -1.7 3.7 -2.3 2.9 -0.8 4.1 -1.8 4.3 -3.4 0.2 -1.4 1 -2.2 2.3 -2.2 1.5 0 1.9 0.7 1.9 3.3 0 4.5 -1 5.6 -5.5 6.3 -2.2 0.3 -4.4 1 -5 1.6 -0.7 0.6 -0.1 0.8 1.5 0.4 5.2 -1.1 12 -1.4 12.5 -0.5 0.4 0.5 -0.2 0.6 -1.2 0.2 -1.6 -0.6 -1.7 -0.5 -0.3 1.2 1.4 1.7 1.4 1.7 -0.6 0.5 -1.8 -1.1 -3 -1 -7.5 0.4 -3 1 -6.3 2.6 -7.4 3.7 -2.7 2.4 -10.2 3.1 -13.5 1.2z"/>
  <path d="M45 499.8 c0 -7.7 0.8 -10.8 2.6 -10.8 0.8 0 1.4 -1 1.4 -2.5 0 -1.6 -0.6 -2.5 -1.5 -2.5 -1.6 0 -2.2 -5.4 -0.7 -6.4 0.8 -0.5 17 3 21 4.5 3.9 1.5 2.6 3.1 -2.3 2.7 -3.7 -0.3 -4.5 0 -4.5 1.4 0 1 -0.9 1.8 -2.2 2 -1.9 0.2 -2.2 0.8 -2 3.3 0.2 2.3 0.1 2.7 -0.7 1.5 -0.7 -1 -1.1 -1.1 -1.1 -0.2 0 0.6 -1.1 1.2 -2.4 1.2 -1.8 0 -2.6 -0.7 -2.9 -2.2 -0.3 -1.7 -0.5 -1.4 -0.6 1 -0.1 2.2 0.3 3.2 1.4 3.2 1.7 0 4.3 4.8 3.8 7.1 -0.4 1.8 -3.2 2.9 -7 2.9 -2.1 0 -2.3 -0.4 -2.3 -6.2z"/>
  <path d="M48.7 462.2 c-0.8 -1.1 0.3 -5.2 1.4 -5.2 1.7 0 2 2.1 0.6 4.1 -0.8 1.1 -1.7 1.6 -2 1.1z"/>
  <path d="M27.1 452.3 c-0.1 -2.3 0.4 -4.5 1 -4.8 1.6 -1 1.6 -0.4 0.3 4.5 l-1.2 4.5 -0.1 -4.2z"/>
  <path d="M190.7 246.5 c0.3 -4.9 0.7 -9.2 0.9 -9.4 0.7 -0.8 0.2 12.4 -0.6 15.4 -0.4 1.7 -0.6 -1 -0.3 -6z"/>
  <path d="M189.7 210.4 c-0.8 -0.8 1 -4.4 2.2 -4.4 0.5 0 0.6 1.1 0.3 2.5 -0.4 2.5 -1.3 3.1 -2.5 1.9z"/>
  <path d="M120.5 24.1 c-0.8 -2.7 0.5 -7.1 2.1 -7.1 1 0 1.4 1.3 1.4 4.5 0 3.2 -0.4 4.5 -1.4 4.5 -0.8 0 -1.7 -0.9 -2.1 -1.9z"/>
  <path d="M147 17.5 c0 -2.4 -0.5 -3.5 -1.5 -3.5 -1.1 0 -1.5 -1.1 -1.5 -3.7 l0 -3.7 2 2 c2.3 2.3 4.1 12.4 2.1 12.4 -0.6 0 -1.1 -1.5 -1.1 -3.5z"/>
  <path d="M150.5 17.3 c-0.9 -5.5 -2.5 -9.5 -4.9 -12.2 l-2.1 -2.3 3.5 1.5 c8.7 3.7 8.6 3.5 8.2 7.8 -0.3 2.4 0 3.9 0.7 3.9 0.6 0 1.1 1.1 1.1 2.5 0 3.1 -1.7 3.3 -2.3 0.3 l-0.4 -2.3 -0.2 2.3 c-0.2 3.7 -2.9 2.6 -3.6 -1.5z m3.5 -6.7 c0 -0.8 -0.4 -1.8 -1 -2.1 -0.5 -0.3 -1 0.3 -1 1.4 0 1.2 0.5 2.1 1 2.1 0.6 0 1 -0.6 1 -1.4z"/>
  <path d="M125 15.5 c0 -2.8 0.4 -3.5 2 -3.5 1.5 0 1.9 0.5 1.6 2.3 -0.3 1.2 -0.5 2.8 -0.5 3.5 -0.1 0.6 -0.8 1.2 -1.6 1.2 -1 0 -1.5 -1.1 -1.5 -3.5z"/>
  <path d="M130.6 13.3 c0.4 -3.2 1.1 -6.1 1.6 -6.4 0.6 -0.4 0.5 -0.8 -0.2 -1.1 -1.8 -0.6 -0.4 -5.8 1.5 -5.8 0.8 0 1.5 0.9 1.5 2 0 2.5 2.8 2.6 3.2 0.1 0.2 -1.5 0.7 -1.7 2.8 -0.9 l2.5 0.9 -3.3 1.6 c-2.3 1.1 -4 3.2 -5.7 6.8 -1.4 2.9 -2.5 5.9 -2.5 6.8 0 1 -0.5 1.7 -1.1 1.7 -0.7 0 -0.8 -1.9 -0.3 -5.7z"/>
  <path d="M193 16 c-3.6 -1.6 -5.8 -3 -5 -3 1.7 0 14.1 5.8 12.5 5.9 -0.5 0 -3.9 -1.3 -7.5 -2.9z"/>
  <path d="M199 15.4 c-1.4 -0.8 -6.5 -3.3 -11.5 -5.5 -4.9 -2.3 -11.7 -5.4 -15 -7 l-6 -2.8 7.3 -0.1 c6.8 0 8 0.4 17.5 5 10.9 5.3 16.3 9.2 15.2 10.9 -0.9 1.5 -4.5 1.2 -7.5 -0.5z"/>
  <path d="M135.4 12.4 c0.3 -0.9 0.6 -1.9 0.6 -2.4 0 -1.1 2.9 -4 4.1 -4 1.5 0 1 4.7 -0.7 6.4 -2.1 2.1 -4.8 2.1 -4 0z"/>
  <path d="M127.3 5.3 c-0.7 -0.3 -1.3 -1.6 -1.3 -2.9 0 -1.7 0.6 -2.4 2 -2.4 1.7 0 1.9 0.4 1.4 2.8 -0.8 3.3 -0.6 3 -2.1 2.5z"/>
  <path d="M203.2 2.8 c-2.9 -1.2 -5 -2.3 -4.7 -2.6 0.6 -0.6 9.3 2.7 10 3.9 0.8 1.1 1.1 1.2 -5.3 -1.3z"/>
  <path d="M216 2.4 c0 -1.3 -0.3 -1.4 -1.4 -0.5 -1.2 1 -2.1 0.9 -4.3 -0.3 l-2.8 -1.5 4.8 -0.1 c4 0 4.7 0.3 4.7 2 0 1.1 -0.2 2 -0.5 2 -0.3 0 -0.5 -0.7 -0.5 -1.6z"/>
 </g>
 <g fill="#c3a19d">
  <path d="M0.2 766.1 c-0.2 -6.1 0 -6.9 1.8 -7.4 1 -0.3 1.9 -0.2 1.8 0.2 -0.4 3 3.6 5.1 4.7 2.4 0.9 -2.5 -1.5 -4.5 -4.6 -3.9 -1.8 0.3 -2.9 0 -3.3 -0.9 -0.3 -1 0 -1.2 1.1 -0.8 1.2 0.5 1.5 0.2 1 -1 -0.5 -1.4 -0.2 -1.5 2.1 -0.6 1.8 0.7 2.8 0.7 3 0 0.2 -0.7 1 -0.5 1.9 0.5 1.9 1.9 3.9 1.3 3.6 -1.2 -0.2 -2.2 1.3 -3.4 4.4 -3.4 1.6 0 2.1 -0.4 1.6 -1.6 -0.4 -1.2 -0.1 -1.5 1.3 -1.2 1.1 0.2 2 1.3 2.2 2.6 0.4 2.7 2.2 1.9 2.3 -1.1 0 -1.5 0.2 -1.7 0.6 -0.7 0.4 0.8 1.2 2.1 2 2.8 2.3 2.4 1.5 3.5 -2.2 2.8 -2.2 -0.4 -3.5 -0.3 -3.5 0.4 0 0.9 1.4 1.4 3.3 1.1 0.4 0 0.7 0.4 0.7 0.9 0 0.6 -0.4 1 -1 1 -0.5 0 -1 0.8 -1 1.8 0 1.3 0.2 1.4 0.9 0.4 0.4 -0.8 1.1 -1.3 1.5 -1.3 2 0.3 2.5 -0.1 2 -1.4 -0.4 -0.8 -0.1 -1.5 0.4 -1.5 0.6 0 1.4 -1 1.8 -2.2 0.8 -2.6 2.8 -4.8 4.3 -4.8 0.6 0 1.1 -0.7 1.1 -1.5 0 -1.7 3.5 -2.1 4.5 -0.5 0.3 0.6 1.5 1 2.5 1 1 0 2.3 0.8 2.9 1.7 0.8 1.4 1.2 1.5 2.5 0.4 1.4 -1.2 1.6 -1.2 1 0.3 -0.3 0.9 -1.7 1.6 -3 1.6 -1.5 0 -2.4 0.6 -2.4 1.5 0 1.8 -2.1 2 -3.8 0.3 -1 -1 -0.8 -1.5 0.9 -2.3 1.9 -1.1 1.9 -1.2 0.3 -2.6 -1.6 -1.2 -1.7 -1.2 -1.1 0.4 0.3 0.9 0.2 1.7 -0.3 1.7 -0.6 0 -1 -1 -1 -2.1 0 -1.8 -0.2 -1.9 -1.5 -0.9 -0.8 0.7 -1.3 1.6 -1 2 0.3 0.5 -0.1 1.1 -0.7 1.3 -1 0.4 -1 0.6 0 0.6 2 0.2 1.4 2.1 -0.7 2.1 -3.1 0 -4.9 4.1 -2.7 5.9 0.9 0.7 1.7 0.2 3 -2 1.6 -2.8 2.1 -3 5.5 -2.4 2.8 0.5 4.1 0.2 5.1 -1 1 -1.3 1.5 -1.3 2.4 -0.2 0.9 1.1 1.8 1 5.3 -0.8 2.4 -1.2 3.9 -2.5 3.5 -2.9 -0.9 -1 2.7 -3.6 5 -3.6 1.1 0 1.5 0.5 1.2 1.5 -0.5 1.3 0.1 1.4 3.9 1 3.9 -0.5 4.6 -0.3 5.2 1.4 0.3 1 1.5 2.1 2.7 2.5 3.1 0.8 3.6 -0.2 0.7 -1.3 -1.3 -0.5 -1.9 -1 -1.3 -1 0.7 -0.1 1.5 -1.2 1.8 -2.6 0.4 -1.4 1.1 -2.5 1.7 -2.5 0.6 0 0.8 0.8 0.5 1.8 -0.5 1.5 0 1.8 3.7 1.9 2.3 0 3.6 -0.1 3 -0.4 -2.2 -0.8 -1.4 -2.3 1.2 -2.3 1.4 0 2.5 0.5 2.5 1 0 0.6 -0.4 1 -1 1 -0.5 0 -1 0.5 -1 1 0 0.6 0.9 1 2 1 1.1 0 2 -0.5 2 -1.1 0 -0.5 0.5 -0.7 1.1 -0.4 0.6 0.5 0.4 1.2 -0.8 2 -1 0.7 -2.1 1.1 -2.5 0.9 -0.4 -0.3 -0.5 0.2 -0.2 1 0.6 1.5 3.4 1.1 3.4 -0.5 0 -0.5 0.5 -0.9 1 -0.9 0.6 0 1 1.8 1 4 0 2.8 0.4 4 1.4 4 0.9 0 1.2 -0.7 1 -1.8 -0.9 -3.2 1.9 -9.5 4.2 -9.7 1.7 -0.1 2.1 0.5 2.2 2.7 0.1 2.4 -0.2 2.7 -1.4 1.8 -0.7 -0.7 -1.1 -1.6 -0.8 -2.1 0.3 -0.5 0.1 -0.9 -0.5 -0.9 -0.5 0 -0.9 2 -0.8 4.5 0.2 3.6 0.4 4.2 1.3 3 1.5 -2 5.4 -2 5.4 0 0 0.9 -1.1 2 -2.5 2.5 -2.8 1.1 -3.5 2.4 -0.7 1.6 2 -0.6 3.6 0.3 4.5 2.4 0.4 1.1 0.7 1 1.2 -0.7 0.4 -1.3 1.1 -2 1.6 -1.7 0.5 0.3 0.7 1 0.4 1.5 -0.4 0.5 -0.1 0.9 0.4 0.9 0.6 0 1.1 0.7 1.1 1.5 0 0.8 -0.6 1.5 -1.2 1.5 -0.9 0 -0.8 0.4 0.2 1 2.6 1.7 3.3 1.1 2.6 -2.1 -0.5 -2.7 -0.4 -3 0.9 -1.9 0.8 0.6 1.4 1.5 1.3 1.8 -0.3 2.5 0.3 3.5 1.3 2.5 0.9 -0.9 1.7 -0.6 3.2 0.8 3.5 3.2 2.9 4.4 -2 4.4 -2.7 -0.1 -4.8 -0.6 -5.3 -1.5 -0.8 -1.3 -1 -1.2 -1 0.3 0 1.6 -2.3 1.7 -34.7 1.6 -22.5 0 -34 -0.4 -32.5 -1 1.3 -0.5 2 -1.3 1.7 -1.9 -1 -1.6 -4.7 -1.2 -6.1 0.8 -1.1 1.5 -3.5 1.7 -20.6 2 l-19.4 0.3 -0.2 -7z m80.8 2.9 c0 -1.1 -0.7 -2 -1.5 -2 -1.5 0 -2.1 2.1 -0.8 3.3 1.2 1.3 2.3 0.7 2.3 -1.3z m-63.6 -2.4 c2.1 0.5 2.5 0.3 2 -1 -0.4 -1.1 0.2 -1.9 2 -2.6 1.4 -0.5 2.6 -1.2 2.6 -1.4 0 -0.6 -3 0.4 -4.5 1.4 -0.5 0.4 -2.3 0.6 -4 0.5 -4.5 -0.3 -4.7 -0.4 -4 -1.5 0.3 -0.5 0.2 -1 -0.2 -1 -0.5 0 -1.4 0.9 -2 2 -1 1.4 -1 2.1 -0.1 2.6 0.7 0.4 1.4 0.2 1.6 -0.4 0.2 -0.6 0.9 -0.9 1.7 -0.6 0.8 0.3 1.1 1.3 0.8 2.2 -0.4 1.3 -0.3 1.4 0.5 0.4 0.6 -0.9 1.8 -1.1 3.6 -0.6z m32.2 -4 c1.5 0.5 1.6 0.4 0.4 -0.5 -1.5 -1 -1.1 -2.1 1.2 -2.5 3.1 -0.7 4.6 -1.8 4.1 -3.5 -0.2 -0.9 -1.3 -1.7 -2.4 -1.8 -2.3 -0.2 -2.5 1.3 -0.3 2.5 1.4 0.8 1.3 1 -0.5 1.5 -1.3 0.3 -1.9 0.1 -1.5 -0.5 0.4 -0.6 0.1 -0.9 -0.5 -0.7 -0.7 0.3 -1.2 0.8 -1.1 1.2 0 0.4 -0.6 1.5 -1.5 2.3 -0.8 0.9 -1.5 2.1 -1.5 2.7 0 0.8 0.3 0.8 0.8 -0.1 0.5 -0.7 1.7 -1 2.8 -0.6z m17.2 -2.7 c-1.8 -1.2 -2.3 0.8 -0.6 2.8 1.2 1.5 1.3 1.5 1.6 -0.2 0.2 -1 -0.2 -2.1 -1 -2.6z m-46.4 0.5 c2.5 -0.9 1.9 -2.2 -0.9 -2 -1.4 0 -2.5 0.7 -2.5 1.4 0 1.3 1 1.5 3.4 0.6z m51.4 -0.6 c-0.6 -1.8 -2.8 -2.1 -2.8 -0.4 0 0.9 0.7 1.6 1.6 1.6 0.9 0 1.4 -0.5 1.2 -1.2z m18.2 -3 c0 -1.6 -0.3 -1.9 -1.1 -1.1 -0.6 0.6 -0.8 1.6 -0.5 2.2 1.1 1.7 1.6 1.3 1.6 -1.1z m-21.3 -1.9 c-0.1 -1 -0.7 -2.1 -1.4 -2.3 -0.7 -0.3 -1 0.1 -0.6 0.9 0.3 0.8 -0.2 1.8 -1.1 2.1 -2.5 1 -1.9 2.2 0.8 1.7 1.6 -0.4 2.4 -1.1 2.3 -2.4z m-49.3 0.5 c2.2 -0.9 1 -2.4 -2 -2.4 -2.1 0 -2.3 0.2 -1.2 1.5 1.6 1.7 1.3 1.6 3.2 0.9z m64.7 -4 c1.2 -1.4 1.1 -1.6 -0.5 -1.3 -1.1 0.2 -2.1 1 -2.4 1.7 -0.5 1.7 1.3 1.5 2.9 -0.4z"/>
  <path d="M127.8 766.5 c-6.6 -1.8 -14.4 -6.3 -17.8 -10.1 -1.5 -1.8 -3.6 -5.6 -4.5 -8.6 -1 -2.9 -3.9 -8.5 -6.6 -12.5 -8.6 -12.9 -9.3 -15.2 -6.3 -22.1 l1.6 -3.7 1.3 4 c0.7 2.2 3.5 8.9 6.4 14.9 2.8 6 5.6 12.7 6.3 14.8 2 6.8 12.1 14.8 25.1 19.8 3.8 1.5 6.9 3.1 7 3.6 0.3 1.4 -7.3 1.3 -12.5 -0.1z"/>
  <path d="M8 749.6 c0 -0.8 0.5 -1.8 1.2 -2.2 0.8 -0.5 0.9 -0.2 0.5 1 -0.4 1 -0.3 1.5 0.3 1.1 0.6 -0.3 1 -1.3 1 -2.2 0 -0.9 0.6 -1.3 1.5 -0.9 0.8 0.3 1.5 0.1 1.5 -0.3 0 -1.2 -2.9 -2.3 -4.1 -1.5 -0.5 0.3 -0.9 0 -0.9 -0.7 0 -0.7 1 -1 2.8 -0.6 2.5 0.5 2.8 0.3 3 -2.6 0.2 -1.7 0.7 -3.6 1.2 -4.1 1.1 -1.1 0.7 5.5 -0.5 7.4 -0.4 0.7 -0.2 1.6 0.6 2.1 1.6 1 0.6 2.2 -2.4 2.6 -1.2 0.2 -2.6 0.8 -3.1 1.3 -1.4 1.4 -2.6 1.2 -2.6 -0.4z"/>
  <path d="M52.2 747.3 l-0.2 -3.8 2 2.4 c2.2 2.6 2.2 4.4 -0.1 4.9 -1.1 0.2 -1.5 -0.8 -1.7 -3.5z"/>
  <path d="M94.6 747.6 c-0.6 -2.5 0.1 -5.6 1.3 -5.6 0.3 0 0.6 1.8 0.6 4 0 4.5 -1 5.3 -1.9 1.6z"/>
  <path d="M27.2 744.3 c0.2 -1.4 0.8 -2.8 1.4 -3 0.7 -0.2 0.9 0.8 0.6 2.7 -0.5 3.7 -2.5 4 -2 0.3z"/>
  <path d="M40.5 741 c2.2 -2.4 2.6 -2.4 5.1 -0.5 1.8 1.5 1.7 1.6 -1.3 1 -2.1 -0.4 -3.3 -0.3 -3.3 0.4 0 0.6 -0.5 1.1 -1.2 1.1 -0.6 0 -0.3 -0.9 0.7 -2z"/>
  <path d="M18 739.8 c0 -1.2 0.1 -1.9 0.3 -1.7 0.1 0.2 0.9 1.2 1.6 2.2 1.2 1.4 1.1 1.7 -0.3 1.7 -1 0 -1.6 -0.8 -1.6 -2.2z"/>
  <path d="M171.4 595.5 c-1.7 -1.3 -1.6 -1.4 1.6 -0.3 4.3 1.4 4.9 1.8 2.4 1.8 -1.1 0 -2.9 -0.7 -4 -1.5z"/>
  <path d="M64.2 583.8 c-3.7 -8.4 -4.4 -11.9 -3.8 -17.7 2 -18.7 2 -18.8 -0.6 -21.9 -1.3 -1.6 -3.2 -5.6 -4.2 -8.8 -2.4 -8.2 -2.7 -8.6 -7.5 -10.2 -4 -1.3 -4.2 -1.6 -3.6 -4.6 0.9 -4.1 1.3 -4.4 5.8 -5 3.3 -0.4 3.6 -0.3 2.7 1.4 -0.7 1.3 -0.7 2.1 0 2.5 0.5 0.3 1 -0.1 1 -1 0 -2.1 4.3 -7.4 7.9 -9.7 3.8 -2.6 6.7 -2.2 10.8 1.6 l3.6 3.3 -3.2 -0.5 c-4.4 -0.6 -7.9 1.4 -10.2 6 -2.4 4.7 -2.4 9.5 0.2 23.8 1.6 9.2 1.9 13.6 1.3 22.1 -0.5 8.4 -0.3 11.7 1 16.3 2.1 7.1 1.5 8.3 -1.2 2.4z"/>
  <path d="M46.2 492.6 c0.2 -7.4 0.6 -13.8 1 -14.2 0.5 -0.4 5.6 0.4 11.5 1.7 l10.8 2.5 0.3 5.6 c0.2 3.1 -0.1 7.1 -0.6 9 -0.8 3 -1.4 3.4 -7 5 -3.4 0.9 -6.2 1.2 -6.2 0.7 0 -0.5 0.6 -0.9 1.3 -0.9 0.8 -0.1 0.7 -0.5 -0.4 -1.3 -0.9 -0.7 -2.1 -2.3 -2.8 -3.5 -0.7 -1.3 -1.5 -2.1 -1.8 -1.8 -0.3 0.3 0.2 1.7 1.1 3 1.9 3 1.3 4.9 -2 6.5 -5.5 2.5 -5.6 2.3 -5.2 -12.3z"/>
  <path d="M197.7 486.6 c-0.4 -1 -0.5 -2.1 -0.2 -2.4 0.9 -0.9 1.7 0.6 1.3 2.5 -0.3 1.7 -0.4 1.7 -1.1 -0.1z"/>
  <path d="M194.7 470.8 c-0.4 -1.4 -1 -3.4 -1.3 -4.5 -0.5 -1.3 -0.2 -1.2 1 0.5 1 1.2 1.6 3.2 1.4 4.5 -0.3 2.1 -0.4 2 -1.1 -0.5z"/>
  <path d="M150.6 427.8 c-0.3 -1.3 -0.1 -2.7 0.4 -3.2 0.7 -0.7 1 0.1 1 2.2 0 3.7 -0.5 4.1 -1.4 1z"/>
  <path d="M149.5 421.9 c-0.4 -0.6 -0.4 -1.3 -0.1 -1.6 0.8 -0.8 3.6 0.5 3.6 1.7 0 1.3 -2.7 1.3 -3.5 -0.1z"/>
  <path d="M146.5 414.6 c-1.9 -4.5 -2.4 -11.6 -1.2 -16.3 0.6 -2.2 0.5 -3.3 -0.2 -3.3 -0.6 0 -1.3 1.1 -1.7 2.5 -0.8 3.3 -1.3 2.7 -3.6 -3.7 -1.3 -3.7 -1.8 -8.2 -1.9 -15.8 0 -5.8 -0.4 -12.7 -0.9 -15.5 -0.7 -4.4 -0.6 -5.2 1.2 -6.6 2 -1.6 2 -1.6 -0.6 -3.5 -2.2 -1.6 -2.9 -3.4 -4.6 -12.8 -1.1 -6.1 -2 -11.3 -2 -11.7 0 -0.3 1.4 -0.9 3 -1.2 1.7 -0.4 3 -1.1 3 -1.7 0 -0.6 -0.9 -0.6 -2.6 0 -3.9 1.5 -4.2 1.3 -5.3 -4 -1.3 -6.2 -1.3 -6.3 -0.2 -5.6 0.5 0.4 0.7 -2 0.4 -5.5 -0.4 -4.4 -0.2 -6.3 0.7 -6.9 1.5 -0.9 0.5 -3 -1.6 -3 -1.2 0 -1.3 1.1 -0.8 6.5 0.4 3.6 0.4 6.5 0.1 6.5 -0.3 0 -1.3 -3.4 -2.2 -7.6 -1.3 -5.8 -1.4 -7.9 -0.5 -8.8 0.8 -0.8 1.4 -0.7 2.1 0.7 0.8 1.3 1.4 1.5 2.4 0.7 1 -0.8 1.6 0 3 3.7 0.9 2.7 1.7 5.6 1.8 6.6 0.1 0.9 0.4 1.7 0.8 1.7 1.2 0 1.9 -3 1.2 -6 -0.5 -2.6 -0.3 -3 1.3 -2.4 1.3 0.4 1.5 0.3 0.6 -0.3 -0.7 -0.5 -1 -1.7 -0.6 -2.6 0.5 -1.3 0.2 -1.6 -1 -1.1 -0.9 0.3 -1.6 0.1 -1.6 -0.6 0 -0.6 0.4 -0.9 0.9 -0.5 0.6 0.3 1.4 -0.3 2 -1.2 0.8 -1.4 1 -1.5 1.1 -0.3 0 1.2 0.2 1.3 0.9 0.1 0.6 -0.9 1.8 -1.1 3.5 -0.7 2.2 0.5 2.6 1.2 2.7 4.4 l0.1 3.7 1 -3.7 c0.8 -3 1.5 -3.8 3.3 -3.8 1.4 0 2.5 0.7 2.8 2 0.6 2.4 2.7 2.7 2.7 0.4 0 -1 0.6 -1.4 1.4 -1.1 0.8 0.3 1.7 0.1 1.9 -0.6 0.2 -0.7 0.8 -0.8 1.3 -0.4 0.5 0.5 0.9 9.7 0.8 20.5 0 19.7 -1.5 34.4 -3.5 36.9 -0.6 0.7 -0.9 2.3 -0.5 3.5 0.3 1.3 -0.1 5.1 -1 8.5 -1.2 4.7 -1.3 7.4 -0.6 11.5 1.3 7 1 9 -1.6 11.8 -2.5 2.7 -2.7 4.7 -0.7 7.3 1.9 2.6 0.8 4.7 -2.5 4.7 -3.5 0 -4.9 1.7 -1.8 2.2 1.7 0.2 2.4 1.1 2.6 3.2 0.5 3.9 -0.5 8.8 -2.2 11.2 -1.4 1.8 -1.6 1.7 -3.1 -2z m6.3 -42.6 c0.2 -4.1 -1 -8.2 -2.1 -7 -0.3 0.3 -0.8 3.1 -1.2 6.3 -0.6 5.4 -0.5 5.8 1.2 5.5 1.4 -0.2 1.9 -1.4 2.1 -4.8z m-9.4 -0.1 c0.4 -2.3 1.3 -5.1 2.1 -6.2 1.7 -2.5 1.9 -3.7 0.5 -3.7 -0.5 0 -1 0.6 -1 1.4 0 0.7 -0.7 1.9 -1.6 2.7 -2.3 1.9 -4.6 6.9 -4 8.5 1.1 2.9 3.3 1.4 4 -2.7z"/>
  <path d="M154 392 c-0.9 -1.6 -0.8 -2 0.5 -2 0.8 0 1.5 0.9 1.5 2 0 1.1 -0.2 2 -0.5 2 -0.2 0 -0.9 -0.9 -1.5 -2z"/>
  <path d="M29 364.1 c0 -0.5 0.9 -1.3 2.1 -1.6 1.1 -0.4 1.9 -0.9 1.6 -1.1 -0.2 -0.2 -1.9 0.1 -3.7 0.7 -2.9 1 -3.5 1 -4.6 -0.6 -0.7 -1 -1.1 -2.1 -0.8 -2.6 0.4 -0.7 15.6 -6.9 16.9 -6.9 0.3 0 0.4 2.7 0.3 6 -0.2 3.7 -0.7 6 -1.5 6 -0.6 0 -1.3 -0.5 -1.5 -1.2 -0.3 -0.9 -1.5 -0.7 -4.6 0.5 -2.3 0.9 -4.2 1.3 -4.2 0.8z"/>
  <path d="M31.4 276.5 c-2.3 -2.5 -3 -8.4 -1.1 -9 4.6 -1.4 7.7 -1.4 7.7 0 0 0.8 0.5 1.4 1.2 1.3 1.7 -0.4 1.4 8.2 -0.3 9.3 -2.3 1.4 -5.3 0.8 -7.5 -1.6z"/>
  <path d="M169 271.2 c0 -0.7 -0.4 -1.1 -0.8 -0.8 -0.5 0.3 -0.7 -0.7 -0.6 -2.2 1.3 -12.6 1.4 -12.2 -1.7 -11.8 -3.2 0.4 -4.9 -1.1 -2.5 -2 0.9 -0.3 1.4 -0.9 1.1 -1.3 -0.2 -0.4 0.9 -1.5 2.4 -2.4 2.8 -1.6 2.8 -1.6 2.8 1.1 0 1.5 0.6 5 1.2 7.7 1.6 6.3 1.8 10 0.7 10.2 -0.5 0.1 -1.3 0.7 -1.7 1.5 -0.7 1 -0.9 1 -0.9 0z"/>
  <path d="M50.6 267.1 c-0.3 -0.5 0.1 -1.2 1 -1.5 2 -0.8 2.9 -0.1 1.9 1.3 -0.8 1.3 -2.2 1.4 -2.9 0.2z"/>
  <path d="M137 264.9 c-1.4 -0.6 -4.3 -1.4 -6.4 -1.7 -3.8 -0.7 -3.9 -0.8 -2.1 -2.5 2.1 -2.1 10.2 -2.1 9.8 0.1 -0.2 0.6 0.6 1.2 1.6 1.2 2.4 0 3.5 2.6 1.5 3.4 -0.9 0.3 -1.6 0.6 -1.7 0.5 -0.1 0 -1.3 -0.5 -2.7 -1z"/>
  <path d="M189.7 264.3 c-0.4 -0.3 -0.7 -1.1 -0.7 -1.7 0 -0.7 0.3 -0.7 0.8 0 0.4 0.7 1.6 1.4 2.7 1.7 1.9 0.5 1.9 0.5 -0.1 0.6 -1.1 0 -2.4 -0.2 -2.7 -0.6z"/>
  <path d="M122 250.3 c-6.5 -7.4 -7.6 -14 -3.5 -21.7 2.9 -5.5 3 -5.7 1 -5 -2.4 1 -1.7 -1 0.7 -2.1 3.1 -1.4 3.9 -5.6 3.2 -16.5 -0.4 -5.2 -0.3 -9.2 0.1 -8.7 0.5 0.4 1.7 0 2.6 -0.9 1.7 -1.6 1.9 -1.6 2.5 0 0.6 1.5 3.4 2.3 3.4 1 0 -0.8 -4.3 -4.3 -5.4 -4.4 -0.5 0 -1.5 0.8 -2.3 1.8 -1.3 1.5 -1.3 1.5 -0.3 -0.6 0.6 -1.2 0.8 -3.7 0.5 -5.6 -0.4 -1.9 -0.2 -3.6 0.3 -4 1.2 -0.7 2.5 1 2.9 3.9 0.4 1.9 2 3.5 3.8 3.5 0.6 0 0.4 -0.4 -0.4 -0.9 -3.6 -2.3 0 -13.8 3.9 -12.8 1.2 0.3 2.2 -0.4 2.9 -2 1.1 -2.5 1.2 -2.5 3.1 -0.8 2.4 2.2 7.4 2.2 9.6 0.1 2 -2.1 2.5 -2 1.7 0.2 -0.5 1.4 -0.3 1.5 0.8 0.5 1.8 -1.8 2.9 -1.6 3 0.5 0 1.3 0.2 1.2 0.9 -0.5 0.5 -1.3 1.2 -2.3 1.5 -2.3 0.4 0 0.4 0.4 0 0.9 -0.3 0.6 0.3 1.5 1.4 2 2.7 1.5 2.8 1.4 3.5 -1.4 0.7 -2.6 2.6 -3.5 2.6 -1.1 0 1.7 2.7 2.9 3.5 1.6 0.3 -0.5 1.6 -0.5 3 0.2 1.9 0.8 3.2 0.8 5.2 -0.1 2.2 -1 3.7 -0.9 8.4 0.5 5.4 1.6 5.8 1.9 6.7 5.8 0.6 2.3 1.4 7.6 1.9 11.8 l0.9 7.8 -4.3 2 c-4.3 2 -4.3 2 -7.1 0 -4 -2.9 -18.1 -3.9 -21.7 -1.6 -1.4 0.9 -2.3 2.1 -2 2.6 0.3 0.4 0 1 -0.7 1.2 -2.1 0.7 0 3.6 3.1 4.3 1.7 0.4 3.4 1.1 3.8 1.7 0.4 0.7 0 0.9 -0.9 0.5 -0.9 -0.3 -1.9 -0.3 -2.2 0 -1 1.1 3.7 3.8 8.4 4.8 4.4 1.1 4.6 1 7.7 -2.5 3.3 -3.7 3.1 -3.7 4.8 1.6 0.5 1.5 0.7 1.5 3 0 1.3 -0.9 2.7 -1.6 3 -1.6 1 0 0.5 11.9 -0.5 12.5 -0.6 0.4 -2 -0.4 -3.1 -1.7 l-2 -2.3 0.5 2.7 c0.4 1.7 0.1 3.2 -0.9 4.1 -1.3 1.4 -2.1 1.3 -6.7 -0.4 -2.9 -1 -5.4 -1.9 -5.5 -1.9 -1 0 0 -2.3 1.6 -3.7 3.2 -2.7 1.3 -3.6 -2.6 -1.3 -4 2.3 -11.7 4.3 -17.7 4.4 -2.8 0.1 -4.8 0.9 -6.9 2.9 -3.3 3 -5.3 3.3 -8 1.3 -2.2 -1.7 -5.4 -1 -6 1.3 -0.2 1 -0.3 5.5 -0.1 10 l0.4 8.1 -3.3 2 c-1.7 1.1 -3.5 2 -3.8 2 -0.4 0 -2.1 -1.7 -3.9 -3.7z m11.1 -34.8 c0 -0.5 -1.3 -1 -2.8 -1.2 -2.7 -0.3 -2.7 -0.3 -0.8 1.2 2 1.6 3.7 1.6 3.6 0z m-0.6 -7.5 c-0.3 -0.5 -0.1 -2 0.6 -3.2 0.9 -1.6 0.9 -2.3 0 -2.6 -0.6 -0.2 -1.1 -1.2 -1.1 -2.2 0 -1.4 -0.5 -1.6 -3.2 -1.1 -4.2 0.9 -4.9 3.7 -1.3 5.1 1.5 0.6 2.9 1.9 3.2 3 0.3 1.1 1 2 1.5 2 0.5 0 0.6 -0.4 0.3 -1z"/>
  <path d="M191.3 245.5 c0 -2.7 0.2 -3.8 0.4 -2.2 0.2 1.5 0.2 3.7 0 5 -0.2 1.2 -0.4 0 -0.4 -2.8z"/>
  <path d="M55.6 246.5 c-0.3 -0.9 -1.6 -2 -2.8 -2.5 -2 -0.8 -1.9 -0.9 1.2 -0.7 2.8 0.2 3.6 0.7 3.8 2.5 0.4 2.5 -1.3 3 -2.2 0.7z"/>
  <path d="M166 243.1 c-0.9 -1.8 -0.8 -1.9 2 -1.1 2.1 0.6 3.2 0.4 4.1 -0.6 0.9 -1.1 0.7 -1.4 -0.9 -1.4 -1.2 0 -2.4 -0.4 -2.7 -1 -0.3 -0.5 -1.5 -1 -2.6 -1 -1.1 0 -1.9 -0.7 -1.9 -1.6 0 -1.2 0.5 -1.5 2.3 -0.9 1.2 0.4 3.9 0.8 6 0.8 3.3 0.1 3.6 0.3 3.1 2.1 -1.8 6.3 -7.1 8.9 -9.4 4.7z"/>
  <path d="M51 240.6 c0 -0.2 1.6 -0.6 3.5 -0.8 1.9 -0.2 3.5 0 3.5 0.4 0 0.4 -1.6 0.8 -3.5 0.8 -1.9 0 -3.5 -0.2 -3.5 -0.4z"/>
  <path d="M58.3 230.5 c0 -1 0.6 -1.4 1.5 -1 0.8 0.3 2.1 0 2.8 -0.6 0.8 -0.6 1.4 -0.8 1.4 -0.4 0 1 -3.2 3.4 -4.6 3.5 -0.6 0 -1.1 -0.7 -1.1 -1.5z"/>
  <path d="M152.2 229.6 c0.7 -0.8 1.6 -1.2 2.1 -0.9 1.1 0.7 -0.2 2.3 -1.9 2.3 -1.2 0 -1.2 -0.2 -0.2 -1.4z"/>
  <path d="M57 224.6 c0 -1.9 -0.6 -2.6 -2.7 -2.9 -2.7 -0.4 -2.6 -0.4 0.4 -0.6 1.7 0 3.5 0.4 3.8 1 0.4 0.6 1.9 0.7 3.5 0.4 2.5 -0.5 2.8 -0.4 2.3 1.4 -0.4 1.6 -0.9 1.8 -2.9 1.1 -1.6 -0.7 -2.3 -0.6 -2.1 0.2 0.1 0.6 -0.4 1.3 -1 1.5 -0.8 0.3 -1.3 -0.5 -1.3 -2.1z"/>
  <path d="M80.8 211 c-0.3 -1.6 -0.1 -3.5 0.4 -4.2 0.4 -0.8 0.8 0.4 0.8 3 0 4.9 -0.6 5.5 -1.2 1.2z"/>
  <path d="M190 209.6 c0 -0.8 0.5 -1.8 1 -2.1 0.6 -0.3 1 0.3 1 1.4 0 1.2 -0.4 2.1 -1 2.1 -0.5 0 -1 -0.6 -1 -1.4z"/>
  <path d="M116 189 c-3.4 -0.9 -13.5 -2.2 -17.6 -2.4 -1.2 -0.1 -1.9 -0.6 -1.7 -1.2 0.6 -1.7 6.8 -2.2 8.7 -0.8 0.9 0.6 4.7 1.5 8.5 1.8 4.6 0.5 7.1 1.2 7.5 2.2 0.6 1.5 -0.2 1.6 -5.4 0.4z"/>
  <path d="M79.5 182.9 c-4.9 -1 -12.5 -2.3 -16.8 -2.8 -7.9 -0.9 -9.6 -1.5 -8.3 -2.8 2.4 -2.5 37.7 4.2 36.1 6.8 -0.7 1.1 0.1 1.2 -11 -1.2z"/>
  <path d="M136.8 145.3 c-0.5 -13.4 -0.3 -14 6.5 -17 3.1 -1.4 6 -2.3 6.4 -2 0.3 0.4 0 2.6 -0.7 5 -1.1 4 -1 4.8 1 8.8 3.3 6.4 4.2 9.9 2.5 9.9 -0.7 0 -1.6 -1 -1.8 -2.2 -0.4 -2 -0.4 -1.9 -0.6 0.5 -0.2 3.8 -2.1 3.4 -2.3 -0.5 -0.1 -1.8 -0.2 -4 -0.4 -4.8 -0.1 -0.8 -0.2 -2.6 -0.3 -3.9 -0.2 -4.9 -2.6 -0.2 -3.1 6.1 -0.3 3.4 -1 6.3 -1.6 6.5 -0.8 0.3 -1 -1 -0.7 -3.9 0.5 -5.1 -0.8 -12 -2.2 -11.6 -0.6 0.2 -0.9 3.8 -0.7 9.1 0.3 5.5 0 8.7 -0.6 8.7 -0.6 0 -1.2 -3.6 -1.4 -8.7z m9.1 -14.2 c0.1 -1.1 -0.2 -1.1 -1.4 -0.1 -1.6 1.3 -2 4.2 -0.8 5.4 0.8 0.7 2 -2.3 2.2 -5.3z"/>
  <path d="M199.3 135 c0 -3.6 0.2 -5 0.4 -3.2 0.2 1.7 0.2 4.7 0 6.5 -0.2 1.7 -0.4 0.3 -0.4 -3.3z"/>
  <path d="M200.3 123.5 c0 -2.7 0.2 -3.8 0.4 -2.2 0.2 1.5 0.2 3.7 0 5 -0.2 1.2 -0.4 0 -0.4 -2.8z"/>
  <path d="M166 118.8 c-1.9 -0.6 -8.8 -2.8 -15.4 -4.9 -6.5 -2.2 -12.3 -3.9 -13 -3.9 -0.6 0 -4.5 -1.1 -8.6 -2.4 -7.2 -2.2 -17.2 -5.3 -27 -8.1 -2.5 -0.7 -8.5 -2.5 -13.5 -3.9 -4.9 -1.5 -10.3 -3.1 -12 -3.6 -14.3 -4.1 -23.5 -7.3 -23.5 -8.1 0 -1 4 -0.4 7.5 1.1 1.1 0.5 6.7 2.2 12.5 3.9 5.8 1.6 15.2 4.4 21 6.2 5.8 1.7 11.9 3.5 13.5 3.9 1.7 0.5 8.9 2.7 16 5 7.2 2.2 16.4 5 20.5 6.1 4.1 1.1 8.4 2.4 9.5 2.8 3.4 1.4 8.8 3.2 12.5 4.3 1.9 0.5 3.9 1.4 4.5 1.9 1.1 1.1 0.2 1 -4.5 -0.3z"/>
  <path d="M57.1 104.3 c-0.1 -1.7 0.4 -3.5 0.9 -3.8 1.2 -0.7 1.2 2.2 0 5 -0.7 1.7 -0.9 1.5 -0.9 -1.2z"/>
  <path d="M201.2 98.5 c-0.1 -3.4 0.2 -6.5 0.7 -7.1 0.5 -0.5 1.2 -4.1 1.5 -8 l0.7 -7.1 -3.2 -1.6 c-1.8 -0.8 -3.8 -1.3 -4.5 -1 -0.6 0.2 -1.5 0 -1.9 -0.6 -0.3 -0.6 -1.7 -1.1 -3.1 -1.1 -1.4 0 -7.7 -2 -14.2 -4.4 -6.4 -2.4 -16.2 -6.1 -21.7 -8.1 -19.6 -7.2 -37 -13.6 -39 -14.5 -1.1 -0.5 -4.7 -1.8 -8 -3 -12.1 -4.3 -46.1 -17.2 -48.5 -18.5 -1.4 -0.7 -3.8 -1.5 -5.4 -1.9 -2.3 -0.6 -2.6 -1 -1.6 -1.9 1 -0.9 1.4 -0.9 1.7 0.1 0.3 0.6 1.4 1.2 2.5 1.2 1.9 0 1.9 -0.1 -0.5 -2 -1.4 -1.1 -3 -2 -3.6 -2 -0.7 0 -3 -0.9 -5.2 -2.1 -5.6 -2.8 -5.9 -1.8 -0.7 2 2.3 1.7 3.9 3.1 3.6 3.1 -1.9 0 -27.8 -10.6 -30.7 -12.6 -2 -1.3 -4.1 -2.4 -4.7 -2.4 -2 0 -10.7 -4 -10.1 -4.6 0.7 -0.8 11.7 2.8 11.7 3.8 0 0.4 0.9 0.8 2 0.8 1.1 0 2 -0.4 2 -1 0 -0.5 -0.9 -1 -2 -1 -1.1 0 -2 -0.4 -2 -0.9 0 -0.5 -0.8 -1.2 -1.8 -1.4 -0.9 -0.3 0.1 -0.5 2.4 -0.6 2.6 -0.1 6.2 0.9 10.2 2.9 3.4 1.7 6.5 3 6.8 3 0.5 0 32.7 12.6 35.9 14 1.1 0.5 6.3 2.5 11.5 4.4 5.2 1.8 14.9 5.5 21.5 8 13.1 5.1 23.6 9.1 36 13.8 14.8 5.5 16 6 18.5 7.3 1.4 0.7 5.2 2 8.5 3 3.3 0.9 7.6 2.6 9.7 3.6 2.1 1.1 3.8 1.6 3.8 1.2 0 -0.4 0.5 -0.2 1.2 0.5 0.7 0.7 2.6 1.2 4.4 1.2 1.9 0 3.4 0.6 3.8 1.5 0.3 0.8 1.4 1.5 2.5 1.5 1.1 0 2.3 0.5 2.6 1 0.3 0.6 2.2 1 4.1 1 l3.4 0 0 -6.7 c0 -7.9 0.9 -14.3 2 -14.3 0.4 0 0.4 1.7 -0.1 3.8 -1.3 5.6 -1.1 24.2 0.2 24.2 1.5 0 0.7 15.3 -0.9 17.2 -0.6 0.8 -1.2 3.8 -1.5 6.8 l-0.3 5.5 -0.2 -6z m-94.1 -60 c-1.8 -0.8 -4.3 -1.5 -5.5 -1.4 -1.5 0 -1.1 0.4 1.4 1.3 4.9 1.9 8.4 1.9 4.1 0.1z m-9.6 -3.4 c-0.3 -0.6 -1.4 -1.1 -2.3 -1.1 -1.3 0 -1.3 0.2 0.4 1.4 2.1 1.5 3 1.4 1.9 -0.3z m-5.5 -2 c0 -0.5 -0.9 -1.1 -2.1 -1.4 -1.6 -0.4 -1.8 -0.3 -0.8 0.9 1.3 1.6 2.9 1.9 2.9 0.5z m-16 -6 c0 -1.1 -9.7 -5.1 -10.5 -4.3 -0.6 0.7 7.2 5.1 9.3 5.2 0.6 0 1.2 -0.4 1.2 -0.9z m-12.5 -5.1 c-0.3 -0.5 -1.3 -1 -2.1 -1 -0.8 0 -1.2 0.5 -0.9 1 0.3 0.6 1.3 1 2.1 1 0.8 0 1.2 -0.4 0.9 -1z m-25.5 -9.8 c0 -1.3 -1.2 -2.2 -2.2 -1.6 -1 0.6 -0.1 2.4 1.3 2.4 0.5 0 0.9 -0.4 0.9 -0.8z m-7 -4.2 c0 -1.3 -1.1 -1.3 -3 0 -1.2 0.8 -1.1 1 0.8 1 1.2 0 2.2 -0.4 2.2 -1z"/>
  <path d="M125.5 79.3 c-32.4 -10.8 -59.9 -20 -61 -20.4 -1.1 -0.5 -6.9 -2.5 -12.9 -4.5 -6 -2 -12.3 -4.5 -14 -5.5 -1.7 -1.1 -4.3 -2.4 -5.8 -3 -2 -0.8 -2.8 -1.8 -2.8 -3.5 0 -1.3 -0.4 -2.4 -1 -2.4 -0.5 0 -1 -0.4 -1 -0.9 0 -0.5 1.1 -0.8 2.5 -0.7 2.8 0.1 3.1 0.6 1.3 2.4 -1.4 1.4 -0.2 3 2.8 3.6 1 0.2 3 0.8 4.4 1.4 1.4 0.5 3.2 0.7 4 0.5 1.3 -0.4 1.3 -0.3 0 0.6 -1.3 1 -1.3 1.2 0 2 0.8 0.6 1.9 0.6 2.5 0.1 0.7 -0.6 2.8 -0.3 5.5 0.7 9.8 3.5 62.9 21.5 68.5 23.3 3.3 1 19.8 6.5 36.7 12.2 22.9 7.7 30.8 10.7 31.2 12.1 0.2 0.9 -0.1 1.7 -0.7 1.7 -0.7 0 -27.7 -8.9 -60.2 -19.7z"/>
  <path d="M183.5 81.8 c-4.4 -1.7 -21.7 -7.9 -38.5 -13.8 -47.2 -16.7 -73 -25.9 -78.5 -28 -2.7 -1 -9 -3.3 -14 -5 -22.8 -8.1 -38.4 -15 -33.8 -15 0.6 0 1.3 0.4 1.5 0.8 0.5 1.3 4.6 2.8 111.8 41.2 7.4 2.7 20.5 7.4 29 10.5 8.5 3.1 19.7 7 24.8 8.6 5 1.7 9.2 3.2 9.2 3.5 0 1 -4 0 -11.5 -2.8z"/>
  <path d="M179.5 76.4 c-6.6 -2.5 -16.9 -6.2 -23 -8.4 -18.8 -6.5 -37.8 -13.4 -72 -26 -18.1 -6.6 -40 -14.6 -48.5 -17.6 -8.5 -3.1 -16.2 -6.3 -17 -7.1 -1.3 -1.4 -1.3 -1.5 0.5 -0.8 8.8 3.4 30.3 11.5 46.5 17.4 10.7 4 24.2 8.9 30 11.1 5.8 2.1 15.7 5.7 22 8 6.3 2.3 15.7 5.7 20.8 7.6 5.2 1.9 17.6 6.4 27.5 9.9 21.6 7.6 28.7 10.4 26.7 10.4 -0.8 0 -6.9 -2 -13.5 -4.5z"/>
  <path d="M186 75 c-4.1 -1.5 -16.7 -6.1 -28 -10.3 -37.8 -13.8 -64.4 -23.5 -71 -26 -3.6 -1.3 -13.2 -4.9 -21.5 -8 -8.2 -3 -16.1 -6 -17.5 -6.5 -1.4 -0.6 -7 -2.7 -12.5 -4.8 -5.5 -2 -11.6 -4.3 -13.5 -5 -1.9 -0.7 -2.7 -1.3 -1.8 -1.4 0.9 0 6.3 1.8 12 3.9 12.9 5 52.4 19.7 59.8 22.4 14.7 5.2 32.7 11.9 34.5 12.7 1.1 0.5 6.1 2.3 11 4.1 20.3 7.2 54.7 19.9 56.5 20.9 2.7 1.7 -0.4 0.9 -8 -2z"/>
  <path d="M196 65 c-1.2 -0.7 -1.2 -1 -0.1 -1 0.7 0 1.1 -0.6 0.8 -1.5 -0.4 -0.8 -0.1 -1.7 0.5 -2.1 0.6 -0.4 0.8 -0.3 0.4 0.4 -0.3 0.5 0 1.3 0.6 1.6 1.1 0.5 1.1 0.7 0 1.2 -0.6 0.3 -1 1 -0.6 1.5 0.7 1.1 0.3 1.1 -1.6 -0.1z"/>
  <path d="M189.5 57.3 c-6.1 -2.3 -6.1 -2.3 -5.7 -5.9 0.3 -2.6 0.1 -3.5 -0.7 -3 -1.6 1 -1.3 -0.5 0.4 -1.8 1 -0.8 1.6 -4.2 2.1 -11.4 0.4 -5.6 1.1 -10.5 1.5 -10.8 0.5 -0.3 3.3 0.7 6.2 2.3 3.8 2.1 5.3 3.5 5.5 5.3 0.2 1.4 0.9 3.1 1.5 3.9 0.7 0.9 0.8 1.2 0.1 0.8 -0.6 -0.4 -1 0.6 -1 2.6 0 1.8 -0.4 4 -0.8 5 -0.6 1.3 -0.4 1.7 1.3 1.7 1.2 0 2.1 0.5 2.1 1 0 0.6 -0.4 1 -1 1 -0.5 0 -1 1.1 -1 2.5 0 1.4 -0.6 2.5 -1.2 2.5 -0.7 0 -1.4 1.2 -1.5 2.6 -0.2 4 -1.3 4.3 -7.8 1.7z"/>
  <path d="M175.5 55.3 c-2.2 -0.7 -4.9 -1.7 -6 -2.3 -1.1 -0.5 -5.1 -2.1 -9 -3.6 -3.8 -1.4 -8.3 -3.2 -10 -3.9 -5.7 -2.4 -37.4 -14.5 -38 -14.5 -0.3 0 -2.5 -0.8 -4.8 -1.9 -2.3 -1 -8.7 -3.5 -14.2 -5.5 -5.5 -2 -15.8 -6.1 -23 -9 -7.1 -3 -15.1 -6.2 -17.7 -7.1 -2.7 -1 -4.8 -2.1 -4.8 -2.5 0 -0.4 -1.5 -1.1 -3.2 -1.5 -1.8 -0.4 -2.8 -0.9 -2.1 -1.2 0.7 -0.2 2.9 0.4 5 1.4 2.1 1 4 1.8 4.3 1.9 0.3 0 2.1 0.7 4 1.6 1.9 0.8 6 2.3 9 3.3 3 1 5.7 2.1 6 2.4 0.3 0.3 2.1 1.1 4 1.8 7.3 2.6 -0.5 -2.3 -9.2 -5.7 -4.6 -1.8 -11.2 -4.4 -14.8 -5.9 l-6.5 -2.6 5.6 -0.3 c3.8 -0.2 7.2 0.3 10.7 1.7 2.8 1.1 5.4 1.6 5.7 1.2 0.3 -0.5 -0.7 -1.4 -2.2 -1.9 -2.5 -0.9 -2.3 -1 2.3 -1.1 l5.1 -0.1 -0.5 3 c-0.3 2.3 0 3.1 1.4 3.6 1.1 0.3 3.4 1.3 5.2 2.1 1.8 0.8 3.8 1.3 4.5 1 0.6 -0.2 -1 -1.2 -3.6 -2.2 -4.1 -1.5 -4.7 -2.1 -4.7 -4.6 l0 -2.9 7.1 0 7.1 0 -0.6 6.3 -0.7 6.4 5 2.1 c2.9 1.2 5.3 1.7 5.6 1.1 0.5 -0.8 -0.6 -1.4 -6.2 -3.4 -0.9 -0.3 -1.3 -2.5 -1.3 -6.5 l0 -6 7 0 6.9 0 -0.6 9.4 c-0.4 6.5 -0.2 9.5 0.6 10 0.7 0.5 1.1 -0.2 1.1 -2.1 0.1 -3.1 1.1 -10.6 1.5 -11.1 0.1 -0.1 1.4 0.2 2.9 0.8 3.6 1.3 6.3 -0.1 7.1 -4 0.4 -1.7 1.3 -3 2.2 -3 1.3 0 1.4 1.5 0.8 11.8 -0.4 6.4 -0.8 12.1 -0.8 12.6 -0.1 0.5 0.3 1 0.9 1.3 0.7 0.2 1.2 -1.7 1.3 -5.4 0.3 -8.4 0.5 -10.3 1.1 -10.5 0.3 -0.1 1.9 0.3 3.7 0.9 2.9 1.1 3.1 1.4 2.7 5 -1.2 11.9 -1.1 13.2 0.3 13.7 1.1 0.5 1.4 -0.3 1.2 -3.7 -0.2 -4.3 0.8 -18.1 1.7 -22.9 0.5 -2.4 1.1 -2.8 3.7 -2.8 1.8 0.1 4.2 0.6 5.4 1.3 2.2 1.2 2.2 1.2 -0.8 2.6 -3.6 1.6 -6.8 7.8 -6.9 13.2 0 9 5 17.9 10.2 17.9 8.5 0 10.3 -21.4 2.5 -29.8 l-2.2 -2.4 3.5 1.5 c8.7 3.7 8.6 3.5 8.2 7.8 -0.2 2.1 0 3.9 0.6 3.9 0.5 0 1.3 1.9 1.6 4.2 0.4 2.4 1.1 5 1.7 5.8 1.1 1.6 0.7 -3.2 -1 -11.8 -0.5 -2.3 -0.6 -4.4 -0.2 -4.6 0.9 -0.6 21.4 9.2 22.3 10.7 0.8 1.2 0.3 13.5 -1.2 25.7 -0.4 3.9 -0.4 7 0.2 7.7 1.8 2.3 0.3 2.9 -3.7 1.6z m1.5 -1.7 c-0.8 -0.8 -2.8 -1.7 -4.5 -2 -2.7 -0.6 -2.6 -0.4 1 1.4 4.8 2.3 5.4 2.4 3.5 0.6z m-1 -6.5 c0 -0.9 -5.2 -2.2 -5.9 -1.5 -0.4 0.3 3.7 2.2 5.2 2.3 0.4 0.1 0.7 -0.3 0.7 -0.8z m-22.6 -3 c-0.5 -0.5 -3.1 -1.7 -5.9 -2.7 -2.7 -1 -6.1 -2.4 -7.5 -3.1 -1.4 -0.7 -2.8 -1.3 -3.3 -1.3 -0.4 0 -2.6 -0.9 -5 -1.9 -6.8 -3.1 -15.9 -6.2 -16.5 -5.7 -0.2 0.3 0.6 1 1.9 1.5 1.3 0.5 4.4 1.7 6.9 2.6 6.3 2.4 11.2 4.5 13 5.4 0.9 0.5 3 1.2 4.8 1.6 1.8 0.3 3.2 1.1 3.2 1.6 0 0.5 0.8 0.9 1.8 0.9 0.9 0.1 2.8 0.7 4.2 1.5 2.6 1.4 4.1 1.1 2.4 -0.4z m19.8 -14.6 c-3.1 -1.4 -3.2 -1.6 -2.6 -5.7 0.4 -2.4 0.8 -4.4 0.9 -4.6 0.2 -0.2 1.7 0.4 3.4 1.2 1.6 0.9 3.2 1.2 3.5 0.7 0.3 -0.5 0 -1.1 -0.7 -1.4 -0.6 -0.3 -2.9 -1.3 -5.1 -2.2 l-3.8 -1.6 0.4 3.2 c0.3 1.7 0.2 4.9 -0.2 7 -0.4 2.1 -0.6 4 -0.4 4.1 0.1 0.2 2 0.4 4.1 0.5 l3.8 0.2 -3.3 -1.4z m-63.3 -2.9 c-0.2 -0.1 -3.7 -1.5 -7.6 -3 -4 -1.5 -7.3 -3.2 -7.3 -3.7 0 -0.5 -1.3 -0.9 -2.9 -0.9 -1.6 0 -3.4 -0.7 -4.1 -1.5 -0.7 -0.8 -2.2 -1.5 -3.3 -1.5 -1.6 0 -1.3 0.4 1.4 2.3 5.6 3.8 6.3 4.1 5.5 2.9 -0.4 -0.7 -0.1 -1.2 0.9 -1.2 0.8 0 1.8 0.7 2.1 1.5 0.4 0.8 1.4 1.5 2.3 1.5 1 0 2.1 0.3 2.5 0.8 1 0.9 10 4 10.5 3.6 0.2 -0.2 0.2 -0.6 0 -0.8z"/>
  <path d="M26 44 c0 -1.9 0.3 -2.1 1.2 -1.2 0.9 0.9 0.9 1.5 0 2.4 -0.9 0.9 -1.2 0.7 -1.2 -1.2z"/>
  <path d="M182 42 c0 -2.2 0.5 -4 1 -4 0.6 0 1 1.8 1 4 0 2.2 -0.4 4 -1 4 -0.5 0 -1 -1.8 -1 -4z"/>
  <path d="M20 37.8 c0 -1.9 0.2 -2 1 -0.8 1.3 1.9 1.3 3 0 3 -0.5 0 -1 -1 -1 -2.2z"/>
  <path d="M183.1 31 c0 -3.6 0.3 -8.1 0.8 -10.1 0.8 -3.5 0.7 -3.6 -2.8 -4.8 -5.9 -2 -15.1 -6.4 -15.1 -7.3 0 -0.5 1.3 -0.2 3 0.7 4.2 2.2 5.1 1.8 1 -0.5 -1.9 -1.1 -5.1 -2 -7 -2 -1.9 -0.1 -6.4 -1.6 -10 -3.5 l-6.5 -3.4 4.5 0.3 c2.6 0.2 7.6 1.8 12 3.9 4.1 1.9 11 5.1 15.2 7 l7.7 3.5 -0.5 7.4 c-0.3 4 -0.9 9.1 -1.3 11.3 -0.8 3.8 -0.9 3.6 -1 -2.5z m-23.2 -26.9 c-4.5 -2.3 -6.9 -3.1 -6.9 -2.6 0 0.8 7.4 4.4 9 4.4 0.8 0 -0.1 -0.8 -2.1 -1.8z"/>
  <path d="M26.4 35.2 c-0.6 -0.4 -1.9 -2.2 -2.8 -3.9 -1.4 -2.9 -1.4 -3.2 -0.1 -2.7 0.9 0.4 2.3 2 3.1 3.6 1.6 3.2 1.6 4.1 -0.2 3z"/>
  <path d="M139.8 32.1 c-7.3 -5.8 -5.8 -26.8 1.9 -25.9 4.5 0.5 6.7 4.9 7.1 13.8 0.4 6.8 0.1 8.3 -1.8 11 -2.5 3.5 -3.8 3.7 -7.2 1.1z"/>
  <path d="M200.1 27.4 c-0.1 -1.2 0.6 -2.5 1.5 -2.8 1.3 -0.5 1.4 -0.3 0.7 0.6 -0.6 0.7 -1.3 2 -1.6 2.8 -0.4 1 -0.6 0.8 -0.6 -0.6z"/>
  <path d="M14.5 9.9 c-0.4 -0.6 -1.3 -0.8 -2.1 -0.5 -1.7 0.6 -1.9 -1 -0.3 -2 0.6 -0.3 2.1 0.3 3.2 1.5 1.2 1.1 1.6 2.1 1 2.1 -0.7 0 -1.5 -0.5 -1.8 -1.1z"/>
  <path d="M124.3 8.8 c-1.8 -0.9 -2.3 -2 -2.3 -5 0 -3.7 0.1 -3.8 3.5 -3.8 l3.5 0 0 5 c0 5.3 -0.6 5.8 -4.7 3.8z"/>
  <path d="M108.3 5 c-2.3 -0.9 -3.3 -5 -1.3 -5 0.6 0 1 0.7 1 1.5 0 0.8 0.4 1.5 1 1.5 0.5 0 0.7 -0.7 0.4 -1.5 -0.5 -1.1 0.1 -1.5 2.6 -1.5 2.8 0 3.1 0.2 2.4 2.3 -0.6 2 -2.2 3.7 -3.4 3.6 -0.3 0 -1.5 -0.4 -2.7 -0.9z"/>
  <path d="M216 2.9 c0 -1.1 -0.4 -1.7 -1 -1.4 -0.5 0.3 -1 0.1 -1 -0.4 0 -0.6 0.7 -1.1 1.5 -1.1 0.9 0 1.5 0.9 1.5 2.5 0 1.4 -0.2 2.5 -0.5 2.5 -0.3 0 -0.5 -0.9 -0.5 -2.1z"/>
  <path d="M210 1 c-1.2 -0.8 -1.1 -1 0.8 -1 1.2 0 2.2 0.5 2.2 1 0 1.3 -1.1 1.3 -3 0z"/>
 </g>
</svg>