<svg viewBox="0 0 500 500" xmlns="http://www.w3.org/2000/svg" xmlns:bx="https://boxy-svg.com">
  <defs></defs>
  <path style="stroke: rgba(0, 0, 0, 0); stroke-width: 0px; fill: rgb(243, 244, 246);" d="M 105 242.009 H 395.9 A 9.1 9.1 0 0 1 405 251.109 V 251.109 A 9.1 9.1 0 0 1 395.9 260.209 H 105 V 242.009 Z" bx:shape="rect 105 242.009 300 18.2 0 9.1 9.1 0 1@76ed0df7"></path>
  <path style="stroke: rgb(0, 0, 0); stroke-width: 0px; fill: rgb(243, 244, 246);" transform="matrix(0.707107, -0.707107, 0.707107, 0.707107, -21.778713, 254.963943)" d="M 95.116 79.134 H 226.916 A 9.1 9.1 0 0 1 236.016 88.234 V 88.236 A 9.1 9.1 0 0 1 226.916 97.336 H 86.016 V 88.234 A 9.1 9.1 0 0 1 95.116 79.134 Z" bx:shape="rect 86.016 79.134 150 18.202 9.1 9.1 9.1 0 1@bd91875a"></path>
  <path style="stroke: rgb(0, 0, 0); stroke-width: 0px; fill: rgb(243, 244, 246);" transform="matrix(0.707107, 0.707107, 0.707107, -0.707107, 211.778718, 254.768662)" d="M -76.916 -79.134 H 54.884 A 9.1 9.1 0 0 1 63.984 -70.034 V -70.032 A 9.1 9.1 0 0 1 54.884 -60.932 H -86.016 V -70.034 A 9.1 9.1 0 0 1 -76.916 -79.134 Z" bx:shape="rect -86.016 -79.134 150 18.202 9.1 9.1 9.1 0 1@19f81864"></path>
</svg>