<svg viewBox="0 0 500 500" xmlns="http://www.w3.org/2000/svg" xmlnsBx="https://boxy-svg.com">
  <defs></defs>
  <path style="stroke: rgba(0, 0, 0, 0); stroke-width: 0px; fill: rgb(243, 244, 246);" d="M -395 242.009 H -104.1 A 9.1 9.1 0 0 1 -95 251.109 V 251.109 A 9.1 9.1 0 0 1 -104.1 260.209 H -395 V 242.009 Z" transform="matrix(-1, 0, 0, 1, 0, 0)" bxShape="rect -395 242.009 300 18.2 0 9.1 9.1 0 1@a89edfd7"></path>
  <path style="stroke: rgb(0, 0, 0); stroke-width: 0px; fill: rgb(243, 244, 246);" transform="matrix(-0.707107, -0.707107, -0.707107, 0.707107, 288.221242, 245.231323)" d="M -76.916 -79.134 H 54.884 A 9.1 9.1 0 0 1 63.984 -70.034 V -70.032 A 9.1 9.1 0 0 1 54.884 -60.932 H -86.016 V -70.034 A 9.1 9.1 0 0 1 -76.916 -79.134 Z" bxShape="rect -86.016 -79.134 150 18.202 9.1 9.1 9.1 0 1@19f81864"></path>
  <path style="stroke: rgb(0, 0, 0); stroke-width: 0px; fill: rgb(243, 244, 246);" transform="matrix(-0.707107, 0.707107, -0.707107, -0.707107, 288.221283, 254.768661)" d="M -76.916 -79.134 H 54.884 A 9.1 9.1 0 0 1 63.984 -70.034 V -70.032 A 9.1 9.1 0 0 1 54.884 -60.932 H -86.016 V -70.034 A 9.1 9.1 0 0 1 -76.916 -79.134 Z" bxShape="rect -86.016 -79.134 150 18.202 9.1 9.1 9.1 0 1@19f81864"></path>
</svg>