<svg width="19" height="20" viewBox="0 0 19 20" fill="none" xmlns="http://www.w3.org/2000/svg">
<path d="M5.7 0.975C5.7 0.712665 5.91266 0.5 6.175 0.5C6.43734 0.5 6.65 0.712665 6.65 0.975V7.625C6.65 7.88734 6.43734 8.1 6.175 8.1C5.91266 8.1 5.7 7.88734 5.7 7.625V0.975Z" fill="#374151" fill-opacity="0.42"/>
<path d="M12.35 0.975C12.35 0.712665 12.5627 0.5 12.825 0.5C13.0873 0.5 13.3 0.712665 13.3 0.975V7.625C13.3 7.88734 13.0873 8.1 12.825 8.1C12.5627 8.1 12.35 7.88734 12.35 7.625V0.975Z" fill="#374151" fill-opacity="0.42"/>
<path d="M13.68 4.68H15.2C16.774 4.68 18.05 5.95599 18.05 7.53V15.7C18.05 17.274 16.774 18.55 15.2 18.55H3.8C2.22599 18.55 0.95 17.274 0.95 15.7V7.53C0.95 5.95599 2.22599 4.68 3.8 4.68H5.32V3.73H3.8C1.70132 3.73 0 5.43132 0 7.53V15.7C0 17.7987 1.70132 19.5 3.8 19.5H15.2C17.2987 19.5 19 17.7987 19 15.7V7.53C19 5.43132 17.2987 3.73 15.2 3.73H13.68V4.68Z" fill="#374151" fill-opacity="0.42"/>
<path d="M13.3 4.68V3.73H12.35V4.68H13.3Z" fill="#374151" fill-opacity="0.42"/>
<path d="M11.97 4.68V3.73H7.03V4.68H11.97Z" fill="#374151" fill-opacity="0.42"/>
<path d="M6.65 4.68V3.73H5.7V4.68H6.65Z" fill="#374151" fill-opacity="0.42"/>
</svg>
