<svg xmlns="http://www.w3.org/2000/svg" width="16" height="15" fill="none" viewBox="0 0 16 15">
  <path fill="#fff" d="M0 0h16v15H0z"/>
  <path fill="#CBD5E1" d="M13.055 12.492c-.272.366-.276.893.036 1.22.313.328.823.33 1.102-.028a8.603 8.603 0 0 0 1.653-3.67 8.75 8.75 0 0 0-.455-4.841 8.308 8.308 0 0 0-2.946-3.76A7.745 7.745 0 0 0 8 0a7.745 7.745 0 0 0-4.445 1.412A8.309 8.309 0 0 0 .61 5.173a8.75 8.75 0 0 0-.455 4.842 8.604 8.604 0 0 0 1.653 3.67c.28.357.79.355 1.102.028.312-.327.308-.855.036-1.22A6.878 6.878 0 0 1 1.6 8.345c.017-3.687 2.876-6.67 6.4-6.67 3.519 0 6.374 2.975 6.4 6.654v.105a6.878 6.878 0 0 1-1.345 4.057Z"/>
  <path fill="#CBD5E1" d="M12.944 9.434a.971.971 0 0 0-1.412.118L8.65 13.09a1.084 1.084 0 0 0 .113 1.48 1.665 1.665 0 0 0 2.421-.202l1.953-2.397c.615-.756.53-1.892-.193-2.537ZM7.238 14.57a1.084 1.084 0 0 0 .112-1.48L4.468 9.55a.971.971 0 0 0-1.413-.117c-.722.645-.808 1.78-.192 2.537l1.953 2.397c.616.756 1.7.846 2.422.201Z"/>
</svg>
