<?xml version="1.0" encoding="utf-8"?>
<!DOCTYPE svg PUBLIC "-//W3C//DTD SVG 20010904//EN" "http://www.w3.org/TR/2001/REC-SVG-20010904/DTD/svg10.dtd">
<svg version="1.0" xmlns="http://www.w3.org/2000/svg" width="977px" height="593px" viewBox="0 0 977 593" preserveAspectRatio="xMidYMid meet">
 <g fill="#3b82f6">
  <path d="M362 590 c0 -1.6 0.7 -2 3.8 -2 2 0 14.1 -1.6 26.7 -3.5 23.6 -3.6 32.3 -4.3 29.5 -2.5 -1.2 0.8 -1.2 1.2 -0.2 1.8 2.2 1.5 -43.2 8.2 -55.3 8.2 -3.8 0 -4.5 -0.3 -4.5 -2z"/>
  <path d="M293 578.5 c-6.3 -1.9 -15.8 -4.6 -21 -6.1 -8.8 -2.4 -43.9 -12.6 -95 -27.5 -11.8 -3.4 -27.8 -8 -35.5 -10.1 -7.7 -2.2 -27.5 -7.9 -44 -12.8 -16.5 -4.9 -31.5 -9.1 -33.2 -9.5 -2.4 -0.5 -3.3 -1.2 -3.3 -2.7 0 -1.9 0.4 -2 7.8 -1.6 5.6 0.4 14.4 2.5 32.2 7.8 13.5 4 30.8 9 38.5 11.2 7.7 2.1 19.6 5.6 26.5 7.7 6.9 2.2 30.3 9.2 52 15.6 21.7 6.5 44.2 13.3 50 15.1 37.5 12 40 12.9 40 14.7 0 2.3 -1.7 2.2 -15 -1.8z"/>
  <path d="M613 549.2 c0 -1.5 1.3 -2.1 7.8 -3 9.9 -1.6 11.2 -1.5 11.2 0.3 0 0.8 -0.1 1.5 -0.2 1.5 -0.2 0 -4.1 0.7 -8.8 1.5 -10.5 1.9 -10 1.9 -10 -0.3z"/>
  <path d="M636 545 c0 -1.6 0.7 -2 3.5 -2 4 0 4.9 2.4 1.3 3.4 -3.8 1 -4.8 0.7 -4.8 -1.4z"/>
  <path d="M220.5 511.4 c-1.1 -0.3 -5.6 -1.2 -10 -2 -4.4 -0.9 -8.4 -2 -8.9 -2.5 -0.6 -0.5 -2.3 -0.9 -4 -0.9 -4.6 0 -18.9 -3.1 -21.3 -4.6 -1.2 -0.8 -4.2 -1.4 -6.5 -1.4 -2.4 -0.1 -7.2 -0.7 -10.8 -1.6 -6.6 -1.5 -18.4 -3.9 -25.3 -5 -2 -0.4 -4 -1.1 -4.3 -1.5 -0.3 -0.5 -2.1 -0.9 -4.1 -0.9 -2 0 -7.1 -0.9 -11.2 -1.9 -4.2 -1.1 -9.7 -2.3 -12.3 -2.6 -4.2 -0.6 -4.8 -0.9 -4.8 -3.1 0 -1.9 -0.5 -2.4 -2.5 -2.4 -1.4 0 -3.3 0.4 -4.3 0.9 -0.9 0.6 -10.2 2 -20.5 3.2 -15.9 1.8 -19.7 2 -25 1 -9.3 -1.8 -10 -2.1 -8.8 -3.5 0.7 -0.9 0.7 -1.6 -0.1 -2.4 -1.8 -1.8 -2.8 -1.4 -2.8 1.1 0 1.9 -0.2 1.8 -2 -1.1 -3.9 -6.3 -4.3 -11 -8.5 -93.2 -0.9 -16.8 -2.5 -46.7 -3.5 -66.5 -1.1 -19.8 -2.2 -44.3 -2.5 -54.5 -0.3 -10.2 -1 -26.6 -1.5 -36.5 -0.5 -9.9 -1.4 -26.8 -2 -37.5 -0.6 -10.7 -1.5 -26.5 -2 -35 -1.3 -20.4 -1.7 -27.6 -2.9 -51.5 -0.6 -11 -1.4 -24.5 -2 -30 -0.5 -5.5 -1.5 -21 -2.2 -34.5 -1.2 -24.3 -1.2 -24.5 0.9 -28.7 2.6 -5.1 6.2 -7.9 11.6 -9.4 5.4 -1.5 10.4 -0.8 33.1 4.6 23.8 5.7 49.2 11.4 70.5 15.9 9.1 1.9 25.3 5.6 36 8.1 10.7 2.5 27.1 6.1 36.5 8 9.3 1.9 31.6 6.8 49.5 10.9 17.9 4 34.5 7.7 37 8.1 2.5 0.4 15.1 3.1 28 6 12.9 2.9 33 7.2 44.5 9.5 11.6 2.3 38.8 8.2 60.6 13.1 21.8 4.9 40.4 8.9 41.4 8.9 3 0 54.9 12 58 13.4 9.6 4.3 14.5 12.6 16.5 28.2 0.5 3.9 3.2 17.9 6 31 9.3 43.7 13 62 13.5 66.5 0.2 2.4 2.5 14.3 5 26.4 10.5 50.2 13.5 65.3 13.9 69.5 0.3 2.5 4.6 24 9.6 47.7 5.4 25.7 9.2 46.5 9.5 51.4 0.2 4.5 0.6 8.4 0.9 8.7 0.3 0.3 0.1 1.2 -0.6 1.9 -1.3 1.6 0.4 3.3 3.5 3.3 0.9 0 1.7 0.5 1.7 1 0 0.6 0.9 1 2 1 1.1 0 2 -0.4 2 -1 0 -1.1 5.2 -1.3 8.8 -0.4 1.3 0.4 2.2 1.4 2.2 2.5 0 1.5 0.7 1.9 3.5 1.9 2.9 0 3.5 -0.4 3.5 -2.1 0 -2.1 0.3 -2.1 5.8 -1.5 3.1 0.4 5.8 1.1 6 1.6 0.2 0.5 4 0.6 8.8 0.3 8.2 -0.6 8.4 -0.6 8.4 1.7 l0 2.2 11.3 -0.8 c16.6 -1.3 36.7 -1 37.7 0.6 0.6 1 2.7 1.1 8.3 0.6 4.1 -0.4 11.1 -0.4 15.6 0 7 0.6 8.1 0.9 8.1 2.5 0 1.4 0.7 1.9 2.5 1.9 1.4 0 2.5 -0.4 2.5 -1 0 -1.1 27.7 -1.4 30.4 -0.4 0.9 0.4 1.6 1.8 1.6 3.4 0 3.3 1.1 3.1 -26.5 5.5 -9.3 0.8 -28 2.6 -41.5 4 -13.5 1.3 -34.4 3.3 -46.5 4.4 -12.1 1.2 -25.8 2.5 -30.5 3.1 -14.1 1.7 -82.6 8.3 -140 13.5 -15.1 1.4 -34 3.1 -42 4 -8 0.8 -22.4 2.1 -32 3 -9.6 0.8 -21.8 1.9 -27 2.5 -5.2 0.6 -16.7 1.7 -25.5 2.5 -8.8 0.8 -27.7 2.6 -42 3.9 -14.3 1.4 -26.9 2.6 -28 2.6 -1.1 0 -10.1 0.8 -20 1.9 -20.5 2.1 -35.1 3.1 -38 2.5z m167.3 -24.1 c-1 -0.2 -2.8 -0.2 -4 0 -1.3 0.2 -0.5 0.4 1.7 0.4 2.2 0.1 3.2 -0.1 2.3 -0.4z m11 -1 c-1 -0.2 -2.6 -0.2 -3.5 0 -1 0.3 -0.2 0.5 1.7 0.5 1.9 0 2.7 -0.2 1.8 -0.5z m-258.8 -52.3 c124.9 -5.7 325.4 -14.3 396 -17.1 16.2 -0.6 29.6 -1.2 29.7 -1.3 0 0 -8.1 -41.3 -18.2 -91.6 -10 -50.3 -22.4 -112.9 -27.4 -139 -5.1 -26.1 -9.8 -48.9 -10.5 -50.5 l-1.3 -3 -65.4 -12.4 c-153 -28.8 -289.4 -54.9 -345.8 -66.2 -33.2 -6.6 -60.5 -11.9 -60.7 -11.7 -0.2 0.2 1.4 29.6 3.6 65.3 3.8 63.4 17.4 296.1 18.6 318 0.3 6.1 0.7 11.6 0.9 12.2 0.3 0.9 2.4 1.1 7.7 0.8 4 -0.3 36.8 -1.9 72.8 -3.5z"/>
 </g>
 <g fill="#989593">
  <path d="M356.5 591.3 c-18.4 -1.2 -41 -6.1 -64 -13.8 -21.6 -7.2 -36.2 -11.7 -77.5 -24 -21.7 -6.4 -45.1 -13.4 -52 -15.6 -6.9 -2.1 -18.8 -5.6 -26.5 -7.7 -7.7 -2.2 -25 -7.2 -38.5 -11.2 -19.4 -5.8 -26.1 -7.3 -32 -7.5 -14.6 -0.5 -25.6 -6.1 -27.9 -14.3 -0.8 -2.8 -0.7 -3.2 0.9 -3.2 1 0 2.1 -0.7 2.4 -1.6 0.9 -2.2 0.8 -2.4 -0.9 -2.4 -0.8 0 -1.5 0.7 -1.5 1.5 0 3.3 -2.8 1.3 -3.8 -2.7 -1 -3.7 -0.9 -4.6 0.6 -6.1 1.7 -1.6 2.3 -1.7 8.8 -0.3 5.2 1.1 8.8 1.3 13.5 0.6 11.8 -1.6 15 -1.9 21.7 -2.6 3.7 -0.4 7.2 -1 7.7 -1.4 0.6 -0.4 4.6 -1 9 -1.3 4.4 -0.3 7.2 -0.3 6.3 0 -1.6 0.4 -3.5 4 -2.6 4.8 0.2 0.2 2.3 0.7 4.6 1.1 3.8 0.6 4.2 0.5 4.2 -1.5 0 -2.8 1.8 -2.7 2.2 0.1 0.2 1.9 1.5 2.6 6.3 4 8.2 2.3 10.6 2.2 11.2 -0.2 0.7 -2.5 2.3 -2.6 2.3 -0.1 0 2.8 1.7 3.6 10.4 5.3 7.5 1.5 7.9 1.5 8.3 -0.3 0.7 -2.4 2.3 -2.5 2.3 -0.1 0 2 3 3.2 12 5.2 7.1 1.5 9 1.3 9 -1 0 -1.2 0.7 -2 1.6 -2 0.9 0 1.4 0.7 1.2 1.8 -0.4 2.2 4.2 4.7 11.3 6 3 0.6 6.6 1.3 8.1 1.7 2.2 0.6 2.7 0.3 3 -1.6 0.4 -3.1 2.8 -3.7 2.8 -0.7 0 2.8 2.9 4.3 13 6.4 11.5 2.4 16 2.1 16 -1 0 -0.8 -3.6 -1.9 -9.7 -3.1 -9.8 -1.9 -9.8 -1.9 -5.3 -2.6 18.9 -3.1 34.5 -3.3 46.9 -0.7 6.1 1.3 4.8 2.6 -2.9 2.7 -2.4 0.1 -9.3 0.6 -15.2 1.3 -9.3 1 -10.8 1.5 -10.8 3 0 2.2 0 2.2 22.5 -0.3 15.9 -1.8 23.9 -2.6 28.3 -2.8 0.8 -0.1 1.2 -0.9 1 -1.8 -0.3 -1.7 -5.7 -3.3 -16.1 -4.8 -2.7 -0.3 -4.7 -0.9 -4.4 -1.1 0.7 -0.7 30.5 -3.5 34.7 -3.3 1.9 0.1 4.3 -0.2 5.3 -0.6 1 -0.4 2.7 -0.1 4.2 0.9 1.4 0.9 4.6 1.9 7.1 2.3 8.4 1.1 4.2 2 -19.3 3.9 -7.2 0.6 -8.3 0.9 -8.3 2.5 0 1.1 0.6 1.9 1.3 1.8 0.6 0 9.1 -0.9 18.7 -2 16.5 -1.9 23.9 -2.7 26.8 -2.8 0.6 -0.1 1.2 -0.7 1.2 -1.5 0 -1.5 -1.4 -1.9 -12.2 -3.6 -9.1 -1.4 -11 -2.1 -9.8 -4 0.7 -1.1 1.2 -1.2 1.8 -0.3 0.6 0.9 5.1 0.9 19.7 -0.2 16.2 -1.1 19.2 -1.1 20.6 0.1 0.8 0.8 3.1 1.5 5 1.5 1.9 0.1 4.8 0.5 6.4 0.8 l3 0.7 -4 0.7 c-2.2 0.3 -7.1 0.9 -11 1.2 -14 1.1 -16.5 1.6 -16.5 3.2 0 1.3 1 1.4 5.3 0.9 2.8 -0.3 12.7 -1.3 22 -2.3 19.8 -2 21.4 -3.3 7 -5.8 -13.3 -2.2 -14.5 -2.6 -13.3 -4.5 0.8 -1.2 1.2 -1.3 1.9 -0.2 0.7 1.1 2.9 1.2 12.7 0.2 18.2 -1.7 28.4 -3.1 28.9 -4 0.5 -0.8 -7.7 -2 -14.2 -2 -2.4 0 -4.3 -0.4 -4.3 -1 0 -0.5 2 -1 4.5 -1 2.7 0 4.5 -0.5 4.5 -1.1 0 -0.8 0.4 -0.8 1.3 -0.1 0.8 0.7 4.1 0.8 9.2 0.4 7.9 -0.7 25.7 0.7 27.1 2.1 0.4 0.4 -2 0.7 -5.3 0.7 -11.6 0 -21.3 1.2 -21.3 2.6 0 0.8 0.8 1.5 1.8 1.6 3.7 0.3 5 0.5 12.4 1.8 4.3 0.8 7.6 1.5 7.5 1.6 -0.2 0.2 -19.7 2.4 -34.9 4 -4.1 0.4 -5.8 1 -5.8 2 0 1 0.7 1.3 2.3 0.9 1.2 -0.2 10.8 -1.2 21.2 -2 10.5 -0.9 19.7 -1.9 20.5 -2.2 0.8 -0.3 3.1 -0.6 5 -0.7 2.4 -0.1 3.5 -0.6 3.5 -1.6 0 -0.8 -0.4 -1.5 -1 -1.6 -5.3 -0.3 -22.5 -2.9 -22.5 -3.4 0 -0.3 6.2 -1.2 13.7 -1.8 7.5 -0.6 14.1 -1.6 14.6 -2.1 0.5 -0.5 -2.2 -1.2 -6.9 -1.7 -4.4 -0.4 -8.2 -0.9 -8.6 -1 -0.5 -0.1 -1.7 -0.2 -2.8 -0.3 -1.1 0 -2 -0.5 -2 -1 0 -0.4 2.3 -0.6 5 -0.3 3.7 0.3 5 0.1 5 -0.9 0 -0.9 0.3 -1 1 -0.3 0.6 0.6 3.6 0.7 7.8 0.3 6.1 -0.7 29.8 0.9 28.7 1.9 -0.2 0.2 -5.9 0.8 -12.6 1.3 -11.4 0.9 -13.9 1.3 -12.8 2.3 0.8 0.7 35.4 -2.8 36 -3.7 0.4 -0.5 1.6 -0.6 2.8 -0.2 1.9 0.6 21.8 -0.8 29.9 -2.1 4.9 -0.8 3.9 -1.9 -2 -2.2 -7.3 -0.4 -16.3 -1.9 -12.2 -2.1 1.6 0 3.5 -0.6 4.1 -1.2 0.6 -0.6 1.3 -0.7 1.7 -0.1 0.7 1.1 25.9 0.3 26.7 -1 0.8 -1.2 28.5 -2 32.9 -1 3.1 0.8 2.7 1 -4.7 1.7 -9.4 0.9 -10.2 2.5 -1.3 2.5 4.8 0 6.1 0.4 7 1.9 0.5 1.1 0.7 2.2 0.3 2.4 -0.5 0.3 -6.6 1 -13.8 1.7 -7.1 0.6 -31 2.9 -53 5 -22 2.2 -44 4.3 -48.9 4.7 -5.7 0.5 -9.1 1.3 -9.4 2.1 -0.5 1.6 1 1.6 31.3 -1.3 14.3 -1.3 35.9 -3.4 48 -4.5 82.1 -7.7 99.5 -9.7 99.5 -11.2 0 -0.8 -4.2 -1.3 -7 -0.9 -15.5 2.6 -33.6 3.8 -32.5 2.2 0.3 -0.5 -0.1 -1.6 -0.9 -2.4 -1.3 -1.3 -1.1 -1.6 1.2 -2.7 l2.7 -1.2 -2.3 -0.9 c-1.2 -0.5 -2.9 -0.6 -3.8 -0.2 -1.2 0.4 -1.5 0.2 -1.2 -0.8 0.3 -1 3 -1.6 9.2 -2 5 -0.3 9.2 -1.1 9.9 -1.9 1 -1 0.2 -1.1 -4.1 -0.7 -3.2 0.4 -5 0.2 -4.7 -0.3 0.4 -0.6 -0.6 -1 -2 -1 -1.5 0 -2.4 -0.4 -2 -1 0.3 -0.5 1.8 -1 3.3 -1 2.1 0 2.4 -0.2 1.2 -1 -0.8 -0.5 -2.5 -1 -3.7 -1 -1.3 0 -2.3 -0.4 -2.3 -1 0 -0.6 3.4 -1 8.1 -1 5.4 0 7.8 -0.3 7.4 -1.1 -0.4 -0.5 -2.6 -0.9 -4.8 -0.7 -3.4 0.2 -4.2 0 -4.1 -1.4 0.1 -1.1 -0.4 -1.4 -1.4 -1.1 -1.1 0.5 -1.3 0.3 -0.7 -0.7 0.6 -1 -0.8 -1.1 -7.6 -0.5 -4.6 0.4 -11.8 0.9 -15.9 1.1 -4.1 0.2 -11.6 0.8 -16.7 1.2 -5 0.5 -10.9 0.6 -13 0.3 -3 -0.6 -1.9 -0.8 5.6 -1.3 5.2 -0.4 9.7 -1.1 10 -1.6 1 -1.5 34.5 -3.5 38.3 -2.3 1.8 0.6 16.1 1.7 31.8 2.6 15.7 0.9 34.4 2 41.5 2.5 18.2 1.4 56.7 3.9 77.5 5.1 23.8 1.3 24 1.3 24 4.9 0 3.4 -0.6 3.6 -11.5 4.5 -4.4 0.3 -14.1 1.2 -21.5 2 -7.4 0.8 -25.6 2.6 -40.5 4 -14.8 1.4 -33.5 3.2 -41.5 4 -8 0.8 -26 2.6 -40 4 -14 1.4 -27.4 2.8 -29.7 3.1 -4.2 0.6 -5.3 1.6 -3.3 2.9 0.6 0.3 1 2.2 1 4.1 l0 3.4 -6 0 -6 0 0 -3.4 c0 -1.9 0.6 -3.6 1.3 -3.9 0.6 -0.2 0.9 -0.8 0.5 -1.2 -0.4 -0.4 -22 1.4 -48 3.9 -26 2.6 -52 5.1 -57.8 5.7 -15.1 1.3 -16 1.6 -16 4.5 0 2.1 -0.5 2.4 -3.5 2.4 -3.1 0 -3.5 -0.3 -3.6 -2.7 -0.2 -2.4 -0.2 -2.5 -0.6 -0.5 -0.4 1.9 -1.1 2.2 -4.9 2.2 -2.4 0 -4.4 -0.4 -4.4 -1 0 -0.5 -1.8 -1 -4 -1 -3.8 0 -4 0.2 -4 3 0 2.7 -0.3 3 -3.4 3 -1.9 0 -3.6 -0.4 -3.8 -0.8 -0.1 -0.5 -2.7 -1.2 -5.5 -1.5 -4.3 -0.5 -5.3 -0.3 -5.3 0.8 0 1.1 -1.4 1.5 -5.2 1.6 -2.9 0.1 -4.1 0.4 -2.5 0.6 2.3 0.4 2.7 0.9 2.7 3.9 0 3.2 -0.2 3.4 -3.4 3.4 -1.9 0 -3.6 -0.5 -3.8 -1 -0.5 -1.5 -5.8 1.2 -5.8 2.9 0 1.1 -1.3 1.2 -6.5 0.6 -3.6 -0.3 -6.5 -0.4 -6.5 0 0 2.1 3.4 3.5 8.4 3.5 l5.6 0 0 3.5 c0 2.4 -0.5 3.5 -1.5 3.5 -0.9 0 -1.5 0.9 -1.5 2.5 0 2.1 -0.5 2.5 -3 2.5 -1.9 0 -3 0.5 -3 1.4 0 1 -1.3 1.6 -3.7 1.8 -3 0.3 -2.2 0.6 3.5 1.2 6.1 0.7 7.2 1.2 7.2 2.7 0 1.4 0.7 1.9 3 1.9 2.8 0 3 0.3 3 3.5 0 1.9 -0.4 3.5 -1 3.5 -0.5 0 -1 1.5 -1 3.4 0 3.3 -0.1 3.4 -5.4 4 -6 0.8 -12.7 -0.1 -13.8 -1.8 -0.4 -0.6 -0.8 -4.4 -0.8 -8.3 0 -4.2 -0.4 -7.3 -1 -7.3 -0.5 0 -1 0.6 -1 1.4 0 0.8 -0.8 1.7 -1.7 1.9 -1.5 0.4 -1.5 0.6 0.5 1.2 1.8 0.6 2.2 1.5 2.2 5.1 0 4 -0.2 4.4 -2.5 4.4 -2.1 0 -2.5 0.5 -2.5 3 l0 3 -17.7 -0.1 c-10.2 0 -21.2 -0.6 -25.8 -1.4 -12.7 -2.1 -24.7 -4.5 -29 -5.7 -2.2 -0.6 -6.7 -1.7 -10 -2.4 -3.3 -0.7 -12.5 -2.6 -20.4 -4.3 -7.9 -1.7 -15.9 -3.1 -17.7 -3.1 -1.9 0 -3.4 -0.4 -3.4 -0.8 0 -1.1 -9.1 -3.2 -13.6 -3.2 -3.3 0 -3.4 0.1 -3.4 4 0 3.1 -0.4 4 -1.7 4.1 -1.1 0 -1.3 0.3 -0.5 0.6 0.6 0.2 1.2 1.3 1.2 2.4 0 1.4 0.7 1.9 3 1.9 1.7 0 3 0.3 3 0.8 0 0.9 6.7 3.9 11.7 5.1 6.6 1.7 21.7 6.2 23.8 7.1 1.1 0.5 3.1 1.2 4.5 1.5 5.6 1.5 22.9 6.9 29 9.1 13.2 4.8 38.6 12.4 48.4 14.5 10 2.2 10.2 2.2 23.1 0.5 7.1 -1 17.1 -2.7 22 -3.7 8.4 -1.8 17 -3 35.5 -4.9 15.7 -1.6 44 -5.2 55.5 -7 6.6 -1 15.6 -2.4 20 -3 4.4 -0.7 17.7 -2.7 29.5 -4.6 11.8 -1.9 22.7 -3.4 24.2 -3.4 3.4 0 3.8 2.5 0.6 3.3 -2.8 0.7 -50.7 8.5 -74.3 12.2 -22.9 3.6 -53.9 9.6 -54.3 10.6 -0.2 0.4 -0.9 0.6 -1.6 0.3 -0.7 -0.3 -3.3 0 -5.7 0.6 -5.9 1.6 -38.9 6.6 -46.4 7.2 -3.3 0.2 -8.2 0.2 -11 0.1z m-258.5 -82.8 c0 -0.8 -0.4 -1.5 -1 -1.5 -0.5 0 -1 -0.7 -1 -1.5 0 -0.8 -0.9 -1.5 -1.9 -1.5 -1.1 0 -2.3 -0.4 -2.6 -1 -1.2 -2 -2.5 -1 -2.5 1.9 0 2.3 0.6 3.2 2.8 3.9 4 1.5 6.2 1.4 6.2 -0.3z m-22.2 -8.6 c-1.8 -1.1 -2.3 0.7 -0.6 2.5 1.1 1.2 1.3 1.2 1.6 -0.1 0.2 -0.9 -0.2 -1.9 -1 -2.4z m467.1 -30 c7.1 -0.9 9 -1.4 8 -2.3 -1 -0.9 -17.9 -1.4 -17.4 -0.6 0.4 0.6 2.3 1.1 4.3 1.1 3.1 0.2 2.8 0.3 -1.8 0.9 -3 0.5 -8.1 0.8 -11.2 0.9 -3.5 0.1 -5.8 0.5 -5.8 1.2 0 1.2 9.4 0.7 23.9 -1.2z m103.5 -1.3 c7.5 -0.7 11.1 -1.5 11.4 -2.5 0.3 -1 -0.5 -1.2 -3.9 -0.8 -17.3 2.1 -30.5 3.7 -31.1 3.7 -0.5 0 -0.8 0.5 -0.8 1.1 0 1 1 1 24.4 -1.5z m-40.6 -1.3 c-1.6 -0.2 -4 -0.2 -5.5 0 -1.6 0.2 -0.3 0.4 2.7 0.4 3 0 4.3 -0.2 2.8 -0.4z m-10.3 -1.3 c-0.3 -0.4 3.3 -1.1 8 -1.5 4.7 -0.4 8.5 -1.1 8.5 -1.6 0 -1.2 -6.2 -1.1 -9.6 0.1 -1.4 0.6 -6.2 1.1 -10.5 1.2 -7.4 0.2 -10.2 1.1 -6.1 2.1 2.9 0.7 10.2 0.4 9.7 -0.3z m84.8 -0.7 c3 -0.3 4.7 -1 4.7 -1.9 0 -1 -1.4 -1.4 -4.7 -1.4 -3 0 -4.3 0.3 -3.5 0.9 0.9 0.5 -2.1 1.1 -7.7 1.5 -5.3 0.5 -9.1 1.2 -9.1 1.8 0 1 7.8 0.7 20.3 -0.9z m32 -4.2 c1.4 -1.4 0 -1.4 -13.5 0.1 -6.8 0.7 -10.8 1.6 -10.8 2.3 0 1.4 22.7 -0.8 24.3 -2.4z m-76.8 0.5 l6 -1.3 -4.7 -0.8 c-2.6 -0.4 -5.3 -0.5 -6 -0.2 -0.7 0.3 -0.2 0.6 1.2 0.8 1.4 0.1 -2 0.7 -7.5 1.4 l-10 1.2 7.5 0.1 c4.1 0.1 10.2 -0.5 13.5 -1.2z m-36.7 -0.3 c-1 -0.2 -2.6 -0.2 -3.5 0 -1 0.3 -0.2 0.5 1.7 0.5 1.9 0 2.7 -0.2 1.8 -0.5z m131.4 -0.8 c4.4 -0.4 6.8 -1.1 7.2 -2.1 0.4 -1 -0.3 -1.4 -2.9 -1.4 -1.9 0 -3.5 0.5 -3.5 1 0 0.6 -1.9 1 -4.2 1 -6 0 -11.8 1.1 -11.8 2.2 0 0.5 1.9 0.7 4.3 0.4 2.3 -0.3 7.2 -0.8 10.9 -1.1z m-65.9 -0.1 c2.3 -0.4 3.7 -1.2 3.7 -2.2 0 -1.2 -0.9 -1.3 -4.7 -0.7 -2.7 0.4 -8 1 -12 1.4 -3.9 0.3 -7.5 1 -7.9 1.4 -0.9 0.9 15.6 0.9 20.9 0.1z m43.5 -2 c3.9 -0.3 7.2 -1 7.2 -1.5 0 -0.5 1.2 -0.9 2.6 -0.9 1.6 0 2.4 -0.5 2.2 -1.2 -0.3 -0.9 -2.6 -1.2 -7.9 -0.9 -4.1 0.1 -7.6 0.5 -7.8 0.7 -0.2 0.2 1.6 0.7 4 1.1 l4.4 0.7 -5 0.7 c-7.6 1.1 -23.6 0.9 -20.5 -0.2 1.7 -0.6 0.5 -0.7 -3.9 -0.4 -3.5 0.3 -7.9 0.5 -9.7 0.5 -2.4 0 -3.4 0.5 -3.4 1.5 0 1.3 2.1 1.5 15.3 1 8.3 -0.3 18.5 -0.8 22.5 -1.1z m48 -0.3 c0.6 -0.1 1.2 -0.5 1.2 -1.1 0 -0.5 -1.7 -1 -3.9 -1 -6.5 0 -13.1 1.2 -13.1 2.4 0 0.9 2 1 7.3 0.5 3.9 -0.4 7.8 -0.8 8.5 -0.8z m-133.8 -0.1 l-2.5 -0.7 2.5 -0.6 c3.3 -0.7 -13 0.4 -19.5 1.3 -3.5 0.5 -0.8 0.7 8.5 0.7 7.4 -0.1 12.4 -0.4 11 -0.7z m26 -3.2 c0.9 -0.5 -1.5 -0.6 -6 -0.2 -13.2 1.2 -17 2.2 -6 1.7 5.8 -0.3 11.2 -1 12 -1.5z m6.8 1.5 c-1 -0.2 -2.6 -0.2 -3.5 0 -1 0.3 -0.2 0.5 1.7 0.5 1.9 0 2.7 -0.2 1.8 -0.5z m44.5 -1 c-1.3 -0.2 -3.5 -0.2 -5 0 -1.6 0.2 -0.5 0.4 2.2 0.4 2.8 0 4 -0.2 2.8 -0.4z m-94.3 -1.3 c1.9 -1.2 -5.7 -1.3 -11.5 -0.1 -3.6 0.8 -3.4 0.9 3 1 3.9 0 7.7 -0.4 8.5 -0.9z m78.9 -2 c4.1 -0.7 4.2 -0.8 1.1 -0.8 -1.9 0 -9.3 0.6 -16.5 1.3 l-13 1.4 11.9 -0.6 c6.6 -0.3 14 -0.9 16.5 -1.3z m-54.4 0 c0.4 -0.6 -0.6 -1 -2.2 -1 -2.2 0 -2.5 0.2 -1.3 1 1.9 1.2 2.7 1.2 3.5 0z m8.3 -1.7 c-1 -0.2 -2.6 -0.2 -3.5 0 -1 0.3 -0.2 0.5 1.7 0.5 1.9 0 2.7 -0.2 1.8 -0.5z m-17 -2 c-1 -0.2 -2.6 -0.2 -3.5 0 -1 0.3 -0.2 0.5 1.7 0.5 1.9 0 2.7 -0.2 1.8 -0.5z"/>
  <path d="M555 557.2 c0 -1.5 1.3 -2.1 7.8 -3 10.1 -1.6 12.2 -1.5 12.2 0.3 0 0.8 -0.1 1.5 -0.2 1.5 -0.2 0 -4.1 0.7 -8.8 1.5 -10.7 1.9 -11 1.9 -11 -0.3z"/>
  <path d="M580 553 c0 -1.6 0.7 -2 3.5 -2 4 0 4.9 2.4 1.3 3.4 -3.8 1 -4.8 0.7 -4.8 -1.4z"/>
  <path d="M597.8 552.3 c-2.6 -0.6 -2.2 -3.2 0.5 -3.8 1.2 -0.2 17.3 -2.9 35.7 -6 18.4 -3 52.8 -8.6 76.3 -12.5 23.6 -3.8 43.7 -7 44.8 -7 2.7 0 2.4 2.7 -0.3 3.3 -1.3 0.3 -9.5 1.7 -18.3 3.2 -23.9 4 -58.3 10 -92.5 16.2 -16.8 3 -32.9 5.4 -35.9 5.4 -2.9 0 -6.1 0.3 -7 0.8 -0.9 0.4 -2.4 0.6 -3.3 0.4z"/>
  <path d="M761 523 c0 -1.6 0.7 -2 3.5 -2 4 0 4.9 2.4 1.3 3.4 -3.8 1 -4.8 0.7 -4.8 -1.4z"/>
  <path d="M386 515 c0 -3.9 0.1 -4 3.5 -4 3.4 0 3.5 0.1 3.5 4 0 3.9 -0.1 4 -3.5 4 -3.4 0 -3.5 -0.1 -3.5 -4z"/>
  <path d="M197.1 496.1 c-1 -0.6 -0.9 -1 0.5 -1.5 2 -0.8 2.5 -0.4 1.6 1.1 -0.4 0.7 -1.3 0.9 -2.1 0.4z"/>
  <path d="M201 494.9 c0 -1.7 0.3 -2 0.9 -1 0.6 0.9 1.1 1 1.5 0.2 0.4 -0.6 1.7 -1.1 2.9 -1.1 3.5 -0.1 16.2 -0.9 16.2 -1 0 -0.3 3.7 -0.7 12 -1.4 18 -1.5 27.1 -2.9 28.8 -4.4 1.5 -1.4 1.7 -1.3 1.7 0.2 0 1.7 0.5 1.7 14 0.1 1.9 -0.2 7.1 0.2 11.5 0.9 9.5 1.5 7.8 2.2 -8 3.1 -5.5 0.4 -11.6 0.8 -13.5 1 -1.9 0.3 -8.4 0.7 -14.5 1 -6 0.3 -15 1 -19.8 1.6 -4.8 0.6 -9.5 0.8 -10.4 0.5 -0.8 -0.4 -2.1 -0.2 -2.7 0.3 -0.6 0.5 -5.5 1.3 -10.9 1.7 l-9.7 0.7 0 -2.4z"/>
  <path d="M935 492 c0 -1.5 0.7 -2 2.5 -2 2 0 2.5 -0.5 2.5 -2.4 0 -4.9 -0.8 -5.6 -7 -5.6 -6 0 -7 -0.7 -7 -5.1 0 -1 -0.7 -1.9 -1.5 -1.9 -0.8 0 -1.5 -0.4 -1.5 -0.9 0 -0.5 -1.1 -1.2 -2.4 -1.5 -1.3 -0.3 -2.6 -1.6 -3 -2.8 -1.3 -5.2 -1.4 -5.1 10.7 -4.4 29.5 1.6 45.3 3 46.5 3.9 1.6 1.3 1.5 4.4 -0.4 10 -2.3 6.9 -7.8 9.9 -23 12.6 -15 2.7 -16.4 2.7 -16.4 0.1z"/>
  <path d="M181 490.8 c0 -0.4 1.5 -0.8 3.4 -0.8 1.8 0 5.5 -0.3 8.2 -0.6 3.4 -0.5 4.6 -0.3 3.9 0.4 -1.2 1.2 -15.5 2.2 -15.5 1z"/>
  <path d="M198.2 489.5 c0.3 -0.3 3.4 -0.8 6.9 -1.1 3.5 -0.3 6.9 -0.7 7.6 -0.9 0.7 -0.2 1.5 0 1.7 0.4 0.3 0.5 -1.5 1.1 -4.1 1.5 -5.6 0.7 -12.8 0.8 -12.1 0.1z"/>
  <path d="M316.9 486.8 c-2.4 -0.4 -7.5 -0.8 -11.4 -0.8 -4.9 -0.1 -6.4 -0.4 -5 -1 1.1 -0.5 3.4 -0.9 5.1 -0.9 1.6 -0.1 3.5 -0.6 4.2 -1.3 0.7 -0.7 1.2 -0.8 1.2 -0.2 0 0.6 5.5 1 14.3 1.1 7.8 0 15.8 0.5 17.7 1 2.9 0.8 1.5 1.1 -9.1 1.8 -7 0.6 -14.7 0.7 -17 0.3z"/>
  <path d="M159 486.6 c0 -0.9 4 -1.3 4.6 -0.5 0.3 0.5 -0.6 0.9 -2 0.9 -1.4 0 -2.6 -0.2 -2.6 -0.4z"/>
  <path d="M268.5 483.9 c-0.4 -0.5 -3.8 -0.9 -7.7 -0.9 -3.9 0 -6.9 -0.2 -6.7 -0.4 0.2 -0.2 4.2 -0.6 8.9 -1 4.9 -0.4 8.7 -1.2 9.2 -1.9 0.5 -0.8 1.1 -0.8 1.6 -0.2 0.4 0.6 3.4 1.1 6.7 1.3 3.3 0.1 7.6 0.6 9.5 1.2 3 0.8 2.6 0.9 -3.5 0.8 -3.8 0 -7.7 0.2 -8.5 0.5 -3.2 1.1 -9 1.5 -9.5 0.6z"/>
  <path d="M355.9 482.8 c-12.7 -1 -15.4 -1.5 -9.2 -1.7 2.8 0 5.4 -0.4 5.7 -0.9 0.6 -1 32.4 -0.6 36.1 0.5 4.5 1.4 -20.9 3 -32.6 2.1z"/>
  <path d="M230 480 c0 -0.5 0.7 -1 1.5 -1 0.8 0 1.5 0.5 1.5 1 0 0.6 -0.7 1 -1.5 1 -0.8 0 -1.5 -0.4 -1.5 -1z"/>
  <path d="M236.5 480 c-0.3 -0.5 0.3 -1 1.4 -1 1.2 0 2.1 0.5 2.1 1 0 0.6 -0.6 1 -1.4 1 -0.8 0 -1.8 -0.4 -2.1 -1z"/>
  <path d="M312 480.1 c0 -0.5 -1.1 -0.8 -2.4 -0.7 -1.4 0.2 -3 0 -3.6 -0.4 -0.6 -0.4 1.3 -0.8 4.2 -0.9 2.9 -0.1 5.5 -0.6 5.6 -1.1 0.2 -0.6 0.8 -1 1.3 -1 0.6 0 0.8 0.3 0.6 0.8 -0.3 0.4 3.4 0.8 8.2 0.9 12.4 0.3 16.4 2.1 5.1 2.4 -4.7 0.1 -10.9 0.3 -13.7 0.5 -2.9 0.2 -5.3 -0.1 -5.3 -0.5z"/>
  <path d="M148 477 c-0.8 -0.5 -3.1 -1 -5 -1.1 -3.2 -0.1 -3.3 -0.2 -1 -0.9 2.7 -0.9 12.3 -1.2 10.3 -0.3 -0.7 0.2 -1.3 1.1 -1.3 1.9 0 1.6 -0.9 1.8 -3 0.4z"/>
  <path d="M275.5 477.1 c-2.6 -0.6 -2.3 -0.8 2.5 -1.3 3 -0.3 6.2 -0.2 7 0.3 1.1 0.6 0.8 0.8 -1.2 0.9 -1.4 0 -3.2 0.2 -4 0.4 -0.7 0.2 -2.6 0 -4.3 -0.3z"/>
  <path d="M355.9 477.6 c-0.3 -0.4 -2.6 -1 -5 -1.5 l-4.4 -0.9 5.3 -0.1 c2.8 -0.1 5.2 -0.5 5.2 -1.1 0 -0.5 0.5 -1 1.1 -1 0.5 0 0.7 0.5 0.3 1.2 -0.4 0.7 -0.3 0.8 0.5 0.4 1.4 -0.9 21.5 0.4 20.6 1.3 -0.4 0.3 -4.1 0.7 -8.3 0.8 -4.2 0.2 -9.3 0.6 -11.2 0.9 -1.9 0.3 -3.8 0.3 -4.1 0z"/>
  <path d="M207 474.5 c0 -0.8 0.5 -1.5 1 -1.5 0.6 0 1 0.7 1 1.5 0 0.8 -0.4 1.5 -1 1.5 -0.5 0 -1 -0.7 -1 -1.5z"/>
  <path d="M197 474.2 c0 -0.5 -2.6 -1.3 -5.7 -1.9 l-5.8 -1 6.7 -0.2 c6.2 -0.1 6.6 0 6.1 1.9 -0.5 2 -1.3 2.7 -1.3 1.2z"/>
  <path d="M226 473.8 c0 -0.4 1.9 -0.8 4.2 -0.8 2.3 0 3.9 0.3 3.5 0.6 -0.9 1 -7.7 1.2 -7.7 0.2z"/>
  <path d="M398.7 474.3 c-0.4 -0.3 -5.1 -0.6 -10.5 -0.5 -6.2 0 -9 -0.2 -7.7 -0.8 1.1 -0.5 4.8 -0.9 8.3 -0.9 4.8 -0.1 6.2 -0.4 6.2 -1.6 0 -0.8 0.5 -1.5 1 -1.5 0.6 0 1 0.6 1 1.3 0 0.9 1.1 1.2 3.5 0.9 4.1 -0.5 20.9 0.8 20.2 1.5 -0.3 0.2 -4.5 0.6 -9.4 0.7 -4.8 0.1 -9.5 0.6 -10.4 1 -0.8 0.3 -1.8 0.3 -2.2 -0.1z"/>
  <path d="M318 473 c0 -1.1 2.1 -1.1 6.5 0 2.7 0.7 2.5 0.8 -1.7 0.9 -2.7 0 -4.8 -0.3 -4.8 -0.9z"/>
  <path d="M469.5 472.4 c-6 -0.7 -7.6 -1.2 -4.7 -1.3 2.3 0 4.2 -0.4 4.2 -0.8 0 -1 24.6 -0.6 33 0.5 l6.5 0.8 -6.5 0.7 c-11.6 1.2 -23.3 1.3 -32.5 0.1z"/>
  <path d="M327.5 472 l-3 -0.8 3 0 c1.7 0 5 0.3 7.5 0.7 l4.5 0.8 -4.5 0.1 c-2.5 0 -5.8 -0.4 -7.5 -0.8z"/>
  <path d="M271.5 471 c-0.4 -0.6 0.5 -1 2 -1 1.5 0 2.4 0.4 2 1 -0.3 0.6 -1.2 1 -2 1 -0.8 0 -1.7 -0.4 -2 -1z"/>
  <path d="M422 471.2 c-2.5 -0.2 -4.9 -0.7 -5.3 -1.1 -1.9 -1.8 29.4 -2.8 39.3 -1.2 l4.5 0.7 -6.5 0.8 c-7.1 0.9 -24.9 1.3 -32 0.8z"/>
  <path d="M201.8 470.3 c1.2 -0.2 3.2 -0.2 4.5 0 1.2 0.2 0.2 0.4 -2.3 0.4 -2.5 0 -3.5 -0.2 -2.2 -0.4z"/>
  <path d="M235.5 469.4 l-7 -1 14.5 -0.8 c8 -0.5 15.7 -1 17.3 -1.1 1.5 -0.2 2.7 0.1 2.7 0.6 0 0.5 -4 0.9 -8.9 0.9 -5.8 0 -9.4 0.4 -10.3 1.3 -1 0.9 -2.8 1 -8.3 0.1z"/>
  <path d="M356.5 470 c-1.5 -0.6 -0.7 -0.9 3 -0.9 2.8 0 5.9 0.4 7 0.9 1.5 0.6 0.7 0.9 -3 0.9 -2.7 0 -5.9 -0.4 -7 -0.9z"/>
  <path d="M371.8 469.3 c1.2 -0.2 3 -0.2 4 0 0.9 0.3 -0.1 0.5 -2.3 0.4 -2.2 0 -3 -0.2 -1.7 -0.4z"/>
  <path d="M310.5 468 c-0.4 -0.7 0.6 -1 2.9 -0.8 2 0.1 3.6 0.6 3.6 1 0 1.2 -5.8 1 -6.5 -0.2z"/>
  <path d="M398.5 468.2 c-1.6 -0.2 -3.4 -0.7 -3.9 -1.2 -0.5 -0.5 3.6 -0.9 9.3 -0.9 5.6 0 10.1 0.4 10.1 0.9 0 0.5 -2.2 0.6 -5 0.3 -2.7 -0.3 -5.5 -0.2 -6.2 0.3 -0.7 0.5 -2.6 0.8 -4.3 0.6z"/>
  <path d="M463.5 468 c-7.1 -0.4 -8.3 -0.7 -5.6 -1.2 1.8 -0.5 4.6 -0.8 6.2 -0.8 1.6 0 2.9 -0.5 2.9 -1.1 0 -0.6 0.5 -0.7 1.3 -0.2 0.6 0.4 3.2 0.8 5.7 0.8 11.7 0.1 18.3 0.6 17.6 1.3 -1.1 1 -17.7 1.8 -28.1 1.2z"/>
  <path d="M265 466.9 c0 -0.5 1.1 -0.9 2.5 -0.9 1.4 0 2.5 0.2 2.5 0.4 0 0.2 -1.1 0.6 -2.5 0.8 -1.4 0.3 -2.5 0.1 -2.5 -0.3z"/>
  <path d="M274 466.1 c-2.1 -0.4 7.7 -1.3 25.3 -2.4 15.9 -1.1 29.1 -1.6 29.4 -1.4 0.7 0.8 -8 1.7 -26.2 2.7 -8.8 0.5 -18 1.1 -20.5 1.4 -2.5 0.2 -6.1 0.1 -8 -0.3z"/>
  <path d="M352 466 c-3 -0.4 -4.4 -0.8 -3 -0.9 4 -0.5 8.4 0 9.5 1 0.5 0.6 0.5 0.8 0 0.7 -0.6 -0.1 -3.5 -0.4 -6.5 -0.8z"/>
  <path d="M433 465.3 c-1.4 -0.3 -2.9 -0.9 -3.5 -1.4 -1.2 -1.2 16.9 -1 21.8 0.2 2.4 0.6 1.5 0.7 -4.1 0.7 -3.9 -0.1 -7.5 0.2 -7.9 0.5 -0.7 0.7 -2.2 0.7 -6.3 0z"/>
  <path d="M492 465 l-6.5 -0.5 6.5 -0.9 c3.6 -0.5 6.8 -1.3 7.3 -2 0.5 -0.8 0.9 -0.8 1.5 0 0.4 0.6 4.2 1 9.7 0.9 5 -0.1 10.8 0.4 13 1.1 4 1.2 4 1.2 -4 1.4 -16.2 0.6 -21.1 0.6 -27.5 0z"/>
  <path d="M461.5 462.1 c-2.5 -0.6 -1.8 -0.8 3.9 -1.2 3.8 -0.2 10.1 -0.1 14 0.2 3.9 0.3 5.5 0.6 3.5 0.7 -2 0.1 -6.9 0.4 -11 0.6 -4.1 0.3 -8.7 0.1 -10.4 -0.3z"/>
  <path d="M525 462 l-4.5 -0.7 4.8 -0.1 c2.6 -0.1 4.7 -0.6 4.7 -1.1 0 -0.5 1.7 -0.7 3.8 -0.5 2 0.2 8.2 0.7 13.7 1.1 l10 0.7 -7 0.7 c-8.9 0.8 -19.7 0.8 -25.5 -0.1z"/>
  <path d="M359.5 459.5 c32.8 -2.6 40.8 -2.9 38.5 -1.6 -0.8 0.5 -9.1 1.1 -18.4 1.5 -9.3 0.4 -17.4 1 -17.9 1.3 -0.5 0.3 -8 0.7 -16.6 0.8 -14.8 0.3 -14 0.2 14.4 -2z"/>
  <path d="M567 461 c0 -0.5 -0.9 -1 -2 -1 -1.1 0 -2 -0.5 -2 -1 0 -0.6 1.6 -0.8 4.3 -0.4 4.8 0.8 6.1 1.4 2.8 1.4 -1.2 0 -1.9 0.4 -1.6 1 0.3 0.6 0.1 1 -0.4 1 -0.6 0 -1.1 -0.4 -1.1 -1z"/>
  <path d="M419 460 c0 -1.1 1.4 -1.1 5 0 2.2 0.7 2.1 0.8 -1.2 0.9 -2.1 0.1 -3.8 -0.3 -3.8 -0.9z"/>
  <path d="M496 458.9 c-3.5 -1 15.5 -1 20.5 0 3 0.6 1.1 0.8 -7 0.8 -6 0 -12.1 -0.4 -13.5 -0.8z"/>
  <path d="M554.3 458.3 c0.9 -0.2 2.5 -0.2 3.5 0 0.9 0.3 0.1 0.5 -1.8 0.5 -1.9 0 -2.7 -0.2 -1.7 -0.5z"/>
  <path d="M560.4 457.5 c-0.4 -0.8 -1.2 -1.5 -1.9 -1.5 -0.8 0 -1.7 -0.4 -2 -1 -0.4 -0.6 0.8 -1 3 -1 3.2 0 3.5 0.2 2.6 1.9 -0.6 1 -0.7 2.1 -0.4 2.5 0.3 0.3 0.3 0.6 -0.1 0.6 -0.3 0 -0.9 -0.7 -1.2 -1.5z"/>
  <path d="M406.5 457 c-5.9 -0.4 -3.9 -0.7 12.5 -1.8 28.7 -1.9 43.2 -2.9 65.5 -4.6 21.4 -1.7 28.2 -1.9 27.3 -1 -0.3 0.3 -4.5 0.7 -9.3 0.9 -4.7 0.2 -9.3 0.9 -10 1.5 -0.8 0.6 -2.2 0.9 -3.2 0.6 -1 -0.3 -7.4 -0.1 -14.3 0.4 -6.9 0.5 -15.6 1.2 -19.5 1.4 -3.8 0.3 -10.8 0.8 -15.5 1.2 -4.7 0.3 -11.2 0.7 -14.5 0.8 -3.3 0.1 -6.2 0.4 -6.5 0.5 -1 0.6 -5.6 0.7 -12.5 0.1z"/>
  <path d="M522.5 457 l-5 -0.7 6 -0.2 c11.1 -0.5 26.1 -0.3 25.4 0.3 -0.9 0.8 -21.7 1.3 -26.4 0.6z"/>
  <path d="M492.3 456.3 c0.9 -0.2 2.5 -0.2 3.5 0 0.9 0.3 0.1 0.5 -1.8 0.5 -1.9 0 -2.7 -0.2 -1.7 -0.5z"/>
  <path d="M520.5 454.1 c0.6 -1 5.1 -0.8 6.2 0.2 0.3 0.4 -1 0.7 -3.1 0.7 -2 0 -3.5 -0.4 -3.1 -0.9z"/>
  <path d="M514 449 c-1 -0.7 0.6 -0.9 5.5 -0.9 5 0.1 6.3 0.3 4.5 0.9 -3.5 1.1 -8.2 1.1 -10 0z"/>
  <path d="M56.7 440.3 c-0.4 -0.3 -0.7 -2.1 -0.7 -4 0 -2.6 0.4 -3.3 2 -3.3 1.3 0 2 0.7 2 2 0 1.8 0.7 2 5.5 2 4 0 5.5 0.4 5.5 1.4 0 0.7 -1 1.6 -2.2 2 -3.1 0.8 -11.3 0.8 -12.1 -0.1z"/>
  <path d="M80 438 c0 -1.8 0.7 -2 6.5 -2 4.9 0 6.5 0.3 6.5 1.4 0 1.7 -3.1 2.6 -8.7 2.6 -3.6 0 -4.3 -0.3 -4.3 -2z"/>
  <path d="M101 437 c0 -1.8 0.7 -2 7 -2 5.3 0 7 0.3 7 1.4 0 1.7 -3.1 2.6 -9.2 2.6 -4.1 0 -4.8 -0.3 -4.8 -2z"/>
  <path d="M123 436 c0 -1.8 0.7 -2 6.5 -2 4.9 0 6.5 0.3 6.5 1.4 0 1.7 -3.1 2.6 -8.7 2.6 -3.6 0 -4.3 -0.3 -4.3 -2z"/>
  <path d="M144 435 c0 -1.8 0.7 -2 6.5 -2 4.9 0 6.5 0.3 6.5 1.4 0 1.7 -3.1 2.6 -8.7 2.6 -3.6 0 -4.3 -0.3 -4.3 -2z"/>
  <path d="M166 434 c0 -1.8 0.7 -2 6.5 -2 4.9 0 6.5 0.3 6.5 1.4 0 1.7 -3.1 2.6 -8.7 2.6 -3.6 0 -4.3 -0.3 -4.3 -2z"/>
  <path d="M188 433 c0 -1.8 0.7 -2 6.5 -2 4.9 0 6.5 0.3 6.5 1.4 0 1.7 -3.1 2.6 -8.7 2.6 -3.6 0 -4.3 -0.3 -4.3 -2z"/>
  <path d="M210 432 c0 -1.8 0.7 -2 7 -2 5.3 0 7 0.3 7 1.4 0 1.7 -3.1 2.6 -9.2 2.6 -4.1 0 -4.8 -0.3 -4.8 -2z"/>
  <path d="M232 431 c0 -1.8 0.7 -2 7 -2 5.3 0 7 0.3 7 1.4 0 1.7 -3.1 2.6 -9.2 2.6 -4.1 0 -4.8 -0.3 -4.8 -2z"/>
  <path d="M254 430 c0 -1.8 0.7 -2 7.5 -2 5.7 0 7.5 0.3 7.5 1.4 0 1.7 -3.1 2.6 -9.7 2.6 -4.6 0 -5.3 -0.3 -5.3 -2z"/>
  <path d="M277 429 c0 -1.8 0.7 -2 7.5 -2 5.7 0 7.5 0.3 7.5 1.4 0 1.7 -3.1 2.6 -9.7 2.6 -4.6 0 -5.3 -0.3 -5.3 -2z"/>
  <path d="M299 428 c0 -1.8 0.7 -2 8 -2 6.1 0 8 0.3 8 1.4 0 1.8 -3.1 2.6 -10.2 2.6 -5.1 0 -5.8 -0.2 -5.8 -2z"/>
  <path d="M323 427 c0 -1.8 0.7 -2 7.5 -2 5.7 0 7.5 0.3 7.5 1.4 0 1.7 -3.1 2.6 -9.7 2.6 -4.6 0 -5.3 -0.3 -5.3 -2z"/>
  <path d="M345 426 c0 -1.8 0.7 -2 8 -2 6.1 0 8 0.3 8 1.4 0 1.8 -3.1 2.6 -10.2 2.6 -5.1 0 -5.8 -0.2 -5.8 -2z"/>
  <path d="M55.6 424.8 c-0.3 -1.3 -0.6 -3.8 -0.6 -5.5 0 -2.6 0.4 -3.3 2 -3.3 1.8 0 2 0.7 2 5.5 0 4 -0.4 5.5 -1.4 5.5 -0.7 0 -1.6 -1 -2 -2.2z"/>
  <path d="M369 425 c0 -1.8 0.7 -2 7.5 -2 5.7 0 7.5 0.3 7.5 1.4 0 1.7 -3.1 2.6 -9.7 2.6 -4.6 0 -5.3 -0.3 -5.3 -2z"/>
  <path d="M393 424 c0 -1.8 0.7 -2 6.5 -2 4.9 0 6.5 0.3 6.5 1.4 0 1.7 -3.1 2.6 -8.7 2.6 -3.6 0 -4.3 -0.3 -4.3 -2z"/>
  <path d="M417 423 c0 -1.8 0.7 -2 6.5 -2 4.9 0 6.5 0.3 6.5 1.4 0 1.7 -3.1 2.6 -8.7 2.6 -3.6 0 -4.3 -0.3 -4.3 -2z"/>
  <path d="M440 422 c0 -1.8 0.7 -2 7 -2 5.3 0 7 0.3 7 1.4 0 1.7 -3.1 2.6 -9.2 2.6 -4.1 0 -4.8 -0.3 -4.8 -2z"/>
  <path d="M465 421 c0 -1.8 0.7 -2 6 -2 4.4 0 6 0.4 6 1.4 0 1.6 -3 2.6 -8.2 2.6 -3.1 0 -3.8 -0.4 -3.8 -2z"/>
  <path d="M487 420 c0 -1.8 0.7 -2 7.5 -2 5.7 0 7.5 0.3 7.5 1.4 0 1.7 -3.1 2.6 -9.7 2.6 -4.6 0 -5.3 -0.3 -5.3 -2z"/>
  <path d="M511 419 c0 -1.8 0.7 -2 8 -2 6.1 0 8 0.3 8 1.4 0 1.8 -3.1 2.6 -10.2 2.6 -5.1 0 -5.8 -0.2 -5.8 -2z"/>
  <path d="M537 418 c0 -1.8 0.7 -2 7.5 -2 5.7 0 7.5 0.3 7.5 1.4 0 1.7 -3.1 2.6 -9.7 2.6 -4.6 0 -5.3 -0.3 -5.3 -2z"/>
  <path d="M562 417 c0 -1.1 0.7 -2 1.5 -2 0.8 0 1.5 -0.3 1.5 -0.6 0 -2.5 -55.8 -281.5 -56.4 -282.1 -0.2 -0.3 -34.8 -6.9 -76.8 -14.9 -126.4 -23.9 -231.2 -43.9 -288.3 -54.9 -29.7 -5.7 -65.9 -12.7 -80.5 -15.5 -14.6 -2.8 -27.3 -5.3 -28.2 -5.6 -2 -0.6 -2.5 -4.4 -0.7 -4.4 0.6 0 29.3 5.6 63.8 12.5 58.5 11.6 195.8 37.9 348 66.6 l65.4 12.4 1.3 3 c0.7 1.6 4.2 18.5 7.9 37.5 6.6 34.4 48.1 243.5 49.2 247.8 0.5 2 0.2 2.2 -3.6 2.2 -3.4 0 -4.1 -0.3 -4.1 -2z"/>
  <path d="M54.6 408.8 c-0.3 -1.3 -0.6 -4 -0.6 -6 0 -3.1 0.4 -3.8 2 -3.8 1.8 0 2 0.7 2 6 0 4.4 -0.4 6 -1.4 6 -0.7 0 -1.6 -1 -2 -2.2z"/>
  <path d="M53.6 390.8 c-0.3 -1.3 -0.6 -3.8 -0.6 -5.5 0 -2.6 0.4 -3.3 2 -3.3 1.8 0 2 0.7 2 5.5 0 4 -0.4 5.5 -1.4 5.5 -0.7 0 -1.6 -1 -2 -2.2z"/>
  <path d="M52.6 373.8 c-0.3 -1.3 -0.6 -3.8 -0.6 -5.5 0 -2.6 0.4 -3.3 2 -3.3 1.8 0 2 0.7 2 5.5 0 4 -0.4 5.5 -1.4 5.5 -0.7 0 -1.6 -1 -2 -2.2z"/>
  <path d="M51.6 356.8 c-0.3 -1.3 -0.6 -4 -0.6 -6 0 -3.1 0.4 -3.8 2 -3.8 1.8 0 2 0.7 2 6 0 4.4 -0.4 6 -1.4 6 -0.7 0 -1.6 -1 -2 -2.2z"/>
  <path d="M50.6 339.8 c-0.3 -1.3 -0.6 -4 -0.6 -6 0 -3.1 0.4 -3.8 2 -3.8 1.8 0 2 0.7 2 6 0 4.4 -0.4 6 -1.4 6 -0.7 0 -1.6 -1 -2 -2.2z"/>
  <path d="M49.6 322.8 c-0.3 -1.3 -0.6 -4.2 -0.6 -6.5 0 -3.6 0.3 -4.3 2 -4.3 1.8 0 2 0.7 2 6.5 0 4.9 -0.3 6.5 -1.4 6.5 -0.7 0 -1.6 -1 -2 -2.2z"/>
  <path d="M48.6 305.8 c-0.3 -1.3 -0.6 -4.2 -0.6 -6.5 0 -3.6 0.3 -4.3 2 -4.3 1.8 0 2 0.7 2 6.5 0 4.9 -0.3 6.5 -1.4 6.5 -0.7 0 -1.6 -1 -2 -2.2z"/>
  <path d="M47.6 287.8 c-0.3 -1.3 -0.6 -4.2 -0.6 -6.5 0 -3.6 0.3 -4.3 2 -4.3 1.8 0 2 0.7 2 6.5 0 4.9 -0.3 6.5 -1.4 6.5 -0.7 0 -1.6 -1 -2 -2.2z"/>
  <path d="M46.6 270.8 c-0.3 -1.3 -0.6 -4 -0.6 -6 0 -3.1 0.4 -3.8 2 -3.8 1.8 0 2 0.7 2 6 0 4.4 -0.4 6 -1.4 6 -0.7 0 -1.6 -1 -2 -2.2z"/>
  <path d="M45.6 253.8 c-0.3 -1.3 -0.6 -4.2 -0.6 -6.5 0 -3.6 0.3 -4.3 2 -4.3 1.8 0 2 0.7 2 6.5 0 4.9 -0.3 6.5 -1.4 6.5 -0.7 0 -1.6 -1 -2 -2.2z"/>
  <path d="M44.6 236.8 c-0.3 -1.3 -0.6 -4 -0.6 -6 0 -3.1 0.4 -3.8 2 -3.8 1.8 0 2 0.7 2 6 0 4.4 -0.4 6 -1.4 6 -0.7 0 -1.6 -1 -2 -2.2z"/>
  <path d="M43.6 218.8 c-0.3 -1.3 -0.6 -3.8 -0.6 -5.5 0 -2.6 0.4 -3.3 2 -3.3 1.8 0 2 0.7 2 5.5 0 4 -0.4 5.5 -1.4 5.5 -0.7 0 -1.6 -1 -2 -2.2z"/>
  <path d="M42.6 201.8 c-0.3 -1.3 -0.6 -3.8 -0.6 -5.5 0 -2.6 0.4 -3.3 2 -3.3 1.8 0 2 0.7 2 5.5 0 4 -0.4 5.5 -1.4 5.5 -0.7 0 -1.6 -1 -2 -2.2z"/>
  <path d="M41.6 184.8 c-0.3 -1.3 -0.6 -3.8 -0.6 -5.5 0 -2.6 0.4 -3.3 2 -3.3 1.8 0 2 0.7 2 5.5 0 4 -0.4 5.5 -1.4 5.5 -0.7 0 -1.6 -1 -2 -2.2z"/>
  <path d="M40.6 168.8 c-0.3 -1.3 -0.6 -3.8 -0.6 -5.5 0 -2.6 0.4 -3.3 2 -3.3 1.8 0 2 0.7 2 5.5 0 4 -0.4 5.5 -1.4 5.5 -0.7 0 -1.6 -1 -2 -2.2z"/>
  <path d="M39.6 151.8 c-0.3 -1.3 -0.6 -3.8 -0.6 -5.5 0 -2.6 0.4 -3.3 2 -3.3 1.8 0 2 0.7 2 5.5 0 4 -0.4 5.5 -1.4 5.5 -0.7 0 -1.6 -1 -2 -2.2z"/>
  <path d="M38.6 134.8 c-1.2 -4.8 -0.7 -7.8 1.4 -7.8 1.7 0 2 0.7 2 5 0 3.6 -0.4 5 -1.4 5 -0.7 0 -1.6 -1 -2 -2.2z"/>
  <path d="M37.6 118.8 c-0.3 -1.3 -0.6 -3.8 -0.6 -5.5 0 -2.6 0.4 -3.3 2 -3.3 1.8 0 2 0.7 2 5.5 0 4 -0.4 5.5 -1.4 5.5 -0.7 0 -1.6 -1 -2 -2.2z"/>
  <path d="M36.6 101.8 c-1.2 -4.8 -0.7 -7.8 1.4 -7.8 1.7 0 2 0.7 2 5 0 3.6 -0.4 5 -1.4 5 -0.7 0 -1.6 -1 -2 -2.2z"/>
  <path d="M35.6 85.8 c-0.3 -1.3 -0.6 -3.8 -0.6 -5.5 0 -2.6 0.4 -3.3 2 -3.3 1.8 0 2 0.7 2 5.5 0 4 -0.4 5.5 -1.4 5.5 -0.7 0 -1.6 -1 -2 -2.2z"/>
  <path d="M34.6 68.8 c-1.2 -4.8 -0.7 -7.8 1.4 -7.8 1.7 0 2 0.7 2 5 0 3.6 -0.4 5 -1.4 5 -0.7 0 -1.6 -1 -2 -2.2z"/>
  <path d="M33.6 51.8 c-1.2 -4.8 -0.7 -7.8 1.4 -7.8 1.7 0 2 0.7 2 5 0 3.6 -0.4 5 -1.4 5 -0.7 0 -1.6 -1 -2 -2.2z"/>
 </g>
 <g fill="#ceccc7">
  <path d="M333.5 585.5 c-10 -2.3 -33.2 -9.4 -45.5 -13.9 -6.1 -2.2 -23.4 -7.6 -29 -9.1 -1.4 -0.3 -3.4 -1 -4.5 -1.5 -2.1 -0.9 -17.4 -5.5 -24 -7.1 -4.2 -1.1 -10.7 -3.9 -11.5 -5 -0.3 -0.3 -1.6 -0.6 -3 -0.5 -1.7 0.1 -2.6 -0.5 -2.8 -1.9 -0.3 -1.1 -0.8 -2.2 -1.3 -2.5 -0.5 -0.4 -1.2 -2 -1.5 -3.8 -0.6 -2.8 -0.4 -3.2 1.5 -3.2 1.4 0 2.1 -0.6 2.1 -2 0 -1.6 -0.7 -2 -3.2 -2.1 -3.1 0 -3.1 -0.1 -1 -1 2.2 -0.8 2.3 -1 0.6 -2.6 -1.7 -1.7 -1.6 -1.8 1.6 -2.1 1.9 -0.2 3.6 0.2 4.1 1 0.7 1.1 0.9 1.1 0.9 0 0 -0.8 0.5 -1 1.3 -0.5 0.6 0.4 2.6 0.8 4.2 0.9 4.5 0.1 14.5 2.6 14.5 3.6 0 0.5 0.4 0.7 0.9 0.4 0.8 -0.5 9.4 1.2 41.6 8.1 8.8 1.8 8.6 1.8 11 2.6 1.1 0.3 5.6 1.3 10 2.1 4.4 0.9 10 2 12.5 2.5 7.4 1.7 30.6 2.6 31.4 1.2 0.4 -0.6 1.3 -1.1 1.9 -1.1 0.7 0 0.6 0.4 -0.3 1 -1.2 0.8 -1 1 1 1 2.7 0 8 -4.8 8 -7.3 0 -0.9 0.6 -1.8 1.3 -2.1 0.6 -0.3 0.3 -0.4 -0.8 -0.1 -2.5 0.6 -5 -0.9 -4.1 -2.4 0.4 -0.6 1.7 -1.1 2.8 -1.1 2 0 2.1 -0.1 0.3 -2 -1.8 -2 -1.7 -2 1.3 -2 2.5 0 3.2 -0.4 3.2 -2 0 -1.2 0.5 -1.7 1.4 -1.4 2.2 0.9 3 -1.6 1 -3.1 -1.1 -0.9 -1.4 -1.4 -0.6 -1.5 0.7 0 1.2 -1.4 1.2 -3.5 0 -3.4 -0.2 -3.5 -3.7 -3.6 -2.8 -0.1 -3.2 -0.3 -1.3 -0.6 4.4 -0.8 5.5 -4.8 1.8 -6.3 -1.8 -0.7 -1.9 -0.9 -0.5 -0.9 0.9 -0.1 1.7 -0.8 1.7 -1.7 0 -1.1 0.5 -1.4 1.8 -0.9 1.3 0.5 1.4 0.4 0.5 -0.6 -1 -1 -1.6 -0.9 -2.8 0.1 -1.9 1.6 -3.4 0.5 -1.7 -1.2 0.7 -0.7 2.9 -1.2 5 -1 3.1 0.1 3.4 0 1.7 -0.8 -1.9 -1 -1.9 -1 0.3 -0.6 2.2 0.4 4.9 -2.4 3.5 -3.8 -0.3 -0.3 -0.1 -0.6 0.5 -0.6 0.7 0 1.2 0.4 1.2 0.9 0 1.2 10.8 2.3 12.7 1.3 1.4 -0.8 1.4 -1 -0.1 -1.5 -0.9 -0.4 -1.6 -0.2 -1.6 0.3 0 1.8 -3.2 1 -5.3 -1.2 -1.3 -1.6 -2.1 -1.9 -2.4 -1 -0.5 1.4 -2.3 0.6 -2.3 -1 0 -0.7 1.6 -0.9 4.5 -0.5 2.6 0.4 7.4 0.1 11.5 -0.8 6.9 -1.5 15.7 -1.4 18 0 0.8 0.5 1.8 0.1 2.6 -1 1.1 -1.5 1.6 -1.6 2.9 -0.5 0.8 0.7 1.9 1 2.2 0.6 0.4 -0.4 0.1 -1.1 -0.7 -1.6 -1.1 -0.7 0 -1 3.5 -1 2.8 0 7.7 -0.4 11 -0.9 3.3 -0.5 9.2 -1.2 13 -1.6 16.4 -1.4 122.2 -11.8 148.5 -14.5 10.7 -1.1 22.2 -2.3 25.5 -2.6 3.3 -0.4 6.4 -1.1 6.8 -1.8 0.6 -0.8 1 -0.8 1.3 0 0.2 0.6 1.7 0.9 3.2 0.7 1.5 -0.1 9.5 -1 17.7 -1.8 8.3 -0.9 15.2 -2.1 15.3 -2.6 0.3 -0.6 0.8 -0.6 1.6 0 1.6 1.4 24.4 -0.8 26.1 -2.5 0.9 -1 1.5 -1 1.7 -0.3 0.3 0.8 3.9 0.8 13.1 -0.1 10.5 -1.1 12.7 -1.5 12.7 -2.9 0.1 -1.4 0.2 -1.4 1 0 0.8 1.4 2.1 1.4 12.1 0.3 6.2 -0.7 11.6 -1.8 11.9 -2.5 0.6 -0.8 0.9 -0.8 1.1 0 0.3 0.9 2.8 1 8.6 0.5 8.5 -0.7 11 -1.5 9.9 -3.2 -0.7 -1.1 -31.8 -0.4 -32.6 0.8 -0.8 1.2 -9 2.3 -9 1.2 0 -0.5 0.9 -1.2 2 -1.5 1.1 -0.3 2 -1.3 2 -2.2 0 -1.5 -1.1 -1.6 -10.7 -1.1 -7 0.4 -10.1 0.3 -8.8 -0.3 1.6 -0.8 1.2 -1 -2.2 -1 -4.2 -0.1 -6.4 1.2 -4.1 2.3 0.7 0.3 -1.3 0.4 -4.4 0.3 -3.2 -0.2 -5.8 -0.1 -5.8 0.3 0 1.1 -14.8 1.8 -23.5 1.1 -7.7 -0.6 -7.4 -0.6 9.8 -1.9 9.9 -0.6 18.3 -1 18.7 -0.7 0.4 0.3 0.6 -0.4 0.3 -1.5 -0.7 -2.5 -4.9 -2.5 38.9 0.5 20 1.3 46 2.9 57.8 3.6 11.8 0.6 46.7 2.8 77.5 5 30.8 2.1 58.8 3.9 62.2 4 3.5 0.1 6.1 0.4 5.8 0.8 -0.2 0.4 -1.9 0.5 -3.7 0.3 -2.7 -0.4 -3.1 -0.2 -2.2 0.9 0.5 0.8 1 2.1 0.9 2.9 0 0.8 1.5 2.3 3.5 3.2 1.9 1 2.7 1.7 1.8 1.8 -0.9 0 -2 0.5 -2.4 1.2 -0.4 0.6 -0.3 0.8 0.4 0.4 1.9 -1.1 15 -1.7 15.7 -0.6 0.3 0.5 -0.1 1 -1 1 -1.2 0 -1.5 0.6 -1 2.3 0.9 2.7 2.5 4.6 2.5 2.9 0 -0.7 0.8 -1.2 1.8 -1.1 0.9 0 1.2 0.3 0.5 0.5 -0.7 0.3 -0.9 1.2 -0.6 1.9 0.4 1.1 1 1.2 2.4 0.5 1.4 -0.8 2.3 -0.5 3.9 1.2 1.1 1.2 2 2.5 2 2.8 0 0.4 2.1 0.5 4.8 0.3 8.8 -0.8 2.9 1.3 -8.8 3.1 -6.3 0.9 -13.5 2.2 -16 2.7 -7.4 1.6 -104.1 18.7 -109.5 19.4 -2.7 0.4 -19.7 3.3 -37.8 6.6 -18 3.3 -52 9.1 -75.5 12.9 -122.7 20.2 -140.4 23.1 -148.7 24.5 -13.1 2.3 -51.3 8.3 -63.5 10.1 -5.8 0.8 -15.9 2.3 -22.5 3.4 -13.6 2.2 -33.8 4.7 -54.5 6.9 -23.5 2.5 -27.9 3.1 -34.1 4.5 -10.1 2.4 -33.7 5.6 -40.4 5.5 -3.3 0 -10.5 -1.1 -16 -2.4z m34.7 -5.7 c5.6 -1.9 5.8 -2.3 5.8 -12.3 0 -7.8 -0.3 -9.4 -1.7 -9.9 -5.1 -2 -37.8 -1.5 -39.8 0.6 -0.2 0.2 -0.7 4.4 -1.1 9.4 l-0.7 9.1 5.4 2.1 c3 1.1 6.3 2.3 7.4 2.6 3.1 0.8 21.1 -0.4 24.7 -1.6z m10.4 -32.8 c1.3 0 2.4 -0.4 2.4 -1 0 -1.7 -6.7 -1.2 -7.4 0.6 -0.5 1.2 -0.2 1.5 1 1 0.8 -0.3 2.7 -0.6 4 -0.6z m-7.6 -3 c0 -1 -0.6 -2.1 -1.2 -2.3 -0.7 -0.3 -0.3 -0.6 0.9 -0.6 1.2 -0.1 2.5 0.4 2.8 0.9 0.3 0.6 2.2 1 4.1 1 2.2 0 3.3 -0.4 2.9 -1 -0.4 -0.6 -1.5 -0.8 -2.5 -0.5 -2.4 0.8 -6 -1.5 -6 -3.7 0 -1.5 -2.7 -3.8 -4.5 -3.8 -0.5 0 -0.1 11.1 0.4 12.7 0.1 0.1 0.8 0 1.6 -0.3 0.8 -0.4 1.5 -1.4 1.5 -2.4z m-5 -20.9 c0 -2.6 -1.6 -3.5 -2.4 -1.5 -1 2.5 -0.7 3.4 0.9 3.4 0.8 0 1.5 -0.9 1.5 -1.9z m13 -4.7 c0 -0.2 -1.4 -0.4 -3.1 -0.4 -1.6 0 -2.8 0.4 -2.5 0.9 0.5 0.8 5.6 0.3 5.6 -0.5z m-4 -11.4 c0 -0.5 -0.8 -1 -1.9 -1 -1 0 -2.4 -0.7 -3.1 -1.5 -1.7 -2 -3.2 -0.8 -2 1.6 1.1 2 7 2.8 7 0.9z m430.6 -6.7 c2.3 -3 1.6 -4.3 -2 -4.3 -1.9 0 -3.8 0.5 -4.1 1 -0.3 0.6 -0.1 1 0.4 1 0.6 0 1.1 0.9 1.1 2 0 2.5 2.8 2.6 4.6 0.3z m142.4 -11 c-1.4 -0.3 -3.1 -1 -3.7 -1.5 -0.9 -0.7 -1.3 -0.7 -1.3 0 0 1.3 1.8 2.1 5 2 l2.5 -0.1 -2.5 -0.4z m-377.5 -3.2 c-0.3 -0.6 -1.5 -0.8 -2.7 -0.6 -3.4 0.7 -3.4 1.5 0.1 1.5 1.8 0 3 -0.4 2.6 -0.9z m365.5 -7.9 c0 -0.5 -1.3 -0.7 -3 -0.4 -1.6 0.2 -3 0.6 -3 0.8 0 0.2 1.4 0.4 3 0.4 1.7 0 3 -0.4 3 -0.8z"/>
  <path d="M352.1 528.3 c0 -0.7 -1 -1.3 -2.1 -1.3 -1.1 0 -2 -0.7 -2 -1.5 0 -0.8 0.6 -1.5 1.3 -1.5 2.3 0 3.9 1.7 3.4 3.6 -0.3 1.1 -0.5 1.3 -0.6 0.7z"/>
  <path d="M150.2 521.6 c0.1 -1 0.8 -1.7 1.3 -1.7 1.5 0.1 1.2 2.4 -0.3 2.9 -0.9 0.3 -1.3 -0.2 -1 -1.2z"/>
  <path d="M110.1 515.2 c-0.9 -2.2 -1 -4 -0.2 -7 1.6 -5.7 3.8 -6.1 5.2 -1 2 7.7 -2.3 14.6 -5 8z"/>
  <path d="M96 513.4 c-1.4 -0.3 -4.2 -0.9 -6.2 -1.5 -3.8 -1 -3.8 -1 -3.8 -6.4 0 -2.9 0.3 -6 0.6 -6.9 0.8 -2.2 3.6 -2 6.7 0.4 1.6 1.3 2.8 1.6 3.2 1 1 -1.7 3.4 -1.1 4.6 1.1 1.4 2.7 0.3 13 -1.4 12.8 -0.7 -0.1 -2.3 -0.3 -3.7 -0.5z"/>
  <path d="M73.2 506.2 c-1.7 -1.5 -2.2 -3 -2.2 -6.6 0 -5.6 1.5 -6.6 6 -3.9 2.9 1.7 3.1 2.1 2.8 6.8 -0.3 4.2 -0.6 5 -2.3 5.3 -1.2 0.2 -3.1 -0.6 -4.3 -1.6z"/>
  <path d="M60.4 502.6 c-0.3 -0.9 -1.2 -1.6 -2 -1.6 -1 0 -1.4 -1.5 -1.4 -5.5 0 -3 0.3 -5.5 0.6 -5.5 0.3 0 2.1 0.7 4 1.6 3.4 1.6 3.5 1.8 3.2 6.8 -0.2 3.9 -0.7 5.2 -2.1 5.4 -0.9 0.2 -2 -0.4 -2.3 -1.2z"/>
  <path d="M362 500 c0 -0.5 1.1 -1 2.5 -1 1.4 0 2.5 0.5 2.5 1 0 0.6 -1.1 1 -2.5 1 -1.4 0 -2.5 -0.4 -2.5 -1z"/>
  <path d="M45.8 498.4 c-0.4 -0.3 -2.1 -0.8 -4 -1.1 -3.7 -0.6 -5 -2 -4.2 -4.5 0.2 -0.9 0 -1.9 -0.6 -2.3 -1.5 -0.9 -1.2 -4.5 0.5 -5.1 0.8 -0.3 2 -0.2 2.7 0.2 0.7 0.5 2.1 0.7 3 0.6 0.9 -0.2 2.2 0.6 2.8 1.7 0.6 1.2 2 2.1 3 2.1 1.5 0 2 0.7 2 2.5 0 2.2 -0.4 2.5 -3.1 2.3 -1.9 -0.2 -3.4 0.2 -3.6 1 -0.3 0.7 0.4 1.2 1.6 1.2 1.2 0 2.1 0.5 2.1 1 0 1.1 -1.3 1.3 -2.2 0.4z"/>
  <path d="M354.3 498.3 c0.9 -0.2 2.5 -0.2 3.5 0 0.9 0.3 0.1 0.5 -1.8 0.5 -1.9 0 -2.7 -0.2 -1.7 -0.5z"/>
  <path d="M397.5 484 c0.3 -0.5 1.3 -1 2.1 -1 0.8 0 1.2 0.5 0.9 1 -0.3 0.6 -1.3 1 -2.1 1 -0.8 0 -1.2 -0.4 -0.9 -1z"/>
  <path d="M947.5 479 c2.8 -1.2 3.7 -1.2 3 0 -0.3 0.6 -1.6 1 -2.8 0.9 -2.1 0 -2.1 -0.1 -0.2 -0.9z"/>
  <path d="M929.4 471.4 c-1.7 -1.4 -1.7 -1.5 -0.1 -1 1 0.3 2.3 0.6 2.8 0.6 0.5 0 0.9 0.5 0.9 1 0 1.4 -1.3 1.2 -3.6 -0.6z"/>
  <path d="M480.3 471.3 c0.9 -0.2 2.5 -0.2 3.5 0 0.9 0.3 0.1 0.5 -1.8 0.5 -1.9 0 -2.7 -0.2 -1.7 -0.5z"/>
  <path d="M599.8 469.3 c1.2 -0.2 3.2 -0.2 4.5 0 1.2 0.2 0.2 0.4 -2.3 0.4 -2.5 0 -3.5 -0.2 -2.2 -0.4z"/>
  <path d="M519.3 468.3 c0.9 -0.2 2.5 -0.2 3.5 0 0.9 0.3 0.1 0.5 -1.8 0.5 -1.9 0 -2.7 -0.2 -1.7 -0.5z"/>
  <path d="M618 467.7 c0.7 -0.7 7.9 -1.5 18.5 -2.1 6.7 -0.4 8 -0.3 5 0.4 -4.7 1 -24.2 2.5 -23.5 1.7z"/>
  <path d="M549 465.9 c-2 -0.6 -1.7 -0.7 1.8 -0.8 2.3 -0.1 4.2 0.1 4.2 0.3 0 0.9 -3.7 1.2 -6 0.5z"/>
  <path d="M601 466 c-1.9 -0.6 -1.1 -0.8 3.3 -0.9 3.2 -0.1 5.7 0.3 5.7 0.9 0 1.2 -5.4 1.2 -9 0z"/>
  <path d="M657 463.9 c-3.7 -0.5 -4 -0.7 -1.5 -0.9 1.7 -0.2 4.8 -0.3 7 -0.3 2.2 0.1 3.2 -0.1 2.3 -0.4 -1 -0.2 -1.8 -0.9 -1.8 -1.5 0 -0.6 0.9 -0.8 2.1 -0.5 1.2 0.3 2.2 0 2.6 -0.9 0.3 -0.8 1 -1.4 1.5 -1.4 0.6 0 0.8 0.7 0.4 1.5 -0.4 1 0.1 1.5 1.4 1.5 1.1 0 2 0.4 2 1 0 1.8 -8.9 2.8 -16 1.9z"/>
  <path d="M639.3 462.2 c0.9 -0.2 1.7 -0.9 1.7 -1.5 0 -0.9 0.2 -0.9 0.8 -0.1 0.4 0.7 1.8 1.4 3.2 1.6 1.4 0.3 0.3 0.5 -2.5 0.5 -2.7 -0.1 -4.2 -0.2 -3.2 -0.5z"/>
  <path d="M649 462 c-1.1 -0.7 -0.4 -1 2.5 -0.9 3.1 0 3.6 0.2 2 0.9 -2.6 1.1 -2.8 1.1 -4.5 0z"/>
  <path d="M603 460 c3.6 -1.2 7 -1.2 7 0 0 0.6 -2.1 1 -4.7 0.9 -3.9 -0.1 -4.3 -0.2 -2.3 -0.9z"/>
  <path d="M615.3 460.3 c2.6 -0.2 6.7 -0.2 9 0 2.3 0.2 0.2 0.3 -4.8 0.3 -4.9 0 -6.8 -0.1 -4.2 -0.3z"/>
  <path d="M677.3 460.3 c1.5 -0.2 3.9 -0.2 5.5 0 1.5 0.2 0.2 0.4 -2.8 0.4 -3 0 -4.3 -0.2 -2.7 -0.4z"/>
  <path d="M686.2 460.4 c0.4 -0.3 3.2 -0.5 6.3 -0.5 3.1 0 5.9 0.2 6.3 0.5 0.3 0.3 -2.5 0.6 -6.3 0.6 -3.8 0 -6.6 -0.3 -6.3 -0.6z"/>
  <path d="M632.5 458 c-1.2 -0.5 1.5 -0.7 7 -0.3 5 0.3 9.2 0.7 9.4 0.9 0.9 0.8 -14.5 0.2 -16.4 -0.6z"/>
  <path d="M698.3 456.3 c1.5 -0.2 3.9 -0.2 5.5 0 1.5 0.2 0.2 0.4 -2.8 0.4 -3 0 -4.3 -0.2 -2.7 -0.4z"/>
  <path d="M620 455 c-10.9 -0.8 -5.3 -1.7 7 -1 9.7 0.5 10.6 0.6 5.5 1 -3.3 0.3 -8.9 0.3 -12.5 0z"/>
  <path d="M591.8 452.3 c1.8 -0.2 4.5 -0.2 6 0 1.5 0.2 0 0.4 -3.3 0.4 -3.3 0 -4.5 -0.2 -2.7 -0.4z"/>
  <path d="M644 452 c0.8 -0.5 3.5 -1 6 -1 5.8 0 9.1 -1 8.3 -2.3 -0.4 -0.7 1.6 -0.8 6.3 -0.4 3.8 0.4 9.6 0.7 12.9 0.7 10.3 0 4.7 1.7 -9.4 2.9 -16.9 1.4 -26.2 1.4 -24.1 0.1z"/>
  <path d="M611.3 450.3 c3.1 -0.2 8.3 -0.2 11.5 0 3.1 0.2 0.5 0.3 -5.8 0.3 -6.3 0 -8.9 -0.1 -5.7 -0.3z"/>
  <path d="M631 447.5 c-1.1 -1.3 0 -1.4 9.6 -0.9 14.9 0.9 16.6 2.3 2.8 2.4 -8.7 0 -11.4 -0.3 -12.4 -1.5z"/>
  <path d="M592.1 447.6 c0.2 -0.3 3.2 -0.6 6.7 -0.8 3.4 -0.1 6.2 -0.6 6.2 -1 0 -1 12.2 -0.9 17.5 0.1 3.3 0.6 2.1 0.8 -6.9 1.4 -12.2 0.8 -24.2 0.9 -23.5 0.3z"/>
  <path d="M550.8 445.3 c1.2 -0.2 3 -0.2 4 0 0.9 0.3 -0.1 0.5 -2.3 0.4 -2.2 0 -3 -0.2 -1.7 -0.4z"/>
  <path d="M589.3 444.3 c0.9 -0.2 2.5 -0.2 3.5 0 0.9 0.3 0.1 0.5 -1.8 0.5 -1.9 0 -2.7 -0.2 -1.7 -0.5z"/>
  <path d="M56.6 435.8 c-0.3 -2.9 -0.8 -10 -1.1 -15.8 -0.3 -5.8 -0.8 -14.3 -1.1 -18.9 l-0.7 -8.4 8.2 0.5 c4.5 0.3 8.1 0.1 8.1 -0.4 0 -0.5 1.7 -0.9 3.8 -0.8 2 0.1 5.4 0.2 7.4 0.1 3.5 -0.1 3.7 -0.3 4 -3.8 l0.3 -3.8 5.4 -0.3 c3 -0.2 6 -1 6.8 -1.8 1.7 -1.7 13.9 -2 14.5 -0.3 0.2 0.6 2.5 1.3 5 1.6 4.4 0.5 4.7 0.8 5.1 3.7 l0.4 3.1 0.1 -3.2 c0.2 -3.1 0.5 -3.3 3.7 -3.3 3.2 0 3.5 0.2 3.5 3 0 2.3 0.4 3 2 3 1.6 0 2 -0.7 2 -3.1 0 -1.7 0.6 -3.7 1.4 -4.5 1.8 -1.7 7.2 -1.9 7.9 -0.1 0.4 0.8 0.6 0.6 0.6 -0.4 0.1 -1.2 1.4 -1.8 4.9 -2.2 6.5 -0.8 20.1 0.2 23 1.6 1.6 0.8 2.5 0.8 3 0.1 0.9 -1.5 10.5 -2.6 14.7 -1.8 3.3 0.6 3.5 0.9 3.7 4.8 l0.1 4.1 0.4 -3.7 c0.4 -3.3 0.8 -3.8 2.9 -3.8 1.5 0 2.4 -0.6 2.4 -1.5 0 -1.1 1.2 -1.5 5 -1.5 2.8 0 5 0.5 5 1 0 0.6 1.6 1 3.5 1 3.3 0 3.5 0.2 3.5 3.5 0 3.3 0.2 3.5 3.4 3.5 3.3 0 3.4 -0.1 4 -5.1 l0.7 -5.1 6.2 0.6 c3.4 0.4 6.4 1.2 6.5 1.7 0.2 0.5 1.5 0.9 2.8 0.9 2 0 2.4 0.5 2.4 3 0 2.8 0.2 3 3.9 3 5.9 0 7.1 -0.8 7.1 -4.6 0 -2.9 0.4 -3.4 2.3 -3.4 1.3 0 2.8 -0.5 3.4 -1.1 0.7 -0.7 3.5 -0.8 8.2 -0.3 l7.1 0.7 0 3.2 0 3.2 9.8 0.6 c7.6 0.4 27.6 -0.6 22.5 -1.2 -0.8 0 -1.3 -1.6 -1.3 -4.1 0 -3.7 0.2 -4 2.8 -4 1.5 0 5.1 -0.3 8 -0.6 l5.2 -0.7 0 3.7 c0 2 -0.4 3.6 -1 3.6 -0.5 0 -1 0.5 -1 1 0 0.6 1.1 1 2.5 1 2.3 0 2.5 -0.4 2.5 -4 0 -3.9 0.1 -4 3.5 -4 3.3 0 3.5 0.2 3.5 3.5 0 2.4 0.5 3.5 1.5 3.5 1 0 1.5 -1.1 1.5 -3.5 0 -3.2 0.2 -3.5 2.9 -3.5 4.7 0 6.1 1 6.1 4.1 l0 2.9 7.8 0 c4.2 0 8.4 -0.5 9.2 -1 1.1 -0.7 0.5 -1 -2.2 -1 -3.7 0 -3.8 -0.1 -3.8 -3.5 0 -3.3 0.2 -3.5 3.4 -3.5 2.4 0 3.6 0.5 3.9 1.8 0.4 1.3 0.5 1.1 0.6 -0.5 0.1 -1.9 0.7 -2.3 3.7 -2.3 l3.7 0 -0.7 5.6 c-0.4 3.6 -0.3 5.3 0.4 4.9 0.5 -0.3 1 -2.1 1 -3.9 0 -3.6 -0.9 -3.3 13.3 -5.3 3.7 -0.5 3.7 -0.5 3.7 3 0 2.5 -0.5 3.7 -1.7 4 -1 0.3 1.6 0.5 5.7 0.5 7.2 0 7.3 -0.1 3.3 -1.1 -4 -0.9 -4.3 -1.2 -4.3 -4.3 0 -3.7 1.2 -4.1 7.9 -2.8 2.7 0.6 3.1 1.1 3.1 3.9 0 3 0.3 3.3 3.8 3.7 2 0.3 6.2 0.3 9.2 0 l5.5 -0.4 -0.3 -3.9 c-0.4 -3.9 -0.4 -3.9 3.2 -3.9 3.4 0 3.6 0.2 3.6 3.4 0 3.4 0 3.5 5.4 4.1 3 0.4 6.1 0.5 6.8 0.2 0.7 -0.3 -0.6 -0.6 -2.9 -0.6 -4.2 -0.1 -4.3 -0.2 -4.3 -3.6 0 -3.1 0.3 -3.5 2.5 -3.5 1.4 0 2.5 -0.4 2.5 -1 0 -0.5 2.5 -1 5.5 -1 l5.5 0 0 3.3 c0 3 -0.4 3.5 -3.7 4.4 -2.9 0.8 -0.6 0.9 10.2 0.6 7.6 -0.2 14.1 -0.6 14.4 -0.8 0.2 -0.3 -1 -0.5 -2.7 -0.5 -3 0 -3.2 -0.2 -3.2 -3.6 l0 -3.7 5.9 0.6 c4.6 0.4 6.1 0.2 6.5 -0.9 0.6 -1.6 12.2 -2.1 12.8 -0.6 0.2 0.5 2.2 1.2 4.6 1.6 3.4 0.5 4.2 0.3 4.2 -0.9 0 -1.2 1.4 -1.5 7 -1.5 l7 0 0 3.5 0 3.5 -6.5 0 c-4.2 0 -6.5 0.4 -6.5 1.1 0 0.8 1.6 1 5.3 0.5 2.8 -0.3 6.4 -0.6 8 -0.6 2.3 0 2.7 -0.4 2.7 -3 0 -2.8 0.3 -3 3.5 -3 3.2 0 3.5 0.3 3.5 2.9 0 2 0.6 3 2 3.4 1.1 0.3 2 0.1 2 -0.4 0 -0.5 -0.7 -0.9 -1.5 -0.9 -2.5 0 -2 -6.7 0.5 -7.5 1.9 -0.6 8.8 -0.1 16.8 1.1 2.4 0.4 3.2 0.1 3.2 -1.1 0 -1.1 1 -1.5 3.5 -1.5 1.9 0 3.5 0.5 3.5 1 0 0.6 1.3 1 2.9 1 l2.8 0 -13.7 -68.7 c-27.9 -140.2 -33 -166 -33 -168.1 0 -4.2 2.8 -2.4 3.8 2.6 8.9 41.5 56.4 283.3 55.8 283.9 -0.4 0.4 -20.1 1.5 -43.9 2.4 -95.4 3.9 -246.4 10.4 -355.7 15.4 -41.5 1.9 -82 3.7 -90 4 -8 0.3 -16.2 0.8 -18.2 1 l-3.7 0.5 -0.5 -5.2z m46.4 -45.8 c0 -0.5 -0.7 -1 -1.5 -1 -0.8 0 -1.5 0.5 -1.5 1 0 0.6 0.7 1 1.5 1 0.8 0 1.5 -0.4 1.5 -1z m39.3 0.3 c-1.3 -0.2 -3.3 -0.2 -4.5 0 -1.3 0.2 -0.3 0.4 2.2 0.4 2.5 0 3.5 -0.2 2.3 -0.4z m28.1 -1.4 c1.1 -0.1 -0.3 -0.5 -3.3 -1 -5.7 -1 -6.8 -0.8 -5.6 1.1 0.5 0.7 1.9 1 3.7 0.6 1.7 -0.3 4 -0.7 5.2 -0.7z m38.6 -2.4 c0 -1.1 -1.1 -1.5 -4 -1.5 -6.2 0 -5 2.7 1.3 2.9 1.8 0.1 2.7 -0.4 2.7 -1.4z m26 -0.5 c0 -0.5 -1.2 -1 -2.7 -0.9 l-2.8 0.1 2.5 0.8 c1.4 0.4 2.6 0.8 2.8 0.9 0.1 0.1 0.2 -0.3 0.2 -0.9z m37 -1 c0 -0.6 -2.6 -0.9 -6.2 -0.8 l-6.3 0.1 5 0.7 c2.8 0.4 5.6 0.8 6.3 0.8 0.6 0.1 1.2 -0.2 1.2 -0.8z m207 -7.5 c0 -0.8 -0.9 -1.5 -2 -1.5 -1.1 0 -2 0.4 -2 0.9 0 0.5 -1 1.2 -2.2 1.4 -1.3 0.2 -0.4 0.5 2 0.6 3.1 0.1 4.2 -0.3 4.2 -1.4z m54.4 -1 c-0.4 -0.8 -1 -1.5 -1.5 -1.5 -0.5 0 -0.9 0.7 -0.9 1.5 0 0.8 0.7 1.5 1.5 1.5 0.9 0 1.2 -0.6 0.9 -1.5z"/>
  <path d="M59 388.5 c0 -3.3 0.2 -3.5 3.5 -3.5 3.3 0 3.5 0.2 3.5 3.5 0 3.3 -0.2 3.5 -3.5 3.5 -3.3 0 -3.5 -0.2 -3.5 -3.5z"/>
  <path d="M67 386.5 c0 -3.3 0.2 -3.5 3.5 -3.5 3.3 0 3.5 0.2 3.5 3.5 0 3.3 -0.2 3.5 -3.5 3.5 -3.3 0 -3.5 -0.2 -3.5 -3.5z"/>
  <path d="M53.6 385.8 c-1 -3.8 -0.7 -4.8 1.4 -4.8 1.6 0 2 0.7 2 3.5 0 4 -2.4 4.9 -3.4 1.3z"/>
  <path d="M345 377.5 c0 -3.3 0.2 -3.5 3.5 -3.5 3.3 0 3.5 0.2 3.5 3.5 0 3.3 -0.2 3.5 -3.5 3.5 -3.3 0 -3.5 -0.2 -3.5 -3.5z"/>
  <path d="M450 373.5 c0 -3.5 0 -3.5 4.5 -3.5 4.5 0 4.5 0 4.5 3.5 0 3.5 0 3.5 -4.5 3.5 -4.5 0 -4.5 0 -4.5 -3.5z"/>
  <path d="M52.6 368.8 c-1.2 -4.8 -0.7 -7.8 1.4 -7.8 1.7 0 2 0.7 2 5 0 3.6 -0.4 5 -1.4 5 -0.7 0 -1.6 -1 -2 -2.2z"/>
  <path d="M50.6 333.8 c-1.1 -4.2 -0.7 -5.8 1.4 -5.8 1.7 0 2 0.7 2 4 0 4.5 -2.3 5.7 -3.4 1.8z"/>
  <path d="M48.6 298.8 c-1.2 -4.5 -0.7 -6.8 1.4 -6.8 1.7 0 2 0.7 2 4.5 0 4.9 -2.3 6.4 -3.4 2.3z"/>
  <path d="M47.6 280.8 c-1 -3.8 -0.7 -4.8 1.4 -4.8 1.6 0 2 0.7 2 3.5 0 4 -2.4 4.9 -3.4 1.3z"/>
  <path d="M46.6 264.8 c-1.2 -4.5 -0.7 -6.8 1.4 -6.8 1.7 0 2 0.7 2 4.5 0 4.9 -2.3 6.4 -3.4 2.3z"/>
  <path d="M45.6 246.8 c-1.1 -4.2 -0.7 -5.8 1.4 -5.8 1.7 0 2 0.7 2 4 0 4.5 -2.3 5.7 -3.4 1.8z"/>
  <path d="M44.6 230.8 c-1.2 -4.5 -0.7 -6.8 1.4 -6.8 1.7 0 2 0.7 2 4.5 0 4.9 -2.3 6.4 -3.4 2.3z"/>
  <path d="M43.6 213.8 c-1.1 -4.2 -0.7 -5.8 1.4 -5.8 1.7 0 2 0.7 2 4 0 4.5 -2.3 5.7 -3.4 1.8z"/>
  <path d="M42.6 196.8 c-1 -3.8 -0.7 -4.8 1.4 -4.8 1.6 0 2 0.7 2 3.5 0 4 -2.4 4.9 -3.4 1.3z"/>
  <path d="M41.6 179.8 c-1 -3.8 -0.7 -4.8 1.4 -4.8 1.6 0 2 0.7 2 3.5 0 4 -2.4 4.9 -3.4 1.3z"/>
  <path d="M40.6 163.8 c-1 -3.8 -0.7 -4.8 1.4 -4.8 1.6 0 2 0.7 2 3.5 0 4 -2.4 4.9 -3.4 1.3z"/>
  <path d="M39.6 146.8 c-1 -3.8 -0.7 -4.8 1.4 -4.8 1.6 0 2 0.7 2 3.5 0 4 -2.4 4.9 -3.4 1.3z"/>
  <path d="M38.6 130.8 c-1.1 -4.2 -0.7 -5.8 1.4 -5.8 1.7 0 2 0.7 2 4 0 4.5 -2.3 5.7 -3.4 1.8z"/>
  <path d="M487.3 128.2 c-11.3 -2.2 -13.3 -2.8 -13.3 -4.4 0 -1 0.3 -1.8 0.8 -1.8 0.4 0 7.7 1.4 16.2 3 8.5 1.6 15.6 3 15.8 3 0.1 0 0.2 0.7 0.2 1.5 0 2 -3.6 1.8 -19.7 -1.3z"/>
  <path d="M450.3 121.2 c-11.3 -2.2 -13.3 -2.8 -13.3 -4.4 0 -1 0.3 -1.8 0.8 -1.8 0.4 0 7.7 1.4 16.2 3 8.5 1.6 15.6 3 15.8 3 0.1 0 0.2 0.7 0.2 1.5 0 2 -3.6 1.8 -19.7 -1.3z"/>
  <path d="M413.3 114.2 c-11.3 -2.2 -13.3 -2.8 -13.3 -4.4 0 -1 0.3 -1.8 0.8 -1.8 0.4 0 7.7 1.4 16.2 3 8.5 1.6 15.6 3 15.8 3 0.1 0 0.2 0.7 0.2 1.5 0 2 -3.6 1.8 -19.7 -1.3z"/>
  <path d="M37.6 113.8 c-1 -3.8 -0.7 -4.8 1.4 -4.8 1.6 0 2 0.7 2 3.5 0 4 -2.4 4.9 -3.4 1.3z"/>
  <path d="M365.8 105.2 c-20.5 -4 -23.8 -4.9 -23.8 -6.4 0 -1 0.3 -1.8 0.8 -1.8 0.7 0 38.1 7.1 48 9.1 3.3 0.7 5.2 1.5 5.2 2.5 0 2.1 -3.8 1.7 -30.2 -3.4z"/>
  <path d="M36.6 97.8 c-1.1 -4.2 -0.7 -5.8 1.4 -5.8 1.7 0 2 0.7 2 4 0 4.5 -2.3 5.7 -3.4 1.8z"/>
  <path d="M326.3 97.7 c-4.3 -0.8 -5.3 -1.4 -5.3 -3 0 -1.7 0.5 -1.8 3.8 -1.2 10.5 1.9 13.2 2.7 13.2 4.1 0 1.6 -3.7 1.7 -11.7 0.1z"/>
  <path d="M286.8 90.2 c-20.5 -4 -23.8 -4.9 -23.8 -6.4 0 -1 0.3 -1.8 0.8 -1.8 0.7 0 38.1 7.1 48 9.1 3.3 0.7 5.2 1.5 5.2 2.5 0 2.1 -3.8 1.7 -30.2 -3.4z"/>
  <path d="M247.3 82.7 c-4.3 -0.8 -5.3 -1.4 -5.3 -3 0 -1.7 0.5 -1.8 3.8 -1.2 10.5 1.9 13.2 2.7 13.2 4.1 0 1.6 -3.7 1.7 -11.7 0.1z"/>
  <path d="M35.6 80.8 c-1 -3.8 -0.7 -4.8 1.4 -4.8 1.6 0 2 0.7 2 3.5 0 4 -2.4 4.9 -3.4 1.3z"/>
  <path d="M225 78.4 c-3.6 -0.7 -44.3 -8.6 -90.5 -17.4 -46.2 -8.8 -87 -16.7 -90.7 -17.4 l-6.8 -1.3 0 3.8 c0 4.4 -2.3 5.5 -3.4 1.7 -1 -3.8 -0.7 -9.8 0.5 -9.8 0.7 0 19.7 3.6 42.3 8 62.8 12.1 95.3 18.4 127.6 24.5 35.7 6.8 34 6.4 34 8.1 0 1.7 -4.1 1.7 -13 -0.2z"/>
  <path d="M34.6 64.8 c-1.1 -4.2 -0.7 -5.8 1.4 -5.8 1.7 0 2 0.7 2 4 0 4.5 -2.3 5.7 -3.4 1.8z"/>
 </g>
 <g fill="#f2f0f3">
  <path d="M344.5 584.9 c-3.3 -0.5 -8.4 -1.9 -11.3 -3 l-5.3 -2.2 0.3 -8.8 c0.2 -4.9 0 -8.9 -0.4 -8.9 -0.5 0 -0.8 -1.3 -0.8 -2.9 0 -4.7 4.2 -5.6 26.5 -5.6 21.2 0 26.3 1 24.9 4.9 -0.3 1.2 -0.8 6.2 -1.1 11.1 -0.2 5 -0.6 9.6 -0.8 10.3 -0.8 2.3 -4.7 3.3 -22 5.5 -2.2 0.3 -6.7 0.1 -10 -0.4z"/>
  <path d="M111.2 515.8 c-1.4 -1.4 -1.5 -6.7 -0.2 -8.8 0.8 -1.2 1 -1.1 1 0.8 0 1.2 0.4 2.2 0.9 2.2 1.6 0 2.1 3.1 0.8 5.1 -1 1.4 -1.6 1.6 -2.5 0.7z"/>
  <path d="M741.7 511.5 c-0.5 -1 0 -1.5 1.4 -1.5 1.2 0 1.9 0.5 1.7 1.2 -0.6 1.8 -2.5 2 -3.1 0.3z"/>
  <path d="M753 509.1 c0 -0.6 -3.1 -0.9 -6.8 -0.8 -6.1 0.2 -6.8 0 -6.4 -1.5 0.2 -1 -0.1 -1.8 -0.7 -1.8 -0.6 0 -1.1 -0.5 -1.1 -1.1 0 -0.6 0.9 -0.8 2 -0.4 1.1 0.3 2 0.2 2 -0.3 0 -0.5 1.8 -0.9 4 -0.8 4.3 0.1 5.7 1.6 1.5 1.6 -1.4 0 -2.5 0.4 -2.5 0.8 0 0.9 1.5 1.2 5.8 1.3 1.2 0.1 2.2 0.5 2.2 1 0 0.5 1.4 0.9 3.1 0.9 1.7 0 2.8 0.4 2.4 1 -0.8 1.3 -5.5 1.3 -5.5 0.1z"/>
  <path d="M99 508.3 c0 -0.5 0.5 -1.5 1 -2.3 0.8 -1.2 1 -1.1 1 0.8 0 1.2 -0.4 2.2 -1 2.2 -0.5 0 -1 -0.3 -1 -0.7z"/>
  <path d="M767.3 508.3 c-0.7 -0.3 -1.3 -0.9 -1.3 -1.4 0 -1.1 3.1 -1.2 4.8 0 1.1 0.6 1 0.9 -0.5 1.3 -1 0.3 -2.4 0.3 -3 0.1z"/>
  <path d="M727 505.4 c0 -0.8 0.4 -1.3 0.9 -0.9 0.5 0.3 1.2 0.1 1.6 -0.5 0.7 -1.2 2.5 -1.3 2.5 -0.2 0 0.5 -1.1 1.4 -2.5 2 -2.1 1 -2.5 0.9 -2.5 -0.4z"/>
  <path d="M802.4 506 c-0.5 -0.4 -2.9 -1.3 -5.4 -1.8 -2.5 -0.5 -3.5 -1 -2.3 -1.1 2.2 -0.1 4.4 -2.1 2.4 -2.1 -0.6 0 -1.1 -0.9 -1.1 -1.9 0 -1.1 -0.7 -2.1 -1.5 -2.3 -1 -0.2 -1.2 -0.7 -0.5 -1.8 0.6 -1 3.2 -1.6 8.4 -1.8 l7.6 -0.4 0 4.3 c0 4.5 -2.1 8.1 -5.1 9.2 -0.9 0.3 -2 0.2 -2.5 -0.3z"/>
  <path d="M38.1 495.1 c-1.2 -1.2 -2.1 -3.4 -2.1 -5.1 0 -2.8 0.2 -3 3.5 -2.7 3.8 0.2 4.1 0.7 2.4 3.9 -0.6 1.1 -0.7 1.8 -0.2 1.5 0.5 -0.3 1.5 -0.2 2.3 0.3 1.2 0.7 1.1 1 -0.5 1.6 -1.1 0.4 -2.3 1.2 -2.6 1.7 -0.4 0.5 -1.6 0 -2.8 -1.2z"/>
  <path d="M824 486.3 c-3 -0.2 -12.2 -1 -20.5 -1.8 -8.2 -0.8 -17.7 -1.7 -21 -1.9 -3.3 -0.3 -10.3 -1 -15.5 -1.5 -42.5 -4.5 -69.8 -7.1 -80.4 -7.7 -4.3 -0.2 -8.5 -0.8 -9.3 -1.3 -2.3 -1.2 7.5 -0.6 40.2 2.5 18.5 1.7 40.5 3.7 77.5 6.9 31.9 2.8 36 3.3 36 4.6 0 0.5 -0.3 0.8 -0.7 0.7 -0.5 -0.1 -3.3 -0.3 -6.3 -0.5z"/>
  <path d="M659 471.1 c0 -1.3 4 -2 8.9 -1.5 7.4 0.7 6.5 1.9 -1.5 2.1 -4.1 0.1 -7.4 -0.1 -7.4 -0.6z"/>
  <path d="M697.3 465.3 c0.9 -0.2 2.5 -0.2 3.5 0 0.9 0.3 0.1 0.5 -1.8 0.5 -1.9 0 -2.7 -0.2 -1.7 -0.5z"/>
  <path d="M716.8 463.3 c1.2 -0.2 3.2 -0.2 4.5 0 1.2 0.2 0.2 0.4 -2.3 0.4 -2.5 0 -3.5 -0.2 -2.2 -0.4z"/>
  <path d="M727 454.4 c0 -1.6 0.2 -1.7 1 -0.4 0.7 1 1.3 1.1 1.8 0.4 0.4 -0.6 2.9 -0.8 6.7 -0.4 3.3 0.4 4.6 0.8 2.9 0.9 -1.7 0 -5.2 0.4 -7.8 0.7 -4.1 0.6 -4.6 0.5 -4.6 -1.2z"/>
  <path d="M56.6 434.7 c-0.4 -3.4 -1.3 -18.6 -2.1 -33.7 -0.8 -15.1 -1.9 -34.7 -2.5 -43.5 -0.5 -8.8 -1.4 -24.3 -2 -34.5 -2.3 -40.4 -7.3 -124.6 -12 -202.5 -2.7 -45 -4.8 -82 -4.7 -82.1 0.3 -0.3 0 -0.4 93.2 17.5 75.4 14.5 146.6 28 297.4 56.6 48.1 9.1 87.6 16.6 87.7 16.8 0.1 0.1 4.6 22 9.9 48.7 8.4 42.3 36.2 182.3 38.1 192 0.4 1.9 0.8 4.7 0.8 6.3 0.1 1.5 0.3 2.7 0.6 2.7 1.4 0 0.8 4.9 -0.7 6.1 -1.2 1 -1.5 1 -0.9 0.2 0.4 -0.8 0.2 -1.3 -0.8 -1.3 -0.8 0 -1.8 -0.5 -2.1 -1.1 -0.9 -1.3 2.7 -0.8 3.7 0.6 0.5 0.7 0.8 0.7 0.8 0 -0.1 -0.5 -1 -2.1 -2.1 -3.4 -1.5 -1.8 -2.3 -2.1 -3.1 -1.3 -1.3 1.3 -3.2 1.6 -2.4 0.4 0.2 -0.4 -0.4 -0.8 -1.4 -0.8 -1.4 0 -1.6 0.3 -0.8 1.3 0.6 0.7 1.8 1.3 2.7 1.3 1 0 1.7 0.9 1.8 2 0.1 1.1 -0.2 1.8 -0.7 1.5 -0.4 -0.3 -1 -0.2 -1.3 0.2 -0.2 0.5 -0.2 0.2 0 -0.6 0.3 -1.3 -1.3 -3 -2.9 -3.1 -0.3 0 -0.9 0.8 -1.1 1.8 -0.4 1.6 -0.5 1.6 -0.6 -0.1 0 -1 -0.6 -1.5 -1.2 -1.2 -0.6 0.4 -1.7 -0.1 -2.5 -1.1 -0.9 -1.3 -1.3 -1.4 -1.2 -0.5 0.4 1.9 -3.2 2.7 -4.3 0.9 -0.7 -1 -0.9 -0.9 -0.9 0.4 0 0.9 -0.5 2 -1.2 2.4 -0.8 0.5 -0.9 0 -0.5 -1.5 0.4 -1.6 0.2 -2 -0.6 -1.3 -0.7 0.5 -3.1 0.8 -5.4 0.7 -4 -0.2 -4.1 -0.1 -3.2 2.3 0.8 2.2 0.7 2.4 -1.1 1.9 -1.1 -0.3 -2 -0.1 -2 0.4 0 0.5 -0.8 0.9 -1.7 0.9 -1.5 0 -1.6 -0.2 -0.3 -1 1.3 -0.8 1.2 -1 -0.2 -1 -1 0 -1.8 -0.4 -1.8 -1 0 -1.3 1.3 -1.3 2.7 0.1 0.8 0.8 1.3 0.7 1.8 -0.1 0.4 -0.7 0 -1.9 -0.9 -2.8 -1.6 -1.6 -1.7 -1.6 -1 0.2 0.5 1.4 0.4 1.7 -0.5 1.2 -1.5 -1 -4.3 1.3 -3.4 2.8 0.4 0.6 -0.5 0.3 -2 -0.7 -2.8 -1.8 -5.2 -1.5 -4.1 0.6 0.3 0.7 -0.4 0.1 -1.5 -1.2 -1.2 -1.3 -2.1 -1.9 -2.1 -1.3 0 0.6 -1.3 1 -3 1 -1.6 -0.1 -3 -0.5 -3 -0.9 0 -0.5 -0.9 -1.3 -2.1 -1.9 -1.6 -0.9 -2.4 -0.8 -3.8 0.4 -1.4 1.3 -2 1.3 -3.1 0.3 -0.8 -0.6 -0.4 0 0.9 1.6 1.4 1.5 1.9 2.7 1.3 2.7 -0.7 0 -1.2 -0.5 -1.2 -1.1 0 -0.6 -0.8 -0.8 -2 -0.4 -1.5 0.5 -1.8 0.2 -1.5 -1.4 0.3 -1.4 -0.1 -2.1 -1.2 -2.1 -1.3 0 -1.4 0.2 -0.2 1.7 1.2 1.5 1.2 1.6 -0.5 1 -1.6 -0.6 -1.7 -0.5 -0.6 0.8 0.7 0.9 1 1.8 0.6 2.2 -0.3 0.3 -0.6 0 -0.6 -0.7 0 -0.9 -0.6 -0.8 -2 0.5 -1.8 1.6 -2 1.6 -2 0.2 0 -1.9 -1.5 -2.3 -2.5 -0.7 -0.4 0.6 -1.1 0.8 -1.6 0.5 -0.5 -0.4 -0.9 -0.1 -0.9 0.5 0 0.7 -0.5 0.6 -1.4 -0.2 -0.8 -0.7 -1.2 -1.6 -1 -2 0.2 -0.4 0 -0.9 -0.5 -1.3 -0.6 -0.3 -0.8 0.5 -0.5 2 0.2 1.4 0 2.5 -0.6 2.5 -0.6 0 -0.9 -0.4 -0.5 -0.9 0.3 -0.6 -0.4 -1.5 -1.5 -2.1 -1.1 -0.6 -1.8 -1.5 -1.5 -2.1 0.4 -0.5 0.2 -0.9 -0.4 -0.9 -0.5 0 -1.3 0.9 -1.6 2 -0.4 1.1 -1 1.8 -1.4 1.6 -1 -0.7 -5.3 2.3 -4.7 3.3 0.3 0.4 -0.1 0.8 -0.9 0.8 -1.3 0 -1.3 -0.3 0.1 -1.8 1 -1.1 1.2 -1.9 0.5 -2.4 -0.6 -0.3 -1.1 0 -1.1 0.7 0 0.9 -0.3 0.9 -1 -0.2 -0.5 -0.8 -1 -1.1 -1 -0.6 0 0.6 -0.7 0.1 -1.6 -1 -1.5 -1.8 -1.5 -1.8 -0.9 0.4 0.4 1.2 0.3 2.1 -0.2 2 -0.4 -0.1 -1.7 0.3 -2.9 0.9 -1.2 0.7 -2.6 0.8 -3.4 0.3 -0.8 -0.5 -1.7 -0.7 -2 -0.5 -0.3 0.2 -0.6 -0.5 -0.7 -1.5 -0.2 -1.8 -0.1 -1.8 1.9 0.2 2.2 2.2 3.4 1.8 2.4 -0.7 -0.3 -1 -1.1 -1.3 -1.8 -0.9 -0.9 0.5 -0.8 0.2 0.1 -0.9 1.2 -1.6 1.2 -1.7 -0.5 -1.1 -1 0.4 -2.7 1.3 -3.8 2 -1.4 1 -2.3 1 -3.7 0.1 -1.4 -0.8 -2.1 -0.9 -3 0 -0.8 0.8 -0.7 1.3 0.2 1.8 0.8 0.5 1 0.4 0.5 -0.3 -0.4 -0.7 -0.2 -1.2 0.3 -1.2 1.8 0 1.2 1.9 -0.9 3 -1.1 0.6 -1.9 0.7 -1.8 0.3 0.2 -0.5 -0.6 -1.8 -1.7 -3 l-2.1 -2.2 -0.2 3.1 c-0.3 3.7 -1.2 5.2 -1.2 2 0 -1.2 -0.4 -2.2 -0.9 -2.2 -1.6 0 -6.1 2.7 -5.6 3.3 0.3 0.4 0.2 0.4 -0.2 0.1 -0.8 -0.5 -0.9 -0.9 -1.2 -3.5 0 -0.5 -0.5 -0.8 -1 -0.5 -0.5 0.3 -0.7 1.5 -0.4 2.6 0.3 1.1 0 2 -0.6 2 -0.6 0 -0.8 -0.7 -0.4 -1.7 0.4 -1.1 0.3 -1.4 -0.5 -0.9 -0.7 0.4 -1.2 0.2 -1.2 -0.3 0 -0.6 -0.6 -1.1 -1.4 -1.1 -0.8 0 -1.8 -0.4 -2.1 -1 -0.3 -0.6 0.1 -0.7 0.9 -0.4 0.9 0.3 1.6 0.2 1.6 -0.4 0 -0.6 -0.8 -0.9 -1.7 -0.7 -1 0.2 -2.5 0.4 -3.3 0.5 -1.2 0.1 -1.1 0.3 0.2 0.8 1.3 0.5 1.5 1.1 0.8 2.2 -0.8 1.2 -1 1.2 -1 0.1 0 -1.1 -0.3 -1.1 -1.5 -0.1 -1.1 0.9 -1.5 0.9 -1.5 0.1 0 -0.7 -0.5 -0.9 -1 -0.6 -0.6 0.4 -0.8 1.1 -0.5 1.6 0.4 0.5 0 0.9 -0.8 0.9 -1 0 -1.3 -0.8 -0.9 -2.7 0.4 -2.3 0.2 -2.6 -0.8 -1.6 -0.9 0.8 -1.9 0.9 -3.1 0.3 -1.5 -0.9 -1.7 -0.6 -1.4 2.3 0.2 1.7 0.1 2.6 -0.2 1.9 -0.2 -0.6 -1 -0.9 -1.5 -0.6 -0.7 0.4 -0.8 0.2 -0.4 -0.4 0.7 -1.2 -0.5 -1.6 -3.1 -1.3 -0.7 0.1 -1.3 -0.3 -1.3 -0.9 0 -0.6 -0.8 -1 -1.7 -0.8 -1 0.1 -2.4 -0.1 -3 -0.5 -0.8 -0.5 -1.3 -0.4 -1.3 0.2 0 1.1 1.5 1.5 3.4 1.2 0.5 -0.1 0.4 0.5 -0.3 1.3 -1 1.2 -0.9 1.6 0.6 2.4 1 0.5 2.4 0.7 3.2 0.4 0.8 -0.3 1.1 0 0.7 0.6 -0.8 1.3 -4.6 1.1 -4.6 -0.2 0 -0.6 -0.4 -0.6 -1.1 0.1 -1.1 1.1 -5.9 0.5 -5.9 -0.8 0 -0.5 0.6 -0.6 1.3 -0.3 0.8 0.3 1.3 -0.5 1.5 -1.9 0.1 -2.1 -0.2 -2.3 -2.3 -1.9 -1.5 0.2 -2.5 0 -2.5 -0.7 0 -0.7 -0.5 -0.9 -1 -0.6 -0.6 0.4 -0.4 1.3 0.6 2.3 1.6 1.5 1.5 1.7 -0.7 2.2 -2.3 0.6 -2.3 0.6 -0.4 1.8 1.1 0.6 1.5 1.2 0.9 1.2 -0.6 0 -1.7 -0.7 -2.4 -1.5 -0.7 -0.8 -1.7 -1.2 -2.3 -0.8 -0.6 0.3 -0.7 0.1 -0.3 -0.5 0.4 -0.7 0.1 -1.2 -0.8 -1.2 -0.9 0 -1.6 0.5 -1.6 1.1 0 0.5 -0.5 0.7 -1 0.4 -1.9 -1.2 -6.2 -1.6 -5.5 -0.5 0.8 1.3 0.3 1.3 -3.1 0 -2.3 -0.9 -3.1 -0.7 -5.4 1.5 -1.6 1.5 -3.1 2.2 -3.4 1.7 -0.7 -1.1 1.8 -3.5 2.7 -2.6 0.3 0.3 1 -0.3 1.6 -1.5 1.1 -1.9 1 -1.9 -1.6 -0.6 -1.4 0.8 -3 1.2 -3.5 0.9 -0.4 -0.3 -0.8 0 -0.8 0.7 0 0.6 -0.8 0.9 -1.9 0.6 -1 -0.2 -2.5 0 -3.4 0.4 -1 0.6 -1.8 0.5 -2.2 -0.1 -0.3 -0.5 -0.1 -1 0.6 -1 0.7 0 0.9 -0.3 0.6 -0.6 -0.4 -0.4 -1.4 -0.1 -2.3 0.7 -2.2 1.8 -4.1 2 -4.1 0.3 0 -1.1 0.4 -1.1 1.6 -0.2 1.3 1 1.4 1 0.4 -0.1 -0.6 -0.7 -0.9 -2.1 -0.6 -3 0.4 -1.1 0.1 -1 -1 0.4 -1.4 1.8 -1.7 1.9 -3.4 0.4 -1.7 -1.5 -2 -1.5 -4.6 0.1 -2 1.2 -2.4 1.9 -1.5 2.3 0.9 0.4 0.7 0.6 -0.4 0.6 -1 0.1 -1.8 -0.3 -1.8 -0.9 0 -0.5 -0.5 -1 -1.2 -1 -0.6 0 -0.9 0.3 -0.5 0.6 0.3 0.3 0.1 1.2 -0.6 1.8 -1.6 1.8 -3.8 -0.3 -2.6 -2.6 0.6 -1.1 0.4 -1.8 -0.7 -2.2 -0.9 -0.4 -1.2 -0.2 -0.8 0.5 0.4 0.6 0 1.5 -0.7 2 -1.2 0.8 -1.1 1.2 0.3 2.2 1.1 0.9 1.4 1.8 0.7 2.8 -0.7 1.1 -0.9 1.1 -0.9 -0.3 0 -1 -0.5 -1.8 -1.1 -1.8 -0.6 0 -0.9 0.7 -0.6 1.5 0.4 0.8 0.2 1.7 -0.3 2 -0.6 0.4 -1.1 0.1 -1.1 -0.4 -0.1 -0.6 -0.2 -1.7 -0.3 -2.3 -0.1 -0.7 0.5 -2.4 1.3 -3.8 1.5 -2.5 1.5 -2.5 -0.6 -0.7 -2 1.7 -5 1.6 -3.9 -0.2 0.3 -0.4 -0.4 -0.8 -1.5 -0.8 -1.2 -0.1 -1.9 0.5 -1.9 1.6 0 1.3 -1 1.7 -4.7 1.8 -3.1 0.1 -4.2 -0.1 -3.3 -0.7 1.1 -0.7 1 -0.9 -0.7 -0.7 -1.4 0.1 -2.1 0.7 -2 1.9 0.1 1 0.7 1.6 1.3 1.4 0.7 -0.3 1 0.3 0.7 1.5 -0.5 2 -0.6 2 -2 -0.1 -1.5 -2.2 -3.8 -2.8 -2.8 -0.7 0.4 0.6 0 0.4 -0.8 -0.5 -0.8 -1 -1.7 -1.5 -2 -1.1 -0.4 0.3 -0.7 0.1 -0.7 -0.6 0 -1.3 -1.4 -1.2 -5.5 0.5 -1.9 0.7 -1.9 0.6 -0.5 -1.2 1.3 -1.7 1.3 -1.8 0 -0.7 -1 0.8 -2.1 0.9 -3 0.3 -2 -1.3 -3 -1.2 -3 0 0 0.6 0.7 1 1.5 1 1 0 1.5 0.9 1.4 2.8 0 1.5 -0.3 2.1 -0.6 1.4 -0.2 -0.6 -1 -0.9 -1.5 -0.6 -0.6 0.4 -0.8 0.2 -0.5 -0.3 0.9 -1.5 -1.5 -3.2 -5.1 -3.7 -3.5 -0.4 -6.1 0.7 -4.3 1.8 0.6 0.4 1.1 0.2 1.1 -0.5 0 -0.7 0.2 -1 0.5 -0.7 1 0.9 -0.7 3.8 -2.2 3.8 -0.8 0 -1.1 -0.4 -0.8 -1 0.3 -0.5 0 -1 -0.9 -1 -0.8 0 -2.3 -0.3 -3.3 -0.6 -1.7 -0.5 -1.7 -0.5 0 0.9 1 0.8 1.4 1.8 0.9 2.1 -0.6 0.3 -1.3 -0.1 -1.6 -1 -0.5 -1.4 -0.9 -1.4 -2.4 -0.3 -1.5 1.3 -1.6 1.2 -0.4 -0.3 0.8 -0.9 1.1 -2.2 0.7 -2.9 -1 -1.5 -2.5 0.8 -2.5 3.8 0 1.5 -0.6 2.1 -1.9 2 -1.1 0 -1.7 -0.5 -1.5 -0.9 0.3 -0.5 0.9 -0.6 1.3 -0.4 0.4 0.3 0.8 -0.1 0.8 -0.9 0 -0.8 -0.5 -1.5 -1.1 -1.5 -0.6 0 -0.5 -0.4 0.2 -0.9 1 -0.6 0.9 -1.1 -0.4 -2.2 -1.4 -1.1 -1.8 -1.1 -2.9 0.5 -0.8 1 -1.8 1.5 -2.4 1.1 -0.6 -0.3 -1.1 -0.1 -1.1 0.5 0 0.6 -0.4 0.9 -1 0.5 -0.5 -0.3 -0.6 -1.3 -0.3 -2.3 0.6 -1.6 0.6 -1.6 -1.1 0.1 -1.8 1.8 -4.1 1.4 -3 -0.5 0.4 -0.7 0.2 -0.8 -0.4 -0.4 -0.9 0.5 -0.9 1.2 0 2.6 0.9 1.4 1.6 1.6 2.5 0.8 1 -0.8 1.3 -0.6 1.3 0.6 0 2.4 -0.4 3 -1.8 3.2 -0.6 0.1 -1 -0.1 -0.7 -0.6 0.2 -0.4 -0.5 -1.6 -1.6 -2.6 -1.5 -1.4 -2 -1.5 -1.7 -0.4 0.2 0.8 -0.4 1.5 -1.2 1.5 -0.9 0 -1.4 -0.7 -1.2 -1.7 0.2 -1 -0.2 -1.8 -0.7 -1.8 -0.5 0 -0.8 0.9 -0.6 2.1 0.3 1.3 0 1.9 -0.8 1.6 -0.7 -0.2 -1.1 -1.4 -1.1 -2.5 0.1 -1.8 -0.4 -2.2 -2.5 -2.1 -1.8 0.1 -2 0.3 -0.8 0.6 1 0.3 1.6 1.1 1.3 1.8 -0.2 0.7 -0.2 1.6 0.2 1.9 1.1 1.1 1.1 3.6 0 4.3 -0.6 0.3 -0.8 0.1 -0.4 -0.5 0.3 -0.5 0 -1.3 -0.6 -1.5 -1 -0.4 -1 -0.6 0 -0.6 1.9 -0.1 0.4 -2.1 -1.6 -2.1 -1.1 0 -1.8 0.8 -1.9 2 -0.1 1.3 0.2 1.8 0.9 1.4 0.7 -0.4 0.8 -0.2 0.4 0.5 -1 1.6 -2.9 0.2 -2.2 -1.6 0.4 -1 0.1 -1.3 -1.3 -0.8 -1.1 0.3 -2.3 0 -2.7 -0.6 -0.4 -0.7 -0.3 -0.9 0.4 -0.5 0.6 0.3 1.3 0.2 1.7 -0.4 0.3 -0.5 1.6 -1 2.8 -1.1 2 -0.1 2 -0.2 -0.3 -0.8 -1.7 -0.5 -2.6 -0.3 -2.8 0.6 -0.3 1.2 -0.6 1.2 -2 0.1 -1.2 -1 -1.4 -1 -0.8 0 0.4 0.7 0.2 1.2 -0.4 1.2 -0.7 0 -1 0.7 -0.6 1.5 0.3 0.8 0.1 1.5 -0.3 1.5 -1.4 0 -2.1 -2.8 -0.8 -3.3 0.8 -0.2 0.7 -0.9 -0.5 -2 -1.5 -1.6 -1.6 -1.4 -1.4 1.8 0.4 3.9 0.3 3.9 -2.6 2.4 -1.5 -0.8 -1.9 -0.8 -1.4 0 0.7 1.1 -0.6 1.5 -3.2 1.2 -0.8 -0.1 -2 0.3 -2.7 0.9 -1 0.9 -1.8 0.7 -3.4 -0.9 -1.3 -1.3 -1.6 -2.1 -0.8 -2.4 0.7 -0.2 0.9 -0.7 0.6 -1.1 -0.3 -0.3 -1.9 0 -3.4 0.8 -2.7 1.4 -5.5 1.2 -5.5 -0.5 0 -0.5 0.3 -0.8 0.8 -0.8 2.1 0.4 4.2 -0.2 4.2 -1.1 0 -0.7 -0.7 -0.7 -1.7 -0.2 -1 0.4 -2.8 0.7 -4 0.7 -1.2 -0.1 -2 0.2 -1.7 0.6 0.3 0.5 0 0.9 -0.5 0.9 -0.6 0 -1.1 -0.6 -1.2 -1.2 0 -0.7 -0.4 -0.4 -0.8 0.7 -0.5 1.1 -1.4 2 -2.2 2 -0.8 0 -1.3 0.9 -1.1 2 0.2 1.2 0 1.6 -0.5 0.9 -1.1 -1.5 -8.6 -1.1 -9.1 0.5 -0.3 0.8 -0.9 0.5 -2 -1 -1.5 -2.2 -1.6 -2.2 -2.3 -0.3 -0.6 1.5 -0.8 1.6 -0.8 0.3 -0.1 -0.9 0.5 -2.2 1.3 -2.8 1.1 -0.9 1.5 -0.7 2.1 1.1 l0.7 2.3 0.8 -2.5 c0.6 -1.7 0.8 -2 0.9 -0.7 0.1 1.4 0.5 1.6 2 0.7 1.4 -0.7 2.1 -0.6 2.4 0.3 0.4 0.9 0.6 0.9 0.6 0 0.1 -0.7 0.7 -1 1.4 -0.7 0.7 0.2 2.2 -0.5 3.3 -1.7 1.1 -1.3 1.3 -1.9 0.4 -1.4 -2.1 1.3 -4.1 1.5 -3.4 0.4 0.3 -0.5 -0.2 -0.9 -1.1 -0.9 -0.8 0 -1.8 0.7 -2.1 1.5 -0.8 2 -2.4 1.9 -2.4 0 0 -1.2 -0.4 -1.3 -1.9 -0.5 -1.4 0.7 -2.1 0.6 -2.4 -0.3 -0.4 -0.9 -0.6 -0.9 -0.6 0.1 -0.1 0.7 -0.6 1 -1.3 0.6 -0.7 -0.4 -0.8 -0.3 -0.4 0.4 0.5 0.8 0 1.2 -1.3 1.2 -1.1 0 -2.3 0.5 -2.7 1.2 -0.4 0.6 -0.3 0.8 0.3 0.5 0.6 -0.4 1.4 0 1.7 0.9 0.6 1.5 0.4 1.5 -1.6 0.2 -2.5 -1.7 -3.1 -4.5 -1 -4 0.8 0.1 1.1 -0.2 0.7 -0.7 -0.9 -1.5 -2.9 -0.4 -4.1 2.2 -0.5 1.2 -1.6 2.1 -2.3 1.9 -0.8 -0.2 -1.1 0.3 -0.8 1.2 0.3 0.8 0 2 -0.8 2.6 -1.1 0.9 -1.3 0.7 -0.9 -1.2 0.2 -1.3 0.2 -1.7 -0.2 -1 -0.3 0.6 -1.7 1.2 -3.2 1.2 -2.5 0 -2.5 -0.1 -0.6 -1.5 1 -0.8 2.6 -1.5 3.5 -1.5 1.8 0 5.9 -4 4.1 -4 -0.6 0 -1.4 0.5 -1.7 1 -0.3 0.6 -1.1 1 -1.6 1 -0.6 0 -0.8 -0.4 -0.5 -0.8 0.2 -0.4 -0.3 -0.8 -1.3 -0.8 -1.2 0 -1.7 0.6 -1.4 1.7 0.5 1.9 -1.3 3.4 -2.2 1.9 -0.5 -0.8 -1.2 -0.7 -2.2 0.2 -1.4 1.1 -1.5 1 -0.9 -1 0.5 -1.3 0.3 -2.2 -0.3 -2.2 -1 0 -1.6 2.2 -1.2 4.3 0.1 0.5 -0.4 0.5 -1.1 0.1 -2 -1.2 -8.6 -1 -10.5 0.3 -1.2 0.9 -1.3 1.3 -0.3 1.3 0.7 0 1.1 0.3 0.8 0.6 -0.8 0.7 -4.8 -1.8 -4.8 -3 0 -0.4 0.6 -0.3 1.4 0.3 1.2 1 1.8 0.7 3.2 -1.4 1.5 -2.4 1.7 -2.4 3 -0.8 1.2 1.6 1.3 1.6 1.4 0.2 0 -1.9 -2.6 -3.3 -3.5 -1.8 -0.4 0.5 -1.1 0.6 -1.7 0.3 -0.7 -0.4 -0.8 -0.2 -0.4 0.4 1.1 1.8 -0.3 3.5 -1.8 2.2 -0.7 -0.5 -3.9 -1.2 -7.1 -1.5 l-5.8 -0.5 2.4 2.3 c1.3 1.2 2.8 2.1 3.4 1.9 0.5 -0.2 0.4 0.3 -0.4 1 -1.1 1 -1.4 1 -1.8 0.1 -0.3 -0.7 -1.1 -1.3 -1.8 -1.3 -0.7 0 -1.6 -0.6 -1.8 -1.2 -0.4 -1 -0.6 -1 -0.6 0 -0.1 0.6 -0.6 1.2 -1.2 1.2 -0.5 0 -0.8 -0.4 -0.5 -0.9 0.4 -0.5 0.3 -1.7 -0.1 -2.7 -0.6 -1.6 -0.9 -1.4 -1.9 1.1 -0.9 2 -1.3 2.4 -1.4 1.2 0 -1 -0.4 -1.6 -0.9 -1.2 -0.5 0.3 -1.1 0 -1.4 -0.7 -0.2 -0.7 -0.3 -0.5 -0.1 0.5 0.1 0.9 -0.5 2.6 -1.5 3.8 l-1.6 2 -3 -2.6 c-1.7 -1.4 -2.2 -2.3 -1.2 -1.9 1 0.3 1.7 0.1 1.7 -0.5 0 -2.1 -4 -1.1 -5 1.2 -0.5 1.2 -0.9 1.6 -0.9 1 -0.1 -0.7 -0.6 -1.3 -1.2 -1.3 -0.5 0 -0.7 0.5 -0.4 1 0.3 0.6 0.2 1 -0.4 1 -0.5 0 -1.1 -0.5 -1.3 -1.1 -0.2 -0.7 -1.9 -1.4 -3.8 -1.6 -1.9 -0.2 -3.6 -0.8 -3.8 -1.3 -0.2 -0.6 -1 -0.6 -2.1 0 -1 0.5 -2.2 0.6 -2.6 0.2 -0.5 -0.4 -0.5 -0.2 -0.1 0.5 0.4 0.7 1.4 0.9 2.3 0.6 0.9 -0.4 1.9 0.1 2.5 1 0.5 1 1.4 1.7 1.9 1.7 0.6 0 0.7 -0.5 0.3 -1.2 -0.4 -0.7 -0.3 -0.8 0.4 -0.4 1.6 1 1.5 1.4 -0.9 2.7 -1.2 0.6 -1.9 0.7 -1.5 0.1 0.3 -0.5 -0.1 -1.3 -1 -1.6 -1 -0.4 -1.3 -0.2 -0.8 0.6 0.5 0.8 0.2 0.9 -1 0.5 -1 -0.4 -2.7 -0.2 -3.9 0.4 -1.2 0.7 -1.9 0.8 -1.5 0.4 0.4 -0.4 0.1 -1.4 -0.7 -2.2 -1.8 -1.8 -2 -3.7 -0.2 -2.7 0.9 0.5 0.9 0.4 0 -0.6 -1.6 -1.7 -4.3 0.3 -4.3 3.2 0 1.6 -0.3 1.8 -1.4 0.9 -1 -0.8 -1.6 -0.8 -2.5 0.2 -0.6 0.8 -0.8 1.6 -0.5 2 0.3 0.3 -0.4 0.3 -1.7 0 -1.4 -0.4 -2 -0.2 -1.6 0.4 0.4 0.6 0 1.3 -0.8 1.6 -1 0.4 -1.2 0.1 -0.8 -1 0.5 -1.2 0.3 -1.4 -0.7 -0.8 -0.9 0.5 -1.1 0.4 -0.6 -0.4 0.4 -0.6 1.3 -0.9 1.9 -0.5 0.7 0.3 0.4 -0.1 -0.5 -0.9 -2.4 -1.9 -2.2 -2.7 0.6 -2.7 3.5 0 4 -1.5 0.5 -1.6 -1.6 -0.1 -2.9 0.3 -2.9 0.7 0 0.5 -0.7 0.5 -1.7 0.2 -1.2 -0.5 -1.4 -0.3 -0.7 0.8 0.4 0.8 1 2.2 1.1 3.3 0.3 1.5 0.1 1.7 -1.1 0.6 -0.9 -0.6 -2 -0.9 -2.7 -0.5 -0.6 0.4 -1.5 0.1 -2 -0.6 -0.6 -1.1 -1.1 -1.1 -2 -0.2 -0.6 0.6 -1.8 0.9 -2.5 0.6 -0.8 -0.3 -1.4 0 -1.4 0.6 0 0.6 -0.8 1.1 -1.7 1.1 -1.4 0 -1.5 -0.2 -0.4 -0.9 0.9 -0.6 1 -1.1 0.2 -1.5 -0.6 -0.4 -1.1 -0.4 -1.1 0 0 0.4 -0.8 0 -1.8 -0.9 -1 -0.9 -2.9 -1.8 -4.3 -1.9 l-2.4 -0.3 0.1 12.4 c0.1 6.9 0.5 16.3 0.9 20.9 l0.7 8.5 15.2 -0.7 c105.7 -4.3 195.9 -7.6 200 -7.3 3.8 0.2 3.2 0.4 -2.7 0.5 -4.3 0.1 -16.5 0.7 -27 1.2 -24.8 1.3 -145.4 6.8 -166.2 7.5 -8.8 0.3 -17 0.8 -18.2 1 -2 0.5 -2.2 0 -2.7 -5.8z m17.8 -38.9 c-0.4 -0.7 -1 -0.5 -1.5 0.4 -0.6 1.1 -1.9 1.3 -5.3 0.8 -2.5 -0.4 -4.3 -0.3 -4 0.2 0.3 0.4 1.8 0.8 3.5 0.8 1.6 0 2.9 0.5 2.9 1 0 0.6 1.1 0.3 2.5 -0.6 1.4 -0.9 2.2 -2.1 1.9 -2.6z m13.1 3.2 c0.3 -0.5 -0.3 -1 -1.5 -1 -1.2 0 -1.8 0.5 -1.5 1 0.3 0.6 1 1 1.5 1 0.5 0 1.2 -0.4 1.5 -1z m38.1 -2.8 c0.1 -1.2 -0.2 -1.9 -0.7 -1.7 -0.4 0.3 -0.9 -0.1 -1.2 -0.7 -0.2 -0.7 -0.4 0.2 -0.3 1.9 0.1 3.6 2 4 2.2 0.5z m35.4 -1.2 c1.3 -0.9 1.3 -1 0 -1 -0.8 0 -2.2 0.5 -3 1 -1.3 0.9 -1.3 1 0 1 0.8 0 2.2 -0.5 3 -1z m62.3 -0.2 c1.9 0.4 2 -0.3 0.7 -3.3 -0.8 -1.8 -0.9 -1.8 -0.9 0.5 -0.1 2 -0.3 2.2 -1.1 1 -0.5 -0.8 -1 -1.1 -1 -0.6 0 0.5 -0.9 0.1 -2 -0.9 -1.8 -1.7 -2 -1.7 -1.4 -0.2 0.3 0.9 1.1 1.7 1.6 1.7 0.6 0 0.7 0.7 0.4 1.6 -0.4 1 -0.2 1.3 0.7 0.7 0.6 -0.4 2 -0.6 3 -0.5z m207.3 -9.8 c0 -1.1 -0.1 -2 -0.3 -2 -0.1 0 -0.7 0.9 -1.3 2 -0.8 1.5 -0.8 2 0.3 2 0.7 0 1.3 -0.9 1.3 -2z m57.6 -1.5 c0.4 -2.1 0.3 -2.3 -1.4 -1.4 -1.5 0.8 -1.7 1.3 -0.7 2.5 1.5 1.8 1.6 1.8 2.1 -1.1z m-20.2 0.5 c0 -0.5 0.8 -1 1.7 -1 2.1 0 1.4 -0.7 -1.1 -1.2 -1.2 -0.2 -2 0.3 -2.1 1.5 -0.2 0.9 0.1 1.7 0.6 1.7 0.5 0 0.9 -0.4 0.9 -1z m47.6 -3.2 c-1.6 -0.9 -3.6 -0.3 -3.6 1.1 0 0.5 1.2 0.6 2.6 0.3 2.2 -0.4 2.4 -0.6 1 -1.4z"/>
  <path d="M284.8 429.3 c2.9 -0.2 7.4 -0.2 10 0 2.6 0.2 0.2 0.3 -5.3 0.3 -5.5 0 -7.6 -0.1 -4.7 -0.3z"/>
  <path d="M309.3 428.3 c2.6 -0.2 6.7 -0.2 9 0 2.3 0.2 0.2 0.3 -4.8 0.3 -4.9 0 -6.8 -0.1 -4.2 -0.3z"/>
  <path d="M334.3 427.3 c2 -0.2 5.4 -0.2 7.5 0 2 0.2 0.3 0.4 -3.8 0.4 -4.1 0 -5.8 -0.2 -3.7 -0.4z"/>
  <path d="M358.8 426.3 c1.8 -0.2 4.5 -0.2 6 0 1.5 0.2 0 0.4 -3.3 0.4 -3.3 0 -4.5 -0.2 -2.7 -0.4z"/>
  <path d="M383.8 425.3 c1.2 -0.2 3 -0.2 4 0 0.9 0.3 -0.1 0.5 -2.3 0.4 -2.2 0 -3 -0.2 -1.7 -0.4z"/>
  <path d="M61 401.9 c0 -0.5 -0.4 -0.8 -0.9 -0.5 -0.5 0.3 -1.4 -0.1 -2.1 -1 -1.1 -1.2 -1.1 -1.7 -0.1 -2.7 1 -0.9 1.2 -0.8 0.9 0.8 -0.2 1.5 0.2 2 1.9 1.9 1.4 -0.1 2 0.3 1.6 1.2 -0.6 1.7 -1.3 1.8 -1.3 0.3z"/>
  <path d="M179.3 399.3 c-0.7 -0.3 -1.3 -1.1 -1.3 -2 0 -1.2 0.2 -1.2 1.6 0.2 1.8 1.7 1.6 2.5 -0.3 1.8z"/>
  <path d="M260.5 393.9 c-0.3 -0.4 -0.1 -1 0.5 -1.4 0.5 -0.3 1 -0.3 1 0.1 0 0.4 0.7 -0.1 1.6 -1.2 0.8 -1 1.3 -1.3 0.9 -0.6 -0.3 0.6 -0.1 1.2 0.4 1.2 0.6 0 1.1 0.4 1.1 0.9 0 1.1 -4.9 2.1 -5.5 1z"/>
  <path d="M341.5 393 c0.2 -1.1 -0.3 -2.4 -1.3 -2.9 -1.4 -0.8 -1.4 -1.1 -0.2 -2.6 1.5 -1.9 3.2 -0.2 2.2 2.3 -0.3 0.9 -0.1 1.3 0.5 0.9 0.7 -0.5 0.9 0 0.6 1.3 -0.7 2.7 -2.3 3.6 -1.8 1z"/>
  <path d="M283 392.6 c0 -1.7 1.6 -3 2.3 -1.9 0.3 0.5 -0.1 1.4 -0.9 2.1 -1.2 1 -1.4 1 -1.4 -0.2z"/>
  <path d="M293 392.5 c0 -0.9 0.6 -1.2 1.5 -0.9 0.8 0.4 1.5 1 1.5 1.5 0 0.5 -0.7 0.9 -1.5 0.9 -0.8 0 -1.5 -0.7 -1.5 -1.5z"/>
  <path d="M311 392.7 c0 -2.2 3.1 -1.9 3.7 0.3 0.4 1.3 0.3 1.3 -0.6 0 -1 -1.3 -1.2 -1.3 -2.1 0 -0.8 1.3 -1 1.2 -1 -0.3z"/>
  <path d="M320 392.1 c0 -1.1 -0.3 -2.8 -0.7 -3.8 -0.7 -1.7 -0.6 -1.7 1.1 -0.1 0.9 1 1.4 2.3 1 2.9 -0.4 0.8 -0.3 0.9 0.4 0.5 0.7 -0.4 1.2 -0.3 1.2 0.2 0 0.6 -0.7 1.2 -1.5 1.6 -1 0.3 -1.5 -0.1 -1.5 -1.3z"/>
  <path d="M367.4 391 c0 -1.5 0.4 -1.6 1.8 -0.9 1 0.5 1.8 1.3 1.8 1.6 0 0.3 -0.3 0.3 -0.7 0 -0.3 -0.4 -1.1 -0.3 -1.7 0.3 -0.8 0.6 -1.2 0.3 -1.2 -1z"/>
  <path d="M472.6 387.4 c-0.8 -2.1 -0.8 -3.9 0.1 -3 0.8 0.7 1.5 4.6 0.9 4.6 -0.2 0 -0.7 -0.7 -1 -1.6z"/>
  <path d="M499.2 385 c-1.3 -3.5 0.1 -4.9 2.4 -2.6 1.4 1.4 1.1 2 -0.7 1.8 -0.4 -0.1 -0.5 0.8 -0.2 1.8 0.8 3.1 -0.4 2.3 -1.5 -1z"/>
  <path d="M545.5 385.1 c-0.3 -0.6 -1.4 -0.8 -2.5 -0.6 -1.1 0.2 -2 0 -2 -0.6 0 -0.5 0.4 -0.9 0.9 -0.9 0.5 0 1.8 -0.3 2.8 -0.7 1 -0.3 1.5 -0.3 1.1 0.2 -0.4 0.4 -0.3 1.4 0.3 2.2 0.6 0.7 0.9 1.3 0.6 1.3 -0.3 0 -0.8 -0.4 -1.2 -0.9z"/>
 </g>
</svg>