<svg width="15" height="20" viewBox="0 0 15 20" fill="none" xmlns="http://www.w3.org/2000/svg">
<path d="M14.5 7.93478C14.5 9.72848 13.8188 11.8276 12.6602 13.7769C11.5037 15.723 9.89767 17.4753 8.10091 18.5925C7.73212 18.8217 7.26788 18.8217 6.89909 18.5925C5.10232 17.4753 3.4963 15.723 2.33975 13.7769C1.18124 11.8276 0.5 9.72848 0.5 7.93478C0.5 4.10892 3.62988 1 7.5 1C11.3701 1 14.5 4.10892 14.5 7.93478Z" stroke="#374151" stroke-opacity="0.42"/>
<path d="M11.1667 8.1225C11.1667 10.2482 9.50836 11.9407 7.5 11.9407C5.49163 11.9407 3.83333 10.2482 3.83333 8.1225C3.83333 5.9968 5.49163 4.30432 7.5 4.30432C9.50836 4.30432 11.1667 5.9968 11.1667 8.1225Z" stroke="#374151" stroke-opacity="0.42"/>
</svg>
