<?xml version="1.0" encoding="utf-8"?>
<!DOCTYPE svg PUBLIC "-//W3C//DTD SVG 20010904//EN" "http://www.w3.org/TR/2001/REC-SVG-20010904/DTD/svg10.dtd">
<svg version="1.0" xmlns="http://www.w3.org/2000/svg" width="748px" height="415px" viewBox="0 0 748 415" preserveAspectRatio="xMidYMid meet">
 <g fill="#f3f4f6">
  <path d="M530.5 414 c-1.5 -2.5 4.8 -6.9 7 -5 1.9 1.6 6.7 -0.1 11 -3.9 1.9 -1.6 5.6 -3.4 8.6 -4.1 3 -0.7 6 -2.1 6.7 -3.2 0.7 -1 2.1 -1.8 3 -1.8 0.9 0 3.5 -1.9 5.7 -4.1 2.2 -2.3 7.8 -6.5 12.4 -9.3 7.2 -4.3 8.5 -5.5 8.6 -7.8 0 -1.6 0.8 -3.5 1.6 -4.4 1.4 -1.3 1.4 -2 0.1 -6 -1.3 -4.1 -1.3 -4.6 0.3 -6.4 1.6 -1.8 1.7 -2.1 0.1 -4.5 -1.5 -2.3 -1.5 -2.6 0.2 -4.1 1.6 -1.3 1.7 -2.1 0.8 -5.5 -0.6 -2.3 -1.6 -3.9 -2.5 -3.9 -1 0 -0.8 -0.7 0.9 -2.5 1.3 -1.4 2.9 -2.5 3.6 -2.5 2 0 2.7 -1.9 1.4 -3.5 -0.7 -0.8 -2.3 -1.5 -3.6 -1.5 -1.3 0 -5.3 -1.2 -8.9 -2.6 -3.6 -1.5 -6.9 -2.4 -7.2 -2 -0.3 0.3 -0.1 2.3 0.5 4.5 1.3 4.2 1.6 9.1 0.5 9.1 -0.4 0 -1.6 -0.9 -2.8 -2 -3.1 -2.9 -4.6 -1.1 -5.4 6.3 -0.8 7.4 -1.7 9 -3.6 6.4 -1.3 -1.9 -6.9 -3.9 -7.9 -2.9 -0.3 0.3 0.1 1.3 1 2.3 0.9 1 1.4 2.6 1.2 3.6 -0.3 1.5 -1.3 1.8 -5.7 1.8 l-5.3 -0.1 0.7 5.2 c0.4 3.3 0.2 5.4 -0.5 5.9 -1.2 0.8 -4 -5.3 -4 -8.9 0 -2.9 -2.4 -4 -5.2 -2.5 -1.7 0.9 -2 1.7 -1.4 5.5 0.6 4.9 -0.7 5.9 -2.6 1.9 -1.5 -3.3 -2.8 -3.2 -2.8 0.3 0 1.6 -0.6 3.7 -1.4 4.7 -1 1.3 -1.1 2.8 -0.5 4.9 1.6 5.5 1.2 6.3 -3.7 7.6 -2.6 0.8 -5.2 2.3 -6.1 3.6 -0.8 1.3 -3.1 2.8 -5.1 3.5 -2 0.6 -4.2 1.6 -4.8 2 -0.7 0.6 -3.4 0.3 -6.9 -0.6 -5 -1.3 -6.1 -1.3 -9.2 0 -2 0.8 -3.7 1.5 -3.9 1.5 -0.2 0 -0.4 -1.9 -0.4 -4.3 0 -5.9 -1.8 -20.3 -3.1 -25.4 -0.8 -2.9 -0.8 -4.7 -0.2 -5.5 0.6 -0.7 1.3 -3.2 1.6 -5.5 0.5 -3.9 0.3 -4.2 -2.7 -5.3 -9.9 -3.7 -10.2 -4 -15.5 -12.7 -2.8 -4.7 -5.1 -8.8 -5.1 -9.2 0 -1.4 -5.5 -5.8 -11.2 -9 -3.8 -2.2 -5.8 -3.9 -5.8 -5.1 0 -1 -0.4 -2.1 -0.9 -2.4 -1.2 -0.8 -2.4 -9.3 -1.5 -10.8 0.9 -1.4 1.6 -6.5 1.3 -9.8 -0.1 -1.4 -0.2 -3.8 -0.2 -5.3 0 -2.8 0 -2.9 -4.5 -2.2 l-4.5 0.7 0.7 -17.5 0.8 -17.4 -5.8 -0.5 c-3.2 -0.3 -23.1 -0.3 -44.1 0 -38.2 0.5 -38.3 0.5 -38.3 -1.6 0 -1.8 -0.8 -2.1 -5.2 -2.6 -11.1 -1 -36.6 -2.6 -42.8 -2.6 -3.6 0 -10.8 -0.4 -16 -1 -5.2 -0.5 -18.9 -1.4 -30.5 -2 -11.5 -0.6 -29.5 -1.5 -40 -2.1 -14.4 -0.7 -20.5 -0.7 -25.3 0.3 -4.9 0.9 -6.8 0.9 -8.3 0 -1 -0.7 -3.2 -1.2 -4.8 -1.2 -1.7 0 -5.2 -0.4 -7.8 -0.9 -7.2 -1.5 -17.3 -1.9 -17.3 -0.7 0 0.5 -0.7 2.6 -1.6 4.7 -1.7 3.7 -4.2 4.9 -11.3 4.9 -2.2 0 -2.3 -0.2 -1.7 -5.4 l0.7 -5.4 -5.3 -0.6 c-2.9 -0.3 -14.1 -1 -24.8 -1.6 -10.7 -0.6 -25.1 -1.7 -32 -2.5 -6.9 -0.8 -19.2 -1.9 -27.5 -2.5 -28.9 -2 -42 -3.1 -47.2 -3.6 l-5.2 -0.6 -1.1 -5.4 c-1.1 -5.3 -1.1 -5.6 8.8 -35.6 5.5 -16.7 13.7 -41.8 18.2 -55.8 4.5 -14 11.5 -35.2 15.5 -47 4 -11.8 9.4 -28 12 -35.9 l4.7 -14.4 6.7 0.8 c7.8 0.8 24 2 48.1 3.5 9.6 0.6 28.5 2.2 42 3.5 13.5 1.3 33.5 2.9 44.5 3.5 10.9 0.6 20.2 1.3 20.5 1.5 0.3 0.2 14.1 1.3 30.5 2.4 16.5 1.2 34.7 2.5 40.5 3.1 15.7 1.4 32.9 2.7 58.5 4.5 12.7 0.8 29.5 2 37.5 2.5 8 0.6 23.1 1.5 33.5 2 10.5 0.5 24.8 1.5 31.8 2.1 11.8 1.1 12.9 1 14.7 -0.6 1.1 -1 2 -2.3 2 -2.9 0 -2 8.5 -9.6 10.5 -9.6 1.1 0.1 3.7 0.7 5.9 1.5 l3.8 1.3 -0.7 -7.2 -0.6 -7.2 3.4 -3.5 c4.5 -4.6 7.7 -5.2 16 -3 l6.7 1.8 1.7 -5.3 c0.9 -3 2.4 -6.1 3.2 -6.8 0.9 -0.8 4.9 -2.1 8.8 -2.9 4 -0.8 8.9 -2.5 10.9 -3.7 5.2 -3.3 13.4 -2.4 17.8 1.9 2.9 2.8 3.4 3 5.2 1.6 3.6 -2.7 4.1 -1.8 4.8 7.9 1 14.4 4.7 31 7.7 34.1 1.2 1.2 1.2 5.2 -0.1 6 -1.4 0.8 1.3 3.5 3.6 3.5 1.6 0 5.4 3.5 5.4 5 0 0.7 7.2 4 8.5 4 0.3 0 0.5 -0.6 0.5 -1.3 0 -1.5 5.5 -7 8.8 -8.7 3.8 -1.9 5.3 -0.7 4.6 3.9 -0.5 3.4 -0.3 4 1.5 4.6 1.1 0.3 2.5 0.4 3.1 0 1.1 -0.7 2.3 3.5 1.8 6.2 -0.2 1 -1.2 1.8 -2.3 1.8 -1.3 0 -3 1.8 -5.2 5.4 -3.5 5.8 -7.1 10.1 -8.6 10.1 -0.5 0 -1.1 -0.9 -1.4 -2.1 -0.6 -2 -0.6 -2 -2.7 -0.1 -2.7 2.4 -8.7 4.5 -9.8 3.4 -0.9 -0.9 -10.6 1.7 -16.3 4.3 -1.6 0.8 -5.2 1.7 -7.8 2 -4.4 0.6 -4.8 0.9 -4.3 2.8 0.3 1.2 0.6 2.5 0.6 2.8 0 0.4 1.1 1 2.5 1.3 3.2 0.8 4.8 3.9 4 7.7 -0.5 2.4 -1.1 2.9 -2.6 2.4 -2.3 -0.8 -8.9 3.8 -8.9 6.1 0 1.7 -1.4 1.8 -4 0.2 -1.5 -1 -2.3 -0.9 -3.9 0.6 -3.3 3 -2.7 6.4 1.5 8.2 2.4 1 3.4 2 3.2 3.2 -0.2 0.9 -0.7 1.6 -1.1 1.5 -0.4 -0.2 -2 -0.3 -3.5 -0.3 -3 0 -5.2 -3 -5.2 -7.1 0 -1.7 -0.6 -1.4 -3.6 1.7 -1.9 2.1 -3.9 4.5 -4.4 5.3 -0.8 1.6 0.7 6.1 2.2 6.1 0.4 0 0.8 1 0.8 2.3 0 1.2 0.9 4 2 6.2 3.2 6.3 2.5 8.3 -1.6 4.4 -1.5 -1.4 -2.9 -1.9 -4.3 -1.4 -3.7 1.1 -6.7 9.4 -4 11.1 0.6 0.3 0.9 2 0.6 3.8 -0.2 1.7 0.2 4.4 1 5.9 1.4 2.7 1.7 2.8 6.3 2.2 3 -0.4 5 -0.3 5.5 0.4 0.3 0.6 1.7 1.1 3.1 1.1 1.8 0 2.9 -0.9 4.1 -3.6 1.7 -3.5 1.7 -3.6 -0.5 -5.3 -2.8 -2 -2 -3.1 2.3 -3.1 2.8 0 3.4 0.6 5 4 2.3 5.1 4 6.6 9.3 8 6.6 1.7 12.1 4.9 13.7 7.9 0.7 1.4 2.9 4.1 4.9 6 2.7 2.6 3.7 4.5 4.1 8 0.7 4.9 2.8 9.5 8.1 17.8 1.9 2.8 3.4 5.5 3.4 6 0 0.4 1.2 1.9 2.5 3.2 2.5 2.3 3.4 6.1 1.5 6.1 -0.6 0 -0.8 1.5 -0.4 3.9 0.6 3.7 0.4 4 -2.5 5.5 -2.7 1.4 -3.1 2.2 -3.1 5.6 0 4.5 -1.1 5.6 -3.8 3.9 -2.5 -1.5 -5.6 -0.5 -4.5 1.5 2.1 3.6 10.4 11.5 11.7 11 0.8 -0.3 2.5 0.9 4 2.8 2.3 2.9 2.8 3.2 4.6 2.1 4.9 -3.1 11.7 0.8 12.7 7.5 0.3 2 1.2 4.4 2 5.3 2.6 3 2.8 12 0.4 17.4 l-2.1 4.8 2.1 3.3 c1.1 1.8 4.7 5.7 7.9 8.6 8.2 7.4 17 10.8 32.2 12.2 10.1 1 12 1.4 14.2 3.5 l2.6 2.4 2.3 -2 c5.1 -4.6 8.9 -6.3 16.8 -7.8 17 -3.3 28.6 -7.5 32.8 -11.9 2.2 -2.4 2.3 -2.9 1.6 -12 -0.4 -6.1 -0.3 -10.1 0.4 -11.4 0.9 -1.6 0.7 -2.1 -0.9 -2.5 -2.1 -0.6 -4 -4.4 -4 -8.3 0 -1.7 -0.6 -2.4 -1.9 -2.4 -3 0 -4.6 2.9 -5.2 9.4 -0.5 5.8 -0.6 6 -1.7 3.3 -0.7 -1.8 -1.2 -8.3 -1.2 -17 0 -15.3 -0.8 -19.6 -4.3 -24.8 -2.5 -3.7 -9 -7.9 -12.3 -7.9 -1.1 0 -3.1 1.1 -4.3 2.4 -1.9 2 -2.2 3.1 -1.7 6 1 5.1 -0.6 4.5 -5.4 -1.8 -2.2 -3 -4.8 -6 -5.7 -6.5 -1.6 -1 -1.5 -1.4 1.5 -4.1 2.5 -2.4 4.1 -3 7.5 -3 5.2 0 16.2 3.3 22 6.6 4.3 2.3 11 8.6 13.1 12.2 4.9 8.5 8.3 16.2 11.6 26.6 6.6 20.6 8.2 29.3 8.7 47.6 0.6 19 -0.4 25.6 -4.8 32.3 -3.4 5.2 -6.3 13.1 -7.3 20.2 -0.9 5.6 -2 7.5 -4.6 7.5 -2.3 0 -3.5 -3.1 -1.7 -4.2 1.7 -0.9 4.3 -7.8 5.1 -13.7 0.4 -2.4 1.4 -5.7 2.2 -7.3 1.9 -3.7 0.9 -6.8 -3 -9.3 -2.1 -1.4 -3.3 -1.5 -7.6 -0.6 -2.8 0.6 -6.8 1.1 -8.9 1.1 -2.1 0 -5.8 0.7 -8.1 1.5 -2.3 0.8 -5.7 1.5 -7.4 1.6 -1.7 0 -6.9 1.3 -11.6 2.8 -7 2.2 -8.8 3.2 -10.5 5.8 -2.4 3.9 -3.8 3.7 -4.5 -0.7 l-0.5 -3.3 -8.4 -0.2 -8.3 -0.2 -2 3.2 c-2.1 3.6 -4.1 4.5 -10.5 4.5 -3.9 0 -4.4 0.3 -6.3 4 -4.8 9.4 -9.6 12 -22.6 12 -10.7 0 -16.5 1.6 -20.2 5.5 -1.8 1.9 -4.1 3.5 -5.1 3.5 -1 0 -2.8 1.1 -4.1 2.4 -1.2 1.4 -3.6 2.8 -5.1 3.1 -3.3 0.7 -8.9 5.1 -8.9 6.9 0 1.7 -7.9 5.4 -12.7 5.9 -3 0.4 -5 1.4 -7.2 3.6 -2.6 2.7 -3.8 3.1 -8.3 3.1 -2.9 0.1 -7.1 0.7 -9.3 1.5 -4.8 1.8 -4.2 1.7 -5 0.5z"/>
  <path d="M556.7 365.2 c-2.1 -2.3 -2.1 -3.6 -0.2 -5.2 1.2 -1 1.6 -0.8 2.5 1.5 2 5.3 0.8 7.2 -2.3 3.7z"/>
 </g>
</svg>