<svg xmlns="http://www.w3.org/2000/svg" width="17" height="17" fill="none" viewBox="0 0 17 17">
  <path fill="#1ED760" d="M8.5 0a8.5 8.5 0 1 0 0 17 8.5 8.5 0 0 0 0-17Zm3.898 12.26a.53.53 0 0 1-.729.175c-1.995-1.219-4.508-1.495-7.467-.819a.53.53 0 0 1-.235-1.033c3.238-.74 6.015-.422 8.255.948a.53.53 0 0 1 .176.728Zm1.04-2.315a.662.662 0 0 1-.911.219c-2.285-1.405-5.768-1.812-8.47-.992a.664.664 0 0 1-.385-1.268c3.087-.936 6.924-.483 9.548 1.13.312.192.41.6.218.91Zm.09-2.41c-2.74-1.628-7.26-1.777-9.875-.983A.795.795 0 1 1 3.19 5.03c3.003-.911 7.994-.735 11.148 1.137a.794.794 0 1 1-.81 1.368h-.001Z"/>
</svg>
